<?xml version="1.0" encoding="utf-8" standalone="no"?>
<!DOCTYPE svg PUBLIC "-//W3C//DTD SVG 1.1//EN"
  "http://www.w3.org/Graphics/SVG/1.1/DTD/svg11.dtd">
<svg xmlns:xlink="http://www.w3.org/1999/xlink" width="720pt" height="432pt" viewBox="0 0 720 432" xmlns="http://www.w3.org/2000/svg" version="1.1">
 <metadata>
  <rdf:RDF xmlns:dc="http://purl.org/dc/elements/1.1/" xmlns:cc="http://creativecommons.org/ns#" xmlns:rdf="http://www.w3.org/1999/02/22-rdf-syntax-ns#">
   <cc:Work>
    <dc:type rdf:resource="http://purl.org/dc/dcmitype/StillImage"/>
    <dc:date>2026-03-30T13:53:06.980282</dc:date>
    <dc:format>image/svg+xml</dc:format>
    <dc:creator>
     <cc:Agent>
      <dc:title>Matplotlib v3.10.7, https://matplotlib.org/</dc:title>
     </cc:Agent>
    </dc:creator>
   </cc:Work>
  </rdf:RDF>
 </metadata>
 <defs>
  <style type="text/css">*{stroke-linejoin: round; stroke-linecap: butt}</style>
 </defs>
 <g id="figure_1">
  <g id="patch_1">
   <path d="M 0 432 
L 720 432 
L 720 0 
L 0 0 
z
" style="fill: #ffffff"/>
  </g>
  <g id="axes_1">
   <g id="patch_2">
    <path d="M 90 384.48 
L 648 384.48 
L 648 51.84 
L 90 51.84 
z
" style="fill: #ffffff"/>
   </g>
   <g id="matplotlib.axis_1">
    <g id="xtick_1">
     <g id="line2d_1">
      <defs>
       <path id="mb0bfc9cc19" d="M 0 0 
L 0 3.5 
" style="stroke: #000000; stroke-width: 0.8"/>
      </defs>
      <g>
       <use xlink:href="#mb0bfc9cc19" x="110.239669" y="384.48" style="stroke: #000000; stroke-width: 0.8"/>
      </g>
     </g>
     <g id="text_1">
      <!-- 0 -->
      <g transform="translate(107.058419 399.078438) scale(0.1 -0.1)">
       <defs>
        <path id="DejaVuSans-30" d="M 2034 4250 
Q 1547 4250 1301 3770 
Q 1056 3291 1056 2328 
Q 1056 1369 1301 889 
Q 1547 409 2034 409 
Q 2525 409 2770 889 
Q 3016 1369 3016 2328 
Q 3016 3291 2770 3770 
Q 2525 4250 2034 4250 
z
M 2034 4750 
Q 2819 4750 3233 4129 
Q 3647 3509 3647 2328 
Q 3647 1150 3233 529 
Q 2819 -91 2034 -91 
Q 1250 -91 836 529 
Q 422 1150 422 2328 
Q 422 3509 836 4129 
Q 1250 4750 2034 4750 
z
" transform="scale(0.015625)"/>
       </defs>
       <use xlink:href="#DejaVuSans-30"/>
      </g>
     </g>
    </g>
    <g id="xtick_2">
     <g id="line2d_2">
      <g>
       <use xlink:href="#mb0bfc9cc19" x="212.719008" y="384.48" style="stroke: #000000; stroke-width: 0.8"/>
      </g>
     </g>
     <g id="text_2">
      <!-- 200 -->
      <g transform="translate(203.175258 399.078438) scale(0.1 -0.1)">
       <defs>
        <path id="DejaVuSans-32" d="M 1228 531 
L 3431 531 
L 3431 0 
L 469 0 
L 469 531 
Q 828 903 1448 1529 
Q 2069 2156 2228 2338 
Q 2531 2678 2651 2914 
Q 2772 3150 2772 3378 
Q 2772 3750 2511 3984 
Q 2250 4219 1831 4219 
Q 1534 4219 1204 4116 
Q 875 4013 500 3803 
L 500 4441 
Q 881 4594 1212 4672 
Q 1544 4750 1819 4750 
Q 2544 4750 2975 4387 
Q 3406 4025 3406 3419 
Q 3406 3131 3298 2873 
Q 3191 2616 2906 2266 
Q 2828 2175 2409 1742 
Q 1991 1309 1228 531 
z
" transform="scale(0.015625)"/>
       </defs>
       <use xlink:href="#DejaVuSans-32"/>
       <use xlink:href="#DejaVuSans-30" transform="translate(63.623047 0)"/>
       <use xlink:href="#DejaVuSans-30" transform="translate(127.246094 0)"/>
      </g>
     </g>
    </g>
    <g id="xtick_3">
     <g id="line2d_3">
      <g>
       <use xlink:href="#mb0bfc9cc19" x="315.198347" y="384.48" style="stroke: #000000; stroke-width: 0.8"/>
      </g>
     </g>
     <g id="text_3">
      <!-- 400 -->
      <g transform="translate(305.654597 399.078438) scale(0.1 -0.1)">
       <defs>
        <path id="DejaVuSans-34" d="M 2419 4116 
L 825 1625 
L 2419 1625 
L 2419 4116 
z
M 2253 4666 
L 3047 4666 
L 3047 1625 
L 3713 1625 
L 3713 1100 
L 3047 1100 
L 3047 0 
L 2419 0 
L 2419 1100 
L 313 1100 
L 313 1709 
L 2253 4666 
z
" transform="scale(0.015625)"/>
       </defs>
       <use xlink:href="#DejaVuSans-34"/>
       <use xlink:href="#DejaVuSans-30" transform="translate(63.623047 0)"/>
       <use xlink:href="#DejaVuSans-30" transform="translate(127.246094 0)"/>
      </g>
     </g>
    </g>
    <g id="xtick_4">
     <g id="line2d_4">
      <g>
       <use xlink:href="#mb0bfc9cc19" x="417.677686" y="384.48" style="stroke: #000000; stroke-width: 0.8"/>
      </g>
     </g>
     <g id="text_4">
      <!-- 600 -->
      <g transform="translate(408.133936 399.078438) scale(0.1 -0.1)">
       <defs>
        <path id="DejaVuSans-36" d="M 2113 2584 
Q 1688 2584 1439 2293 
Q 1191 2003 1191 1497 
Q 1191 994 1439 701 
Q 1688 409 2113 409 
Q 2538 409 2786 701 
Q 3034 994 3034 1497 
Q 3034 2003 2786 2293 
Q 2538 2584 2113 2584 
z
M 3366 4563 
L 3366 3988 
Q 3128 4100 2886 4159 
Q 2644 4219 2406 4219 
Q 1781 4219 1451 3797 
Q 1122 3375 1075 2522 
Q 1259 2794 1537 2939 
Q 1816 3084 2150 3084 
Q 2853 3084 3261 2657 
Q 3669 2231 3669 1497 
Q 3669 778 3244 343 
Q 2819 -91 2113 -91 
Q 1303 -91 875 529 
Q 447 1150 447 2328 
Q 447 3434 972 4092 
Q 1497 4750 2381 4750 
Q 2619 4750 2861 4703 
Q 3103 4656 3366 4563 
z
" transform="scale(0.015625)"/>
       </defs>
       <use xlink:href="#DejaVuSans-36"/>
       <use xlink:href="#DejaVuSans-30" transform="translate(63.623047 0)"/>
       <use xlink:href="#DejaVuSans-30" transform="translate(127.246094 0)"/>
      </g>
     </g>
    </g>
    <g id="xtick_5">
     <g id="line2d_5">
      <g>
       <use xlink:href="#mb0bfc9cc19" x="520.157025" y="384.48" style="stroke: #000000; stroke-width: 0.8"/>
      </g>
     </g>
     <g id="text_5">
      <!-- 800 -->
      <g transform="translate(510.613275 399.078438) scale(0.1 -0.1)">
       <defs>
        <path id="DejaVuSans-38" d="M 2034 2216 
Q 1584 2216 1326 1975 
Q 1069 1734 1069 1313 
Q 1069 891 1326 650 
Q 1584 409 2034 409 
Q 2484 409 2743 651 
Q 3003 894 3003 1313 
Q 3003 1734 2745 1975 
Q 2488 2216 2034 2216 
z
M 1403 2484 
Q 997 2584 770 2862 
Q 544 3141 544 3541 
Q 544 4100 942 4425 
Q 1341 4750 2034 4750 
Q 2731 4750 3128 4425 
Q 3525 4100 3525 3541 
Q 3525 3141 3298 2862 
Q 3072 2584 2669 2484 
Q 3125 2378 3379 2068 
Q 3634 1759 3634 1313 
Q 3634 634 3220 271 
Q 2806 -91 2034 -91 
Q 1263 -91 848 271 
Q 434 634 434 1313 
Q 434 1759 690 2068 
Q 947 2378 1403 2484 
z
M 1172 3481 
Q 1172 3119 1398 2916 
Q 1625 2713 2034 2713 
Q 2441 2713 2670 2916 
Q 2900 3119 2900 3481 
Q 2900 3844 2670 4047 
Q 2441 4250 2034 4250 
Q 1625 4250 1398 4047 
Q 1172 3844 1172 3481 
z
" transform="scale(0.015625)"/>
       </defs>
       <use xlink:href="#DejaVuSans-38"/>
       <use xlink:href="#DejaVuSans-30" transform="translate(63.623047 0)"/>
       <use xlink:href="#DejaVuSans-30" transform="translate(127.246094 0)"/>
      </g>
     </g>
    </g>
    <g id="xtick_6">
     <g id="line2d_6">
      <g>
       <use xlink:href="#mb0bfc9cc19" x="622.636364" y="384.48" style="stroke: #000000; stroke-width: 0.8"/>
      </g>
     </g>
     <g id="text_6">
      <!-- 1000 -->
      <g transform="translate(609.911364 399.078438) scale(0.1 -0.1)">
       <defs>
        <path id="DejaVuSans-31" d="M 794 531 
L 1825 531 
L 1825 4091 
L 703 3866 
L 703 4441 
L 1819 4666 
L 2450 4666 
L 2450 531 
L 3481 531 
L 3481 0 
L 794 0 
L 794 531 
z
" transform="scale(0.015625)"/>
       </defs>
       <use xlink:href="#DejaVuSans-31"/>
       <use xlink:href="#DejaVuSans-30" transform="translate(63.623047 0)"/>
       <use xlink:href="#DejaVuSans-30" transform="translate(127.246094 0)"/>
       <use xlink:href="#DejaVuSans-30" transform="translate(190.869141 0)"/>
      </g>
     </g>
    </g>
    <g id="text_7">
     <!-- N -->
     <g transform="translate(365.259375 412.756563) scale(0.1 -0.1)">
      <defs>
       <path id="DejaVuSans-4e" d="M 628 4666 
L 1478 4666 
L 3547 763 
L 3547 4666 
L 4159 4666 
L 4159 0 
L 3309 0 
L 1241 3903 
L 1241 0 
L 628 0 
L 628 4666 
z
" transform="scale(0.015625)"/>
      </defs>
      <use xlink:href="#DejaVuSans-4e"/>
     </g>
    </g>
   </g>
   <g id="matplotlib.axis_2">
    <g id="ytick_1">
     <g id="line2d_7">
      <defs>
       <path id="m4251197073" d="M 0 0 
L -3.5 0 
" style="stroke: #000000; stroke-width: 0.8"/>
      </defs>
      <g>
       <use xlink:href="#m4251197073" x="90" y="370.22616" style="stroke: #000000; stroke-width: 0.8"/>
      </g>
     </g>
     <g id="text_8">
      <!-- 0.00000 -->
      <g transform="translate(41.646875 374.025378) scale(0.1 -0.1)">
       <defs>
        <path id="DejaVuSans-2e" d="M 684 794 
L 1344 794 
L 1344 0 
L 684 0 
L 684 794 
z
" transform="scale(0.015625)"/>
       </defs>
       <use xlink:href="#DejaVuSans-30"/>
       <use xlink:href="#DejaVuSans-2e" transform="translate(63.623047 0)"/>
       <use xlink:href="#DejaVuSans-30" transform="translate(95.410156 0)"/>
       <use xlink:href="#DejaVuSans-30" transform="translate(159.033203 0)"/>
       <use xlink:href="#DejaVuSans-30" transform="translate(222.65625 0)"/>
       <use xlink:href="#DejaVuSans-30" transform="translate(286.279297 0)"/>
       <use xlink:href="#DejaVuSans-30" transform="translate(349.902344 0)"/>
      </g>
     </g>
    </g>
    <g id="ytick_2">
     <g id="line2d_8">
      <g>
       <use xlink:href="#m4251197073" x="90" y="328.315205" style="stroke: #000000; stroke-width: 0.8"/>
      </g>
     </g>
     <g id="text_9">
      <!-- 0.00025 -->
      <g transform="translate(41.646875 332.114424) scale(0.1 -0.1)">
       <defs>
        <path id="DejaVuSans-35" d="M 691 4666 
L 3169 4666 
L 3169 4134 
L 1269 4134 
L 1269 2991 
Q 1406 3038 1543 3061 
Q 1681 3084 1819 3084 
Q 2600 3084 3056 2656 
Q 3513 2228 3513 1497 
Q 3513 744 3044 326 
Q 2575 -91 1722 -91 
Q 1428 -91 1123 -41 
Q 819 9 494 109 
L 494 744 
Q 775 591 1075 516 
Q 1375 441 1709 441 
Q 2250 441 2565 725 
Q 2881 1009 2881 1497 
Q 2881 1984 2565 2268 
Q 2250 2553 1709 2553 
Q 1456 2553 1204 2497 
Q 953 2441 691 2322 
L 691 4666 
z
" transform="scale(0.015625)"/>
       </defs>
       <use xlink:href="#DejaVuSans-30"/>
       <use xlink:href="#DejaVuSans-2e" transform="translate(63.623047 0)"/>
       <use xlink:href="#DejaVuSans-30" transform="translate(95.410156 0)"/>
       <use xlink:href="#DejaVuSans-30" transform="translate(159.033203 0)"/>
       <use xlink:href="#DejaVuSans-30" transform="translate(222.65625 0)"/>
       <use xlink:href="#DejaVuSans-32" transform="translate(286.279297 0)"/>
       <use xlink:href="#DejaVuSans-35" transform="translate(349.902344 0)"/>
      </g>
     </g>
    </g>
    <g id="ytick_3">
     <g id="line2d_9">
      <g>
       <use xlink:href="#m4251197073" x="90" y="286.40425" style="stroke: #000000; stroke-width: 0.8"/>
      </g>
     </g>
     <g id="text_10">
      <!-- 0.00050 -->
      <g transform="translate(41.646875 290.203469) scale(0.1 -0.1)">
       <use xlink:href="#DejaVuSans-30"/>
       <use xlink:href="#DejaVuSans-2e" transform="translate(63.623047 0)"/>
       <use xlink:href="#DejaVuSans-30" transform="translate(95.410156 0)"/>
       <use xlink:href="#DejaVuSans-30" transform="translate(159.033203 0)"/>
       <use xlink:href="#DejaVuSans-30" transform="translate(222.65625 0)"/>
       <use xlink:href="#DejaVuSans-35" transform="translate(286.279297 0)"/>
       <use xlink:href="#DejaVuSans-30" transform="translate(349.902344 0)"/>
      </g>
     </g>
    </g>
    <g id="ytick_4">
     <g id="line2d_10">
      <g>
       <use xlink:href="#m4251197073" x="90" y="244.493295" style="stroke: #000000; stroke-width: 0.8"/>
      </g>
     </g>
     <g id="text_11">
      <!-- 0.00075 -->
      <g transform="translate(41.646875 248.292514) scale(0.1 -0.1)">
       <defs>
        <path id="DejaVuSans-37" d="M 525 4666 
L 3525 4666 
L 3525 4397 
L 1831 0 
L 1172 0 
L 2766 4134 
L 525 4134 
L 525 4666 
z
" transform="scale(0.015625)"/>
       </defs>
       <use xlink:href="#DejaVuSans-30"/>
       <use xlink:href="#DejaVuSans-2e" transform="translate(63.623047 0)"/>
       <use xlink:href="#DejaVuSans-30" transform="translate(95.410156 0)"/>
       <use xlink:href="#DejaVuSans-30" transform="translate(159.033203 0)"/>
       <use xlink:href="#DejaVuSans-30" transform="translate(222.65625 0)"/>
       <use xlink:href="#DejaVuSans-37" transform="translate(286.279297 0)"/>
       <use xlink:href="#DejaVuSans-35" transform="translate(349.902344 0)"/>
      </g>
     </g>
    </g>
    <g id="ytick_5">
     <g id="line2d_11">
      <g>
       <use xlink:href="#m4251197073" x="90" y="202.58234" style="stroke: #000000; stroke-width: 0.8"/>
      </g>
     </g>
     <g id="text_12">
      <!-- 0.00100 -->
      <g transform="translate(41.646875 206.381559) scale(0.1 -0.1)">
       <use xlink:href="#DejaVuSans-30"/>
       <use xlink:href="#DejaVuSans-2e" transform="translate(63.623047 0)"/>
       <use xlink:href="#DejaVuSans-30" transform="translate(95.410156 0)"/>
       <use xlink:href="#DejaVuSans-30" transform="translate(159.033203 0)"/>
       <use xlink:href="#DejaVuSans-31" transform="translate(222.65625 0)"/>
       <use xlink:href="#DejaVuSans-30" transform="translate(286.279297 0)"/>
       <use xlink:href="#DejaVuSans-30" transform="translate(349.902344 0)"/>
      </g>
     </g>
    </g>
    <g id="ytick_6">
     <g id="line2d_12">
      <g>
       <use xlink:href="#m4251197073" x="90" y="160.671385" style="stroke: #000000; stroke-width: 0.8"/>
      </g>
     </g>
     <g id="text_13">
      <!-- 0.00125 -->
      <g transform="translate(41.646875 164.470604) scale(0.1 -0.1)">
       <use xlink:href="#DejaVuSans-30"/>
       <use xlink:href="#DejaVuSans-2e" transform="translate(63.623047 0)"/>
       <use xlink:href="#DejaVuSans-30" transform="translate(95.410156 0)"/>
       <use xlink:href="#DejaVuSans-30" transform="translate(159.033203 0)"/>
       <use xlink:href="#DejaVuSans-31" transform="translate(222.65625 0)"/>
       <use xlink:href="#DejaVuSans-32" transform="translate(286.279297 0)"/>
       <use xlink:href="#DejaVuSans-35" transform="translate(349.902344 0)"/>
      </g>
     </g>
    </g>
    <g id="ytick_7">
     <g id="line2d_13">
      <g>
       <use xlink:href="#m4251197073" x="90" y="118.760431" style="stroke: #000000; stroke-width: 0.8"/>
      </g>
     </g>
     <g id="text_14">
      <!-- 0.00150 -->
      <g transform="translate(41.646875 122.559649) scale(0.1 -0.1)">
       <use xlink:href="#DejaVuSans-30"/>
       <use xlink:href="#DejaVuSans-2e" transform="translate(63.623047 0)"/>
       <use xlink:href="#DejaVuSans-30" transform="translate(95.410156 0)"/>
       <use xlink:href="#DejaVuSans-30" transform="translate(159.033203 0)"/>
       <use xlink:href="#DejaVuSans-31" transform="translate(222.65625 0)"/>
       <use xlink:href="#DejaVuSans-35" transform="translate(286.279297 0)"/>
       <use xlink:href="#DejaVuSans-30" transform="translate(349.902344 0)"/>
      </g>
     </g>
    </g>
    <g id="ytick_8">
     <g id="line2d_14">
      <g>
       <use xlink:href="#m4251197073" x="90" y="76.849476" style="stroke: #000000; stroke-width: 0.8"/>
      </g>
     </g>
     <g id="text_15">
      <!-- 0.00175 -->
      <g transform="translate(41.646875 80.648694) scale(0.1 -0.1)">
       <use xlink:href="#DejaVuSans-30"/>
       <use xlink:href="#DejaVuSans-2e" transform="translate(63.623047 0)"/>
       <use xlink:href="#DejaVuSans-30" transform="translate(95.410156 0)"/>
       <use xlink:href="#DejaVuSans-30" transform="translate(159.033203 0)"/>
       <use xlink:href="#DejaVuSans-31" transform="translate(222.65625 0)"/>
       <use xlink:href="#DejaVuSans-37" transform="translate(286.279297 0)"/>
       <use xlink:href="#DejaVuSans-35" transform="translate(349.902344 0)"/>
      </g>
     </g>
    </g>
    <g id="text_16">
     <!-- time (s) -->
     <g transform="translate(35.567187 237.551406) rotate(-90) scale(0.1 -0.1)">
      <defs>
       <path id="DejaVuSans-74" d="M 1172 4494 
L 1172 3500 
L 2356 3500 
L 2356 3053 
L 1172 3053 
L 1172 1153 
Q 1172 725 1289 603 
Q 1406 481 1766 481 
L 2356 481 
L 2356 0 
L 1766 0 
Q 1100 0 847 248 
Q 594 497 594 1153 
L 594 3053 
L 172 3053 
L 172 3500 
L 594 3500 
L 594 4494 
L 1172 4494 
z
" transform="scale(0.015625)"/>
       <path id="DejaVuSans-69" d="M 603 3500 
L 1178 3500 
L 1178 0 
L 603 0 
L 603 3500 
z
M 603 4863 
L 1178 4863 
L 1178 4134 
L 603 4134 
L 603 4863 
z
" transform="scale(0.015625)"/>
       <path id="DejaVuSans-6d" d="M 3328 2828 
Q 3544 3216 3844 3400 
Q 4144 3584 4550 3584 
Q 5097 3584 5394 3201 
Q 5691 2819 5691 2113 
L 5691 0 
L 5113 0 
L 5113 2094 
Q 5113 2597 4934 2840 
Q 4756 3084 4391 3084 
Q 3944 3084 3684 2787 
Q 3425 2491 3425 1978 
L 3425 0 
L 2847 0 
L 2847 2094 
Q 2847 2600 2669 2842 
Q 2491 3084 2119 3084 
Q 1678 3084 1418 2786 
Q 1159 2488 1159 1978 
L 1159 0 
L 581 0 
L 581 3500 
L 1159 3500 
L 1159 2956 
Q 1356 3278 1631 3431 
Q 1906 3584 2284 3584 
Q 2666 3584 2933 3390 
Q 3200 3197 3328 2828 
z
" transform="scale(0.015625)"/>
       <path id="DejaVuSans-65" d="M 3597 1894 
L 3597 1613 
L 953 1613 
Q 991 1019 1311 708 
Q 1631 397 2203 397 
Q 2534 397 2845 478 
Q 3156 559 3463 722 
L 3463 178 
Q 3153 47 2828 -22 
Q 2503 -91 2169 -91 
Q 1331 -91 842 396 
Q 353 884 353 1716 
Q 353 2575 817 3079 
Q 1281 3584 2069 3584 
Q 2775 3584 3186 3129 
Q 3597 2675 3597 1894 
z
M 3022 2063 
Q 3016 2534 2758 2815 
Q 2500 3097 2075 3097 
Q 1594 3097 1305 2825 
Q 1016 2553 972 2059 
L 3022 2063 
z
" transform="scale(0.015625)"/>
       <path id="DejaVuSans-20" transform="scale(0.015625)"/>
       <path id="DejaVuSans-28" d="M 1984 4856 
Q 1566 4138 1362 3434 
Q 1159 2731 1159 2009 
Q 1159 1288 1364 580 
Q 1569 -128 1984 -844 
L 1484 -844 
Q 1016 -109 783 600 
Q 550 1309 550 2009 
Q 550 2706 781 3412 
Q 1013 4119 1484 4856 
L 1984 4856 
z
" transform="scale(0.015625)"/>
       <path id="DejaVuSans-73" d="M 2834 3397 
L 2834 2853 
Q 2591 2978 2328 3040 
Q 2066 3103 1784 3103 
Q 1356 3103 1142 2972 
Q 928 2841 928 2578 
Q 928 2378 1081 2264 
Q 1234 2150 1697 2047 
L 1894 2003 
Q 2506 1872 2764 1633 
Q 3022 1394 3022 966 
Q 3022 478 2636 193 
Q 2250 -91 1575 -91 
Q 1294 -91 989 -36 
Q 684 19 347 128 
L 347 722 
Q 666 556 975 473 
Q 1284 391 1588 391 
Q 1994 391 2212 530 
Q 2431 669 2431 922 
Q 2431 1156 2273 1281 
Q 2116 1406 1581 1522 
L 1381 1569 
Q 847 1681 609 1914 
Q 372 2147 372 2553 
Q 372 3047 722 3315 
Q 1072 3584 1716 3584 
Q 2034 3584 2315 3537 
Q 2597 3491 2834 3397 
z
" transform="scale(0.015625)"/>
       <path id="DejaVuSans-29" d="M 513 4856 
L 1013 4856 
Q 1481 4119 1714 3412 
Q 1947 2706 1947 2009 
Q 1947 1309 1714 600 
Q 1481 -109 1013 -844 
L 513 -844 
Q 928 -128 1133 580 
Q 1338 1288 1338 2009 
Q 1338 2731 1133 3434 
Q 928 4138 513 4856 
z
" transform="scale(0.015625)"/>
      </defs>
      <use xlink:href="#DejaVuSans-74"/>
      <use xlink:href="#DejaVuSans-69" transform="translate(39.208984 0)"/>
      <use xlink:href="#DejaVuSans-6d" transform="translate(66.992188 0)"/>
      <use xlink:href="#DejaVuSans-65" transform="translate(164.404297 0)"/>
      <use xlink:href="#DejaVuSans-20" transform="translate(225.927734 0)"/>
      <use xlink:href="#DejaVuSans-28" transform="translate(257.714844 0)"/>
      <use xlink:href="#DejaVuSans-73" transform="translate(296.728516 0)"/>
      <use xlink:href="#DejaVuSans-29" transform="translate(348.828125 0)"/>
     </g>
    </g>
   </g>
   <g id="line2d_15">
    <path d="M 115.363636 369.36 
L 120.487603 367.97236 
L 125.61157 366.387891 
L 130.735537 364.6756 
L 135.859504 362.868263 
L 140.983471 360.985182 
L 146.107438 359.039112 
L 151.231405 357.03912 
L 156.355372 354.991984 
L 161.479339 352.902965 
L 166.603306 350.776266 
L 171.727273 348.615323 
L 176.85124 346.422995 
L 181.975207 344.201704 
L 187.099174 341.95352 
L 192.22314 339.68024 
L 197.347107 337.383434 
L 202.471074 335.064487 
L 207.595041 332.724632 
L 212.719008 330.364969 
L 217.842975 327.986489 
L 222.966942 325.590091 
L 228.090909 323.176587 
L 233.214876 320.746724 
L 238.338843 318.301182 
L 243.46281 315.84059 
L 248.586777 313.365525 
L 253.710744 310.876526 
L 258.834711 308.374089 
L 263.958678 305.858678 
L 269.082645 303.330726 
L 274.206612 300.790638 
L 279.330579 298.238792 
L 284.454545 295.675545 
L 289.578512 293.101233 
L 294.702479 290.516172 
L 299.826446 287.92066 
L 304.950413 285.314981 
L 310.07438 282.699401 
L 315.198347 280.074175 
L 320.322314 277.439543 
L 325.446281 274.795736 
L 330.570248 272.142972 
L 335.694215 269.481459 
L 340.818182 266.811395 
L 345.942149 264.132972 
L 351.066116 261.44637 
L 356.190083 258.751765 
L 361.31405 256.049322 
L 366.438017 253.339201 
L 371.561983 250.621557 
L 376.68595 247.896536 
L 381.809917 245.164281 
L 386.933884 242.424928 
L 392.057851 239.678608 
L 397.181818 236.925449 
L 402.305785 234.165571 
L 407.429752 231.399095 
L 412.553719 228.626132 
L 417.677686 225.846793 
L 422.801653 223.061184 
L 427.92562 220.269409 
L 433.049587 217.471566 
L 438.173554 214.667751 
L 443.297521 211.858059 
L 448.421488 209.042579 
L 453.545455 206.2214 
L 458.669421 203.394606 
L 463.793388 200.56228 
L 468.917355 197.724502 
L 474.041322 194.88135 
L 479.165289 192.0329 
L 484.289256 189.179225 
L 489.413223 186.320396 
L 494.53719 183.456485 
L 499.661157 180.587557 
L 504.785124 177.71368 
L 509.909091 174.834917 
L 515.033058 171.951332 
L 520.157025 169.062985 
L 525.280992 166.169936 
L 530.404959 163.272242 
L 535.528926 160.369961 
L 540.652893 157.463147 
L 545.77686 154.551856 
L 550.900826 151.636139 
L 556.024793 148.716047 
L 561.14876 145.791632 
L 566.272727 142.862942 
L 571.396694 139.930025 
L 576.520661 136.992929 
L 581.644628 134.051698 
L 586.768595 131.106379 
L 591.892562 128.157015 
L 597.016529 125.203649 
L 602.140496 122.246324 
L 607.264463 119.285079 
L 612.38843 116.319957 
L 617.512397 113.350996 
L 622.636364 110.378236 
" clip-path="url(#p2d1e0a8c01)" style="fill: none; stroke-dasharray: 5.55,2.4; stroke-dashoffset: 0; stroke: #ff0000; stroke-width: 1.5"/>
   </g>
   <g id="line2d_16">
    <path d="M 115.363636 368.410913 
L 120.487603 367.088371 
L 125.61157 364.863233 
L 130.735537 363.176402 
L 135.859504 360.960483 
L 140.983471 359.437107 
L 146.107438 357.724959 
L 151.231405 355.673503 
L 156.355372 353.481561 
L 161.479339 350.731865 
L 166.603306 349.248217 
L 171.727273 346.805818 
L 176.85124 344.184199 
L 181.975207 340.812885 
L 187.099174 339.534433 
L 192.22314 337.151542 
L 197.347107 335.33596 
L 202.471074 330.637576 
L 207.595041 328.094583 
L 212.719008 325.004913 
L 217.842975 324.490748 
L 222.966942 321.266452 
L 228.090909 318.560681 
L 233.214876 314.026755 
L 238.338843 307.336758 
L 243.46281 308.251931 
L 248.586777 305.400136 
L 253.710744 308.145976 
L 258.834711 303.35421 
L 263.958678 302.759748 
L 269.082645 298.233871 
L 274.206612 294.800186 
L 279.330579 292.927438 
L 284.454545 288.119584 
L 289.578512 283.68272 
L 294.702479 285.481035 
L 299.826446 283.322953 
L 304.950413 280.091958 
L 310.07438 279.801433 
L 315.198347 277.144274 
L 320.322314 273.561562 
L 325.446281 270.294184 
L 330.570248 267.134431 
L 335.694215 266.66218 
L 340.818182 262.110316 
L 345.942149 260.310991 
L 351.066116 256.837414 
L 356.190083 252.109856 
L 361.31405 250.091929 
L 366.438017 247.431591 
L 371.561983 244.285248 
L 376.68595 241.299346 
L 381.809917 237.267678 
L 386.933884 239.378314 
L 392.057851 233.786052 
L 397.181818 233.121679 
L 402.305785 229.559416 
L 407.429752 224.31887 
L 412.553719 225.874607 
L 417.677686 219.871447 
L 422.801653 217.978244 
L 427.92562 215.724445 
L 433.049587 213.920256 
L 438.173554 208.500169 
L 443.297521 205.988863 
L 448.421488 205.244694 
L 453.545455 203.539921 
L 458.669421 199.219404 
L 463.793388 196.012547 
L 468.917355 192.935444 
L 474.041322 184.034394 
L 479.165289 185.436066 
L 484.289256 176.545077 
L 489.413223 159.141638 
L 494.53719 152.694892 
L 499.661157 154.588765 
L 504.785124 152.162122 
L 509.909091 141.876 
L 515.033058 139.942229 
L 520.157025 129.887956 
L 525.280992 129.138255 
L 530.404959 126.612365 
L 535.528926 129.324168 
L 540.652893 135.674182 
L 545.77686 131.694652 
L 550.900826 114.196999 
L 556.024793 109.299452 
L 561.14876 99.873006 
L 566.272727 104.827215 
L 571.396694 102.417672 
L 576.520661 94.864144 
L 581.644628 86.463176 
L 586.768595 88.774483 
L 591.892562 91.296853 
L 597.016529 86.142307 
L 602.140496 76.999012 
L 607.264463 67.625713 
L 612.38843 71.130476 
L 617.512397 82.646931 
L 622.636364 66.96 
" clip-path="url(#p2d1e0a8c01)" style="fill: none; stroke: #0000ff; stroke-width: 1.5; stroke-linecap: square"/>
    <defs>
     <path id="m5598002e28" d="M 0 1.5 
C 0.397805 1.5 0.77937 1.341951 1.06066 1.06066 
C 1.341951 0.77937 1.5 0.397805 1.5 0 
C 1.5 -0.397805 1.341951 -0.77937 1.06066 -1.06066 
C 0.77937 -1.341951 0.397805 -1.5 0 -1.5 
C -0.397805 -1.5 -0.77937 -1.341951 -1.06066 -1.06066 
C -1.341951 -0.77937 -1.5 -0.397805 -1.5 0 
C -1.5 0.397805 -1.341951 0.77937 -1.06066 1.06066 
C -0.77937 1.341951 -0.397805 1.5 0 1.5 
z
" style="stroke: #0000ff"/>
    </defs>
    <g clip-path="url(#p2d1e0a8c01)">
     <use xlink:href="#m5598002e28" x="115.363636" y="368.410913" style="fill: #0000ff; stroke: #0000ff"/>
     <use xlink:href="#m5598002e28" x="120.487603" y="367.088371" style="fill: #0000ff; stroke: #0000ff"/>
     <use xlink:href="#m5598002e28" x="125.61157" y="364.863233" style="fill: #0000ff; stroke: #0000ff"/>
     <use xlink:href="#m5598002e28" x="130.735537" y="363.176402" style="fill: #0000ff; stroke: #0000ff"/>
     <use xlink:href="#m5598002e28" x="135.859504" y="360.960483" style="fill: #0000ff; stroke: #0000ff"/>
     <use xlink:href="#m5598002e28" x="140.983471" y="359.437107" style="fill: #0000ff; stroke: #0000ff"/>
     <use xlink:href="#m5598002e28" x="146.107438" y="357.724959" style="fill: #0000ff; stroke: #0000ff"/>
     <use xlink:href="#m5598002e28" x="151.231405" y="355.673503" style="fill: #0000ff; stroke: #0000ff"/>
     <use xlink:href="#m5598002e28" x="156.355372" y="353.481561" style="fill: #0000ff; stroke: #0000ff"/>
     <use xlink:href="#m5598002e28" x="161.479339" y="350.731865" style="fill: #0000ff; stroke: #0000ff"/>
     <use xlink:href="#m5598002e28" x="166.603306" y="349.248217" style="fill: #0000ff; stroke: #0000ff"/>
     <use xlink:href="#m5598002e28" x="171.727273" y="346.805818" style="fill: #0000ff; stroke: #0000ff"/>
     <use xlink:href="#m5598002e28" x="176.85124" y="344.184199" style="fill: #0000ff; stroke: #0000ff"/>
     <use xlink:href="#m5598002e28" x="181.975207" y="340.812885" style="fill: #0000ff; stroke: #0000ff"/>
     <use xlink:href="#m5598002e28" x="187.099174" y="339.534433" style="fill: #0000ff; stroke: #0000ff"/>
     <use xlink:href="#m5598002e28" x="192.22314" y="337.151542" style="fill: #0000ff; stroke: #0000ff"/>
     <use xlink:href="#m5598002e28" x="197.347107" y="335.33596" style="fill: #0000ff; stroke: #0000ff"/>
     <use xlink:href="#m5598002e28" x="202.471074" y="330.637576" style="fill: #0000ff; stroke: #0000ff"/>
     <use xlink:href="#m5598002e28" x="207.595041" y="328.094583" style="fill: #0000ff; stroke: #0000ff"/>
     <use xlink:href="#m5598002e28" x="212.719008" y="325.004913" style="fill: #0000ff; stroke: #0000ff"/>
     <use xlink:href="#m5598002e28" x="217.842975" y="324.490748" style="fill: #0000ff; stroke: #0000ff"/>
     <use xlink:href="#m5598002e28" x="222.966942" y="321.266452" style="fill: #0000ff; stroke: #0000ff"/>
     <use xlink:href="#m5598002e28" x="228.090909" y="318.560681" style="fill: #0000ff; stroke: #0000ff"/>
     <use xlink:href="#m5598002e28" x="233.214876" y="314.026755" style="fill: #0000ff; stroke: #0000ff"/>
     <use xlink:href="#m5598002e28" x="238.338843" y="307.336758" style="fill: #0000ff; stroke: #0000ff"/>
     <use xlink:href="#m5598002e28" x="243.46281" y="308.251931" style="fill: #0000ff; stroke: #0000ff"/>
     <use xlink:href="#m5598002e28" x="248.586777" y="305.400136" style="fill: #0000ff; stroke: #0000ff"/>
     <use xlink:href="#m5598002e28" x="253.710744" y="308.145976" style="fill: #0000ff; stroke: #0000ff"/>
     <use xlink:href="#m5598002e28" x="258.834711" y="303.35421" style="fill: #0000ff; stroke: #0000ff"/>
     <use xlink:href="#m5598002e28" x="263.958678" y="302.759748" style="fill: #0000ff; stroke: #0000ff"/>
     <use xlink:href="#m5598002e28" x="269.082645" y="298.233871" style="fill: #0000ff; stroke: #0000ff"/>
     <use xlink:href="#m5598002e28" x="274.206612" y="294.800186" style="fill: #0000ff; stroke: #0000ff"/>
     <use xlink:href="#m5598002e28" x="279.330579" y="292.927438" style="fill: #0000ff; stroke: #0000ff"/>
     <use xlink:href="#m5598002e28" x="284.454545" y="288.119584" style="fill: #0000ff; stroke: #0000ff"/>
     <use xlink:href="#m5598002e28" x="289.578512" y="283.68272" style="fill: #0000ff; stroke: #0000ff"/>
     <use xlink:href="#m5598002e28" x="294.702479" y="285.481035" style="fill: #0000ff; stroke: #0000ff"/>
     <use xlink:href="#m5598002e28" x="299.826446" y="283.322953" style="fill: #0000ff; stroke: #0000ff"/>
     <use xlink:href="#m5598002e28" x="304.950413" y="280.091958" style="fill: #0000ff; stroke: #0000ff"/>
     <use xlink:href="#m5598002e28" x="310.07438" y="279.801433" style="fill: #0000ff; stroke: #0000ff"/>
     <use xlink:href="#m5598002e28" x="315.198347" y="277.144274" style="fill: #0000ff; stroke: #0000ff"/>
     <use xlink:href="#m5598002e28" x="320.322314" y="273.561562" style="fill: #0000ff; stroke: #0000ff"/>
     <use xlink:href="#m5598002e28" x="325.446281" y="270.294184" style="fill: #0000ff; stroke: #0000ff"/>
     <use xlink:href="#m5598002e28" x="330.570248" y="267.134431" style="fill: #0000ff; stroke: #0000ff"/>
     <use xlink:href="#m5598002e28" x="335.694215" y="266.66218" style="fill: #0000ff; stroke: #0000ff"/>
     <use xlink:href="#m5598002e28" x="340.818182" y="262.110316" style="fill: #0000ff; stroke: #0000ff"/>
     <use xlink:href="#m5598002e28" x="345.942149" y="260.310991" style="fill: #0000ff; stroke: #0000ff"/>
     <use xlink:href="#m5598002e28" x="351.066116" y="256.837414" style="fill: #0000ff; stroke: #0000ff"/>
     <use xlink:href="#m5598002e28" x="356.190083" y="252.109856" style="fill: #0000ff; stroke: #0000ff"/>
     <use xlink:href="#m5598002e28" x="361.31405" y="250.091929" style="fill: #0000ff; stroke: #0000ff"/>
     <use xlink:href="#m5598002e28" x="366.438017" y="247.431591" style="fill: #0000ff; stroke: #0000ff"/>
     <use xlink:href="#m5598002e28" x="371.561983" y="244.285248" style="fill: #0000ff; stroke: #0000ff"/>
     <use xlink:href="#m5598002e28" x="376.68595" y="241.299346" style="fill: #0000ff; stroke: #0000ff"/>
     <use xlink:href="#m5598002e28" x="381.809917" y="237.267678" style="fill: #0000ff; stroke: #0000ff"/>
     <use xlink:href="#m5598002e28" x="386.933884" y="239.378314" style="fill: #0000ff; stroke: #0000ff"/>
     <use xlink:href="#m5598002e28" x="392.057851" y="233.786052" style="fill: #0000ff; stroke: #0000ff"/>
     <use xlink:href="#m5598002e28" x="397.181818" y="233.121679" style="fill: #0000ff; stroke: #0000ff"/>
     <use xlink:href="#m5598002e28" x="402.305785" y="229.559416" style="fill: #0000ff; stroke: #0000ff"/>
     <use xlink:href="#m5598002e28" x="407.429752" y="224.31887" style="fill: #0000ff; stroke: #0000ff"/>
     <use xlink:href="#m5598002e28" x="412.553719" y="225.874607" style="fill: #0000ff; stroke: #0000ff"/>
     <use xlink:href="#m5598002e28" x="417.677686" y="219.871447" style="fill: #0000ff; stroke: #0000ff"/>
     <use xlink:href="#m5598002e28" x="422.801653" y="217.978244" style="fill: #0000ff; stroke: #0000ff"/>
     <use xlink:href="#m5598002e28" x="427.92562" y="215.724445" style="fill: #0000ff; stroke: #0000ff"/>
     <use xlink:href="#m5598002e28" x="433.049587" y="213.920256" style="fill: #0000ff; stroke: #0000ff"/>
     <use xlink:href="#m5598002e28" x="438.173554" y="208.500169" style="fill: #0000ff; stroke: #0000ff"/>
     <use xlink:href="#m5598002e28" x="443.297521" y="205.988863" style="fill: #0000ff; stroke: #0000ff"/>
     <use xlink:href="#m5598002e28" x="448.421488" y="205.244694" style="fill: #0000ff; stroke: #0000ff"/>
     <use xlink:href="#m5598002e28" x="453.545455" y="203.539921" style="fill: #0000ff; stroke: #0000ff"/>
     <use xlink:href="#m5598002e28" x="458.669421" y="199.219404" style="fill: #0000ff; stroke: #0000ff"/>
     <use xlink:href="#m5598002e28" x="463.793388" y="196.012547" style="fill: #0000ff; stroke: #0000ff"/>
     <use xlink:href="#m5598002e28" x="468.917355" y="192.935444" style="fill: #0000ff; stroke: #0000ff"/>
     <use xlink:href="#m5598002e28" x="474.041322" y="184.034394" style="fill: #0000ff; stroke: #0000ff"/>
     <use xlink:href="#m5598002e28" x="479.165289" y="185.436066" style="fill: #0000ff; stroke: #0000ff"/>
     <use xlink:href="#m5598002e28" x="484.289256" y="176.545077" style="fill: #0000ff; stroke: #0000ff"/>
     <use xlink:href="#m5598002e28" x="489.413223" y="159.141638" style="fill: #0000ff; stroke: #0000ff"/>
     <use xlink:href="#m5598002e28" x="494.53719" y="152.694892" style="fill: #0000ff; stroke: #0000ff"/>
     <use xlink:href="#m5598002e28" x="499.661157" y="154.588765" style="fill: #0000ff; stroke: #0000ff"/>
     <use xlink:href="#m5598002e28" x="504.785124" y="152.162122" style="fill: #0000ff; stroke: #0000ff"/>
     <use xlink:href="#m5598002e28" x="509.909091" y="141.876" style="fill: #0000ff; stroke: #0000ff"/>
     <use xlink:href="#m5598002e28" x="515.033058" y="139.942229" style="fill: #0000ff; stroke: #0000ff"/>
     <use xlink:href="#m5598002e28" x="520.157025" y="129.887956" style="fill: #0000ff; stroke: #0000ff"/>
     <use xlink:href="#m5598002e28" x="525.280992" y="129.138255" style="fill: #0000ff; stroke: #0000ff"/>
     <use xlink:href="#m5598002e28" x="530.404959" y="126.612365" style="fill: #0000ff; stroke: #0000ff"/>
     <use xlink:href="#m5598002e28" x="535.528926" y="129.324168" style="fill: #0000ff; stroke: #0000ff"/>
     <use xlink:href="#m5598002e28" x="540.652893" y="135.674182" style="fill: #0000ff; stroke: #0000ff"/>
     <use xlink:href="#m5598002e28" x="545.77686" y="131.694652" style="fill: #0000ff; stroke: #0000ff"/>
     <use xlink:href="#m5598002e28" x="550.900826" y="114.196999" style="fill: #0000ff; stroke: #0000ff"/>
     <use xlink:href="#m5598002e28" x="556.024793" y="109.299452" style="fill: #0000ff; stroke: #0000ff"/>
     <use xlink:href="#m5598002e28" x="561.14876" y="99.873006" style="fill: #0000ff; stroke: #0000ff"/>
     <use xlink:href="#m5598002e28" x="566.272727" y="104.827215" style="fill: #0000ff; stroke: #0000ff"/>
     <use xlink:href="#m5598002e28" x="571.396694" y="102.417672" style="fill: #0000ff; stroke: #0000ff"/>
     <use xlink:href="#m5598002e28" x="576.520661" y="94.864144" style="fill: #0000ff; stroke: #0000ff"/>
     <use xlink:href="#m5598002e28" x="581.644628" y="86.463176" style="fill: #0000ff; stroke: #0000ff"/>
     <use xlink:href="#m5598002e28" x="586.768595" y="88.774483" style="fill: #0000ff; stroke: #0000ff"/>
     <use xlink:href="#m5598002e28" x="591.892562" y="91.296853" style="fill: #0000ff; stroke: #0000ff"/>
     <use xlink:href="#m5598002e28" x="597.016529" y="86.142307" style="fill: #0000ff; stroke: #0000ff"/>
     <use xlink:href="#m5598002e28" x="602.140496" y="76.999012" style="fill: #0000ff; stroke: #0000ff"/>
     <use xlink:href="#m5598002e28" x="607.264463" y="67.625713" style="fill: #0000ff; stroke: #0000ff"/>
     <use xlink:href="#m5598002e28" x="612.38843" y="71.130476" style="fill: #0000ff; stroke: #0000ff"/>
     <use xlink:href="#m5598002e28" x="617.512397" y="82.646931" style="fill: #0000ff; stroke: #0000ff"/>
     <use xlink:href="#m5598002e28" x="622.636364" y="66.96" style="fill: #0000ff; stroke: #0000ff"/>
    </g>
   </g>
   <g id="line2d_17">
    <path d="M 115.363636 368.299261 
L 120.487603 366.883512 
L 125.61157 364.691569 
L 130.735537 362.593336 
L 135.859504 360.375409 
L 140.983471 357.918924 
L 146.107438 357.104008 
L 151.231405 352.646527 
L 156.355372 350.805965 
L 161.479339 348.506727 
L 166.603306 347.577981 
L 171.727273 343.755201 
L 176.85124 342.307932 
L 181.975207 339.96209 
L 187.099174 336.28164 
L 192.22314 336.922711 
L 197.347107 328.623504 
L 202.471074 333.20068 
L 207.595041 324.166524 
L 212.719008 321.987653 
L 217.842975 318.283568 
L 222.966942 318.067138 
L 228.090909 320.979447 
L 233.214876 318.177448 
L 238.338843 313.023741 
L 243.46281 306.839863 
L 248.586777 303.618755 
L 253.710744 306.545651 
L 258.834711 298.796147 
L 263.958678 290.020664 
L 269.082645 293.083852 
L 274.206612 291.932305 
L 279.330579 286.87868 
L 284.454545 292.461388 
L 289.578512 289.70851 
L 294.702479 286.793185 
L 299.826446 284.486072 
L 304.950413 282.375431 
L 310.07438 278.196576 
L 315.198347 273.986872 
L 320.322314 274.700363 
L 325.446281 273.001127 
L 330.570248 270.571465 
L 335.694215 267.084641 
L 340.818182 264.1663 
L 345.942149 261.135968 
L 351.066116 256.036915 
L 356.190083 256.783765 
L 361.31405 254.608754 
L 366.438017 251.169879 
L 371.561983 252.032741 
L 376.68595 238.743282 
L 381.809917 237.082099 
L 386.933884 241.498672 
L 392.057851 233.017405 
L 397.181818 230.774497 
L 402.305785 223.813089 
L 407.429752 228.037043 
L 412.553719 221.985104 
L 417.677686 219.477821 
L 422.801653 215.557301 
L 427.92562 210.424382 
L 433.049587 210.613483 
L 438.173554 200.796766 
L 443.297521 202.001623 
L 448.421488 206.551978 
L 453.545455 199.517475 
L 458.669421 196.599133 
L 463.793388 197.345817 
L 468.917355 195.700222 
L 474.041322 191.65934 
L 479.165289 186.502615 
L 484.289256 181.354944 
L 489.413223 180.020835 
L 494.53719 179.389154 
L 499.661157 170.961532 
L 504.785124 170.166394 
L 509.909091 172.770075 
L 515.033058 166.170942 
L 520.157025 163.689308 
L 525.280992 155.331091 
L 530.404959 160.654451 
L 535.528926 140.836945 
L 540.652893 144.072303 
L 545.77686 146.497774 
L 550.900826 141.995527 
L 556.024793 136.564708 
L 561.14876 138.781795 
L 566.272727 136.971075 
L 571.396694 134.619201 
L 576.520661 131.545115 
L 581.644628 111.037918 
L 586.768595 106.713045 
L 591.892562 106.51271 
L 597.016529 102.203422 
L 602.140496 104.360333 
L 607.264463 89.151012 
L 612.38843 97.700344 
L 617.512397 94.649389 
L 622.636364 76.063729 
" clip-path="url(#p2d1e0a8c01)" style="fill: none; stroke: #008000; stroke-width: 1.5; stroke-linecap: square"/>
    <defs>
     <path id="maded601375" d="M 0 1.5 
C 0.397805 1.5 0.77937 1.341951 1.06066 1.06066 
C 1.341951 0.77937 1.5 0.397805 1.5 0 
C 1.5 -0.397805 1.341951 -0.77937 1.06066 -1.06066 
C 0.77937 -1.341951 0.397805 -1.5 0 -1.5 
C -0.397805 -1.5 -0.77937 -1.341951 -1.06066 -1.06066 
C -1.341951 -0.77937 -1.5 -0.397805 -1.5 0 
C -1.5 0.397805 -1.341951 0.77937 -1.06066 1.06066 
C -0.77937 1.341951 -0.397805 1.5 0 1.5 
z
" style="stroke: #008000"/>
    </defs>
    <g clip-path="url(#p2d1e0a8c01)">
     <use xlink:href="#maded601375" x="115.363636" y="368.299261" style="fill: #008000; stroke: #008000"/>
     <use xlink:href="#maded601375" x="120.487603" y="366.883512" style="fill: #008000; stroke: #008000"/>
     <use xlink:href="#maded601375" x="125.61157" y="364.691569" style="fill: #008000; stroke: #008000"/>
     <use xlink:href="#maded601375" x="130.735537" y="362.593336" style="fill: #008000; stroke: #008000"/>
     <use xlink:href="#maded601375" x="135.859504" y="360.375409" style="fill: #008000; stroke: #008000"/>
     <use xlink:href="#maded601375" x="140.983471" y="357.918924" style="fill: #008000; stroke: #008000"/>
     <use xlink:href="#maded601375" x="146.107438" y="357.104008" style="fill: #008000; stroke: #008000"/>
     <use xlink:href="#maded601375" x="151.231405" y="352.646527" style="fill: #008000; stroke: #008000"/>
     <use xlink:href="#maded601375" x="156.355372" y="350.805965" style="fill: #008000; stroke: #008000"/>
     <use xlink:href="#maded601375" x="161.479339" y="348.506727" style="fill: #008000; stroke: #008000"/>
     <use xlink:href="#maded601375" x="166.603306" y="347.577981" style="fill: #008000; stroke: #008000"/>
     <use xlink:href="#maded601375" x="171.727273" y="343.755201" style="fill: #008000; stroke: #008000"/>
     <use xlink:href="#maded601375" x="176.85124" y="342.307932" style="fill: #008000; stroke: #008000"/>
     <use xlink:href="#maded601375" x="181.975207" y="339.96209" style="fill: #008000; stroke: #008000"/>
     <use xlink:href="#maded601375" x="187.099174" y="336.28164" style="fill: #008000; stroke: #008000"/>
     <use xlink:href="#maded601375" x="192.22314" y="336.922711" style="fill: #008000; stroke: #008000"/>
     <use xlink:href="#maded601375" x="197.347107" y="328.623504" style="fill: #008000; stroke: #008000"/>
     <use xlink:href="#maded601375" x="202.471074" y="333.20068" style="fill: #008000; stroke: #008000"/>
     <use xlink:href="#maded601375" x="207.595041" y="324.166524" style="fill: #008000; stroke: #008000"/>
     <use xlink:href="#maded601375" x="212.719008" y="321.987653" style="fill: #008000; stroke: #008000"/>
     <use xlink:href="#maded601375" x="217.842975" y="318.283568" style="fill: #008000; stroke: #008000"/>
     <use xlink:href="#maded601375" x="222.966942" y="318.067138" style="fill: #008000; stroke: #008000"/>
     <use xlink:href="#maded601375" x="228.090909" y="320.979447" style="fill: #008000; stroke: #008000"/>
     <use xlink:href="#maded601375" x="233.214876" y="318.177448" style="fill: #008000; stroke: #008000"/>
     <use xlink:href="#maded601375" x="238.338843" y="313.023741" style="fill: #008000; stroke: #008000"/>
     <use xlink:href="#maded601375" x="243.46281" y="306.839863" style="fill: #008000; stroke: #008000"/>
     <use xlink:href="#maded601375" x="248.586777" y="303.618755" style="fill: #008000; stroke: #008000"/>
     <use xlink:href="#maded601375" x="253.710744" y="306.545651" style="fill: #008000; stroke: #008000"/>
     <use xlink:href="#maded601375" x="258.834711" y="298.796147" style="fill: #008000; stroke: #008000"/>
     <use xlink:href="#maded601375" x="263.958678" y="290.020664" style="fill: #008000; stroke: #008000"/>
     <use xlink:href="#maded601375" x="269.082645" y="293.083852" style="fill: #008000; stroke: #008000"/>
     <use xlink:href="#maded601375" x="274.206612" y="291.932305" style="fill: #008000; stroke: #008000"/>
     <use xlink:href="#maded601375" x="279.330579" y="286.87868" style="fill: #008000; stroke: #008000"/>
     <use xlink:href="#maded601375" x="284.454545" y="292.461388" style="fill: #008000; stroke: #008000"/>
     <use xlink:href="#maded601375" x="289.578512" y="289.70851" style="fill: #008000; stroke: #008000"/>
     <use xlink:href="#maded601375" x="294.702479" y="286.793185" style="fill: #008000; stroke: #008000"/>
     <use xlink:href="#maded601375" x="299.826446" y="284.486072" style="fill: #008000; stroke: #008000"/>
     <use xlink:href="#maded601375" x="304.950413" y="282.375431" style="fill: #008000; stroke: #008000"/>
     <use xlink:href="#maded601375" x="310.07438" y="278.196576" style="fill: #008000; stroke: #008000"/>
     <use xlink:href="#maded601375" x="315.198347" y="273.986872" style="fill: #008000; stroke: #008000"/>
     <use xlink:href="#maded601375" x="320.322314" y="274.700363" style="fill: #008000; stroke: #008000"/>
     <use xlink:href="#maded601375" x="325.446281" y="273.001127" style="fill: #008000; stroke: #008000"/>
     <use xlink:href="#maded601375" x="330.570248" y="270.571465" style="fill: #008000; stroke: #008000"/>
     <use xlink:href="#maded601375" x="335.694215" y="267.084641" style="fill: #008000; stroke: #008000"/>
     <use xlink:href="#maded601375" x="340.818182" y="264.1663" style="fill: #008000; stroke: #008000"/>
     <use xlink:href="#maded601375" x="345.942149" y="261.135968" style="fill: #008000; stroke: #008000"/>
     <use xlink:href="#maded601375" x="351.066116" y="256.036915" style="fill: #008000; stroke: #008000"/>
     <use xlink:href="#maded601375" x="356.190083" y="256.783765" style="fill: #008000; stroke: #008000"/>
     <use xlink:href="#maded601375" x="361.31405" y="254.608754" style="fill: #008000; stroke: #008000"/>
     <use xlink:href="#maded601375" x="366.438017" y="251.169879" style="fill: #008000; stroke: #008000"/>
     <use xlink:href="#maded601375" x="371.561983" y="252.032741" style="fill: #008000; stroke: #008000"/>
     <use xlink:href="#maded601375" x="376.68595" y="238.743282" style="fill: #008000; stroke: #008000"/>
     <use xlink:href="#maded601375" x="381.809917" y="237.082099" style="fill: #008000; stroke: #008000"/>
     <use xlink:href="#maded601375" x="386.933884" y="241.498672" style="fill: #008000; stroke: #008000"/>
     <use xlink:href="#maded601375" x="392.057851" y="233.017405" style="fill: #008000; stroke: #008000"/>
     <use xlink:href="#maded601375" x="397.181818" y="230.774497" style="fill: #008000; stroke: #008000"/>
     <use xlink:href="#maded601375" x="402.305785" y="223.813089" style="fill: #008000; stroke: #008000"/>
     <use xlink:href="#maded601375" x="407.429752" y="228.037043" style="fill: #008000; stroke: #008000"/>
     <use xlink:href="#maded601375" x="412.553719" y="221.985104" style="fill: #008000; stroke: #008000"/>
     <use xlink:href="#maded601375" x="417.677686" y="219.477821" style="fill: #008000; stroke: #008000"/>
     <use xlink:href="#maded601375" x="422.801653" y="215.557301" style="fill: #008000; stroke: #008000"/>
     <use xlink:href="#maded601375" x="427.92562" y="210.424382" style="fill: #008000; stroke: #008000"/>
     <use xlink:href="#maded601375" x="433.049587" y="210.613483" style="fill: #008000; stroke: #008000"/>
     <use xlink:href="#maded601375" x="438.173554" y="200.796766" style="fill: #008000; stroke: #008000"/>
     <use xlink:href="#maded601375" x="443.297521" y="202.001623" style="fill: #008000; stroke: #008000"/>
     <use xlink:href="#maded601375" x="448.421488" y="206.551978" style="fill: #008000; stroke: #008000"/>
     <use xlink:href="#maded601375" x="453.545455" y="199.517475" style="fill: #008000; stroke: #008000"/>
     <use xlink:href="#maded601375" x="458.669421" y="196.599133" style="fill: #008000; stroke: #008000"/>
     <use xlink:href="#maded601375" x="463.793388" y="197.345817" style="fill: #008000; stroke: #008000"/>
     <use xlink:href="#maded601375" x="468.917355" y="195.700222" style="fill: #008000; stroke: #008000"/>
     <use xlink:href="#maded601375" x="474.041322" y="191.65934" style="fill: #008000; stroke: #008000"/>
     <use xlink:href="#maded601375" x="479.165289" y="186.502615" style="fill: #008000; stroke: #008000"/>
     <use xlink:href="#maded601375" x="484.289256" y="181.354944" style="fill: #008000; stroke: #008000"/>
     <use xlink:href="#maded601375" x="489.413223" y="180.020835" style="fill: #008000; stroke: #008000"/>
     <use xlink:href="#maded601375" x="494.53719" y="179.389154" style="fill: #008000; stroke: #008000"/>
     <use xlink:href="#maded601375" x="499.661157" y="170.961532" style="fill: #008000; stroke: #008000"/>
     <use xlink:href="#maded601375" x="504.785124" y="170.166394" style="fill: #008000; stroke: #008000"/>
     <use xlink:href="#maded601375" x="509.909091" y="172.770075" style="fill: #008000; stroke: #008000"/>
     <use xlink:href="#maded601375" x="515.033058" y="166.170942" style="fill: #008000; stroke: #008000"/>
     <use xlink:href="#maded601375" x="520.157025" y="163.689308" style="fill: #008000; stroke: #008000"/>
     <use xlink:href="#maded601375" x="525.280992" y="155.331091" style="fill: #008000; stroke: #008000"/>
     <use xlink:href="#maded601375" x="530.404959" y="160.654451" style="fill: #008000; stroke: #008000"/>
     <use xlink:href="#maded601375" x="535.528926" y="140.836945" style="fill: #008000; stroke: #008000"/>
     <use xlink:href="#maded601375" x="540.652893" y="144.072303" style="fill: #008000; stroke: #008000"/>
     <use xlink:href="#maded601375" x="545.77686" y="146.497774" style="fill: #008000; stroke: #008000"/>
     <use xlink:href="#maded601375" x="550.900826" y="141.995527" style="fill: #008000; stroke: #008000"/>
     <use xlink:href="#maded601375" x="556.024793" y="136.564708" style="fill: #008000; stroke: #008000"/>
     <use xlink:href="#maded601375" x="561.14876" y="138.781795" style="fill: #008000; stroke: #008000"/>
     <use xlink:href="#maded601375" x="566.272727" y="136.971075" style="fill: #008000; stroke: #008000"/>
     <use xlink:href="#maded601375" x="571.396694" y="134.619201" style="fill: #008000; stroke: #008000"/>
     <use xlink:href="#maded601375" x="576.520661" y="131.545115" style="fill: #008000; stroke: #008000"/>
     <use xlink:href="#maded601375" x="581.644628" y="111.037918" style="fill: #008000; stroke: #008000"/>
     <use xlink:href="#maded601375" x="586.768595" y="106.713045" style="fill: #008000; stroke: #008000"/>
     <use xlink:href="#maded601375" x="591.892562" y="106.51271" style="fill: #008000; stroke: #008000"/>
     <use xlink:href="#maded601375" x="597.016529" y="102.203422" style="fill: #008000; stroke: #008000"/>
     <use xlink:href="#maded601375" x="602.140496" y="104.360333" style="fill: #008000; stroke: #008000"/>
     <use xlink:href="#maded601375" x="607.264463" y="89.151012" style="fill: #008000; stroke: #008000"/>
     <use xlink:href="#maded601375" x="612.38843" y="97.700344" style="fill: #008000; stroke: #008000"/>
     <use xlink:href="#maded601375" x="617.512397" y="94.649389" style="fill: #008000; stroke: #008000"/>
     <use xlink:href="#maded601375" x="622.636364" y="76.063729" style="fill: #008000; stroke: #008000"/>
    </g>
   </g>
   <g id="patch_3">
    <path d="M 90 384.48 
L 90 51.84 
" style="fill: none; stroke: #000000; stroke-width: 0.8; stroke-linejoin: miter; stroke-linecap: square"/>
   </g>
   <g id="patch_4">
    <path d="M 648 384.48 
L 648 51.84 
" style="fill: none; stroke: #000000; stroke-width: 0.8; stroke-linejoin: miter; stroke-linecap: square"/>
   </g>
   <g id="patch_5">
    <path d="M 90 384.48 
L 648 384.48 
" style="fill: none; stroke: #000000; stroke-width: 0.8; stroke-linejoin: miter; stroke-linecap: square"/>
   </g>
   <g id="patch_6">
    <path d="M 90 51.84 
L 648 51.84 
" style="fill: none; stroke: #000000; stroke-width: 0.8; stroke-linejoin: miter; stroke-linecap: square"/>
   </g>
   <g id="text_17">
    <!-- Quick Sort &amp; Merge Sort vs O(N log N) -->
    <g transform="translate(254.564063 45.84) scale(0.12 -0.12)">
     <defs>
      <path id="DejaVuSans-51" d="M 2522 4238 
Q 1834 4238 1429 3725 
Q 1025 3213 1025 2328 
Q 1025 1447 1429 934 
Q 1834 422 2522 422 
Q 3209 422 3611 934 
Q 4013 1447 4013 2328 
Q 4013 3213 3611 3725 
Q 3209 4238 2522 4238 
z
M 3406 84 
L 4238 -825 
L 3475 -825 
L 2784 -78 
Q 2681 -84 2626 -87 
Q 2572 -91 2522 -91 
Q 1538 -91 948 567 
Q 359 1225 359 2328 
Q 359 3434 948 4092 
Q 1538 4750 2522 4750 
Q 3503 4750 4090 4092 
Q 4678 3434 4678 2328 
Q 4678 1516 4351 937 
Q 4025 359 3406 84 
z
" transform="scale(0.015625)"/>
      <path id="DejaVuSans-75" d="M 544 1381 
L 544 3500 
L 1119 3500 
L 1119 1403 
Q 1119 906 1312 657 
Q 1506 409 1894 409 
Q 2359 409 2629 706 
Q 2900 1003 2900 1516 
L 2900 3500 
L 3475 3500 
L 3475 0 
L 2900 0 
L 2900 538 
Q 2691 219 2414 64 
Q 2138 -91 1772 -91 
Q 1169 -91 856 284 
Q 544 659 544 1381 
z
M 1991 3584 
L 1991 3584 
z
" transform="scale(0.015625)"/>
      <path id="DejaVuSans-63" d="M 3122 3366 
L 3122 2828 
Q 2878 2963 2633 3030 
Q 2388 3097 2138 3097 
Q 1578 3097 1268 2742 
Q 959 2388 959 1747 
Q 959 1106 1268 751 
Q 1578 397 2138 397 
Q 2388 397 2633 464 
Q 2878 531 3122 666 
L 3122 134 
Q 2881 22 2623 -34 
Q 2366 -91 2075 -91 
Q 1284 -91 818 406 
Q 353 903 353 1747 
Q 353 2603 823 3093 
Q 1294 3584 2113 3584 
Q 2378 3584 2631 3529 
Q 2884 3475 3122 3366 
z
" transform="scale(0.015625)"/>
      <path id="DejaVuSans-6b" d="M 581 4863 
L 1159 4863 
L 1159 1991 
L 2875 3500 
L 3609 3500 
L 1753 1863 
L 3688 0 
L 2938 0 
L 1159 1709 
L 1159 0 
L 581 0 
L 581 4863 
z
" transform="scale(0.015625)"/>
      <path id="DejaVuSans-53" d="M 3425 4513 
L 3425 3897 
Q 3066 4069 2747 4153 
Q 2428 4238 2131 4238 
Q 1616 4238 1336 4038 
Q 1056 3838 1056 3469 
Q 1056 3159 1242 3001 
Q 1428 2844 1947 2747 
L 2328 2669 
Q 3034 2534 3370 2195 
Q 3706 1856 3706 1288 
Q 3706 609 3251 259 
Q 2797 -91 1919 -91 
Q 1588 -91 1214 -16 
Q 841 59 441 206 
L 441 856 
Q 825 641 1194 531 
Q 1563 422 1919 422 
Q 2459 422 2753 634 
Q 3047 847 3047 1241 
Q 3047 1584 2836 1778 
Q 2625 1972 2144 2069 
L 1759 2144 
Q 1053 2284 737 2584 
Q 422 2884 422 3419 
Q 422 4038 858 4394 
Q 1294 4750 2059 4750 
Q 2388 4750 2728 4690 
Q 3069 4631 3425 4513 
z
" transform="scale(0.015625)"/>
      <path id="DejaVuSans-6f" d="M 1959 3097 
Q 1497 3097 1228 2736 
Q 959 2375 959 1747 
Q 959 1119 1226 758 
Q 1494 397 1959 397 
Q 2419 397 2687 759 
Q 2956 1122 2956 1747 
Q 2956 2369 2687 2733 
Q 2419 3097 1959 3097 
z
M 1959 3584 
Q 2709 3584 3137 3096 
Q 3566 2609 3566 1747 
Q 3566 888 3137 398 
Q 2709 -91 1959 -91 
Q 1206 -91 779 398 
Q 353 888 353 1747 
Q 353 2609 779 3096 
Q 1206 3584 1959 3584 
z
" transform="scale(0.015625)"/>
      <path id="DejaVuSans-72" d="M 2631 2963 
Q 2534 3019 2420 3045 
Q 2306 3072 2169 3072 
Q 1681 3072 1420 2755 
Q 1159 2438 1159 1844 
L 1159 0 
L 581 0 
L 581 3500 
L 1159 3500 
L 1159 2956 
Q 1341 3275 1631 3429 
Q 1922 3584 2338 3584 
Q 2397 3584 2469 3576 
Q 2541 3569 2628 3553 
L 2631 2963 
z
" transform="scale(0.015625)"/>
      <path id="DejaVuSans-26" d="M 1556 2509 
Q 1272 2256 1139 2004 
Q 1006 1753 1006 1478 
Q 1006 1022 1337 719 
Q 1669 416 2169 416 
Q 2466 416 2725 514 
Q 2984 613 3213 813 
L 1556 2509 
z
M 1997 2859 
L 3584 1234 
Q 3769 1513 3872 1830 
Q 3975 2147 3994 2503 
L 4575 2503 
Q 4538 2091 4375 1687 
Q 4213 1284 3922 891 
L 4794 0 
L 4006 0 
L 3559 459 
Q 3234 181 2878 45 
Q 2522 -91 2113 -91 
Q 1359 -91 881 339 
Q 403 769 403 1441 
Q 403 1841 612 2192 
Q 822 2544 1241 2853 
Q 1091 3050 1012 3245 
Q 934 3441 934 3628 
Q 934 4134 1281 4442 
Q 1628 4750 2203 4750 
Q 2463 4750 2720 4694 
Q 2978 4638 3244 4525 
L 3244 3956 
Q 2972 4103 2725 4179 
Q 2478 4256 2266 4256 
Q 1938 4256 1733 4082 
Q 1528 3909 1528 3634 
Q 1528 3475 1620 3314 
Q 1713 3153 1997 2859 
z
" transform="scale(0.015625)"/>
      <path id="DejaVuSans-4d" d="M 628 4666 
L 1569 4666 
L 2759 1491 
L 3956 4666 
L 4897 4666 
L 4897 0 
L 4281 0 
L 4281 4097 
L 3078 897 
L 2444 897 
L 1241 4097 
L 1241 0 
L 628 0 
L 628 4666 
z
" transform="scale(0.015625)"/>
      <path id="DejaVuSans-67" d="M 2906 1791 
Q 2906 2416 2648 2759 
Q 2391 3103 1925 3103 
Q 1463 3103 1205 2759 
Q 947 2416 947 1791 
Q 947 1169 1205 825 
Q 1463 481 1925 481 
Q 2391 481 2648 825 
Q 2906 1169 2906 1791 
z
M 3481 434 
Q 3481 -459 3084 -895 
Q 2688 -1331 1869 -1331 
Q 1566 -1331 1297 -1286 
Q 1028 -1241 775 -1147 
L 775 -588 
Q 1028 -725 1275 -790 
Q 1522 -856 1778 -856 
Q 2344 -856 2625 -561 
Q 2906 -266 2906 331 
L 2906 616 
Q 2728 306 2450 153 
Q 2172 0 1784 0 
Q 1141 0 747 490 
Q 353 981 353 1791 
Q 353 2603 747 3093 
Q 1141 3584 1784 3584 
Q 2172 3584 2450 3431 
Q 2728 3278 2906 2969 
L 2906 3500 
L 3481 3500 
L 3481 434 
z
" transform="scale(0.015625)"/>
      <path id="DejaVuSans-76" d="M 191 3500 
L 800 3500 
L 1894 563 
L 2988 3500 
L 3597 3500 
L 2284 0 
L 1503 0 
L 191 3500 
z
" transform="scale(0.015625)"/>
      <path id="DejaVuSans-4f" d="M 2522 4238 
Q 1834 4238 1429 3725 
Q 1025 3213 1025 2328 
Q 1025 1447 1429 934 
Q 1834 422 2522 422 
Q 3209 422 3611 934 
Q 4013 1447 4013 2328 
Q 4013 3213 3611 3725 
Q 3209 4238 2522 4238 
z
M 2522 4750 
Q 3503 4750 4090 4092 
Q 4678 3434 4678 2328 
Q 4678 1225 4090 567 
Q 3503 -91 2522 -91 
Q 1538 -91 948 565 
Q 359 1222 359 2328 
Q 359 3434 948 4092 
Q 1538 4750 2522 4750 
z
" transform="scale(0.015625)"/>
      <path id="DejaVuSans-6c" d="M 603 4863 
L 1178 4863 
L 1178 0 
L 603 0 
L 603 4863 
z
" transform="scale(0.015625)"/>
     </defs>
     <use xlink:href="#DejaVuSans-51"/>
     <use xlink:href="#DejaVuSans-75" transform="translate(78.710938 0)"/>
     <use xlink:href="#DejaVuSans-69" transform="translate(142.089844 0)"/>
     <use xlink:href="#DejaVuSans-63" transform="translate(169.873047 0)"/>
     <use xlink:href="#DejaVuSans-6b" transform="translate(224.853516 0)"/>
     <use xlink:href="#DejaVuSans-20" transform="translate(282.763672 0)"/>
     <use xlink:href="#DejaVuSans-53" transform="translate(314.550781 0)"/>
     <use xlink:href="#DejaVuSans-6f" transform="translate(378.027344 0)"/>
     <use xlink:href="#DejaVuSans-72" transform="translate(439.208984 0)"/>
     <use xlink:href="#DejaVuSans-74" transform="translate(480.322266 0)"/>
     <use xlink:href="#DejaVuSans-20" transform="translate(519.53125 0)"/>
     <use xlink:href="#DejaVuSans-26" transform="translate(551.318359 0)"/>
     <use xlink:href="#DejaVuSans-20" transform="translate(629.296875 0)"/>
     <use xlink:href="#DejaVuSans-4d" transform="translate(661.083984 0)"/>
     <use xlink:href="#DejaVuSans-65" transform="translate(747.363281 0)"/>
     <use xlink:href="#DejaVuSans-72" transform="translate(808.886719 0)"/>
     <use xlink:href="#DejaVuSans-67" transform="translate(848.25 0)"/>
     <use xlink:href="#DejaVuSans-65" transform="translate(911.726562 0)"/>
     <use xlink:href="#DejaVuSans-20" transform="translate(973.25 0)"/>
     <use xlink:href="#DejaVuSans-53" transform="translate(1005.037109 0)"/>
     <use xlink:href="#DejaVuSans-6f" transform="translate(1068.513672 0)"/>
     <use xlink:href="#DejaVuSans-72" transform="translate(1129.695312 0)"/>
     <use xlink:href="#DejaVuSans-74" transform="translate(1170.808594 0)"/>
     <use xlink:href="#DejaVuSans-20" transform="translate(1210.017578 0)"/>
     <use xlink:href="#DejaVuSans-76" transform="translate(1241.804688 0)"/>
     <use xlink:href="#DejaVuSans-73" transform="translate(1300.984375 0)"/>
     <use xlink:href="#DejaVuSans-20" transform="translate(1353.083984 0)"/>
     <use xlink:href="#DejaVuSans-4f" transform="translate(1384.871094 0)"/>
     <use xlink:href="#DejaVuSans-28" transform="translate(1463.582031 0)"/>
     <use xlink:href="#DejaVuSans-4e" transform="translate(1502.595703 0)"/>
     <use xlink:href="#DejaVuSans-20" transform="translate(1577.400391 0)"/>
     <use xlink:href="#DejaVuSans-6c" transform="translate(1609.1875 0)"/>
     <use xlink:href="#DejaVuSans-6f" transform="translate(1636.970703 0)"/>
     <use xlink:href="#DejaVuSans-67" transform="translate(1698.152344 0)"/>
     <use xlink:href="#DejaVuSans-20" transform="translate(1761.628906 0)"/>
     <use xlink:href="#DejaVuSans-4e" transform="translate(1793.416016 0)"/>
     <use xlink:href="#DejaVuSans-29" transform="translate(1868.220703 0)"/>
    </g>
   </g>
   <g id="legend_1">
    <g id="patch_7">
     <path d="M 97 105.59625 
L 260.03125 105.59625 
Q 262.03125 105.59625 262.03125 103.59625 
L 262.03125 58.84 
Q 262.03125 56.84 260.03125 56.84 
L 97 56.84 
Q 95 56.84 95 58.84 
L 95 103.59625 
Q 95 105.59625 97 105.59625 
z
" style="fill: #ffffff; opacity: 0.8; stroke: #cccccc; stroke-linejoin: miter"/>
    </g>
    <g id="line2d_18">
     <path d="M 99 65.84 
L 109 65.84 
L 119 65.84 
" style="fill: none; stroke-dasharray: 5.55,2.4; stroke-dashoffset: 0; stroke: #ff0000; stroke-width: 1.5"/>
    </g>
    <g id="text_18">
     <!-- Lý thuyết $O(N \log N)$ -->
     <g transform="translate(127 69.34) scale(0.1 -0.1)">
      <defs>
       <path id="DejaVuSans-4c" d="M 628 4666 
L 1259 4666 
L 1259 531 
L 3531 531 
L 3531 0 
L 628 0 
L 628 4666 
z
" transform="scale(0.015625)"/>
       <path id="DejaVuSans-fd" d="M 2059 -325 
Q 1816 -950 1584 -1140 
Q 1353 -1331 966 -1331 
L 506 -1331 
L 506 -850 
L 844 -850 
Q 1081 -850 1212 -737 
Q 1344 -625 1503 -206 
L 1606 56 
L 191 3500 
L 800 3500 
L 1894 763 
L 2988 3500 
L 3597 3500 
L 2059 -325 
z
M 2330 5119 
L 2952 5119 
L 1934 3944 
L 1455 3944 
L 2330 5119 
z
" transform="scale(0.015625)"/>
       <path id="DejaVuSans-68" d="M 3513 2113 
L 3513 0 
L 2938 0 
L 2938 2094 
Q 2938 2591 2744 2837 
Q 2550 3084 2163 3084 
Q 1697 3084 1428 2787 
Q 1159 2491 1159 1978 
L 1159 0 
L 581 0 
L 581 4863 
L 1159 4863 
L 1159 2956 
Q 1366 3272 1645 3428 
Q 1925 3584 2291 3584 
Q 2894 3584 3203 3211 
Q 3513 2838 3513 2113 
z
" transform="scale(0.015625)"/>
       <path id="DejaVuSans-79" d="M 2059 -325 
Q 1816 -950 1584 -1140 
Q 1353 -1331 966 -1331 
L 506 -1331 
L 506 -850 
L 844 -850 
Q 1081 -850 1212 -737 
Q 1344 -625 1503 -206 
L 1606 56 
L 191 3500 
L 800 3500 
L 1894 763 
L 2988 3500 
L 3597 3500 
L 2059 -325 
z
" transform="scale(0.015625)"/>
       <path id="DejaVuSans-1ebf" d="M 1738 4775 
L 2326 4775 
L 2985 3944 
L 2551 3944 
L 2032 4500 
L 1513 3944 
L 1079 3944 
L 1738 4775 
z
M 3348 5409 
L 3926 5409 
L 3214 4584 
L 2735 4584 
L 3348 5409 
z
M 3597 1894 
L 3597 1613 
L 953 1613 
Q 991 1019 1311 708 
Q 1631 397 2203 397 
Q 2534 397 2845 478 
Q 3156 559 3463 722 
L 3463 178 
Q 3153 47 2828 -22 
Q 2503 -91 2169 -91 
Q 1331 -91 842 396 
Q 353 884 353 1716 
Q 353 2575 817 3079 
Q 1281 3584 2069 3584 
Q 2775 3584 3186 3129 
Q 3597 2675 3597 1894 
z
M 3022 2063 
Q 3016 2534 2758 2815 
Q 2500 3097 2075 3097 
Q 1594 3097 1305 2825 
Q 1016 2553 972 2059 
L 3022 2063 
z
" transform="scale(0.015625)"/>
       <path id="DejaVuSans-Oblique-4f" d="M 2919 4238 
Q 2400 4238 2003 3986 
Q 1606 3734 1313 3219 
Q 1125 2891 1026 2522 
Q 928 2153 928 1778 
Q 928 1128 1239 775 
Q 1550 422 2119 422 
Q 2631 422 3032 676 
Q 3434 931 3719 1434 
Q 3909 1772 4009 2142 
Q 4109 2513 4109 2881 
Q 4109 3528 3796 3883 
Q 3484 4238 2919 4238 
z
M 2100 -91 
Q 1241 -91 748 418 
Q 256 928 256 1813 
Q 256 2319 448 2847 
Q 641 3375 978 3788 
Q 1375 4272 1862 4511 
Q 2350 4750 2938 4750 
Q 3794 4750 4287 4245 
Q 4781 3741 4781 2869 
Q 4781 2331 4593 1812 
Q 4406 1294 4056 872 
Q 3656 384 3173 146 
Q 2691 -91 2100 -91 
z
" transform="scale(0.015625)"/>
       <path id="DejaVuSans-Oblique-4e" d="M 1081 4666 
L 1931 4666 
L 3219 666 
L 4000 4666 
L 4616 4666 
L 3706 0 
L 2853 0 
L 1569 4025 
L 788 0 
L 172 0 
L 1081 4666 
z
" transform="scale(0.015625)"/>
      </defs>
      <use xlink:href="#DejaVuSans-4c" transform="translate(0 0.484375)"/>
      <use xlink:href="#DejaVuSans-fd" transform="translate(55.712891 0.484375)"/>
      <use xlink:href="#DejaVuSans-20" transform="translate(114.892578 0.484375)"/>
      <use xlink:href="#DejaVuSans-74" transform="translate(146.679688 0.484375)"/>
      <use xlink:href="#DejaVuSans-68" transform="translate(185.888672 0.484375)"/>
      <use xlink:href="#DejaVuSans-75" transform="translate(249.267578 0.484375)"/>
      <use xlink:href="#DejaVuSans-79" transform="translate(312.646484 0.484375)"/>
      <use xlink:href="#DejaVuSans-1ebf" transform="translate(371.826172 0.484375)"/>
      <use xlink:href="#DejaVuSans-74" transform="translate(433.349609 0.484375)"/>
      <use xlink:href="#DejaVuSans-20" transform="translate(472.558594 0.484375)"/>
      <use xlink:href="#DejaVuSans-Oblique-4f" transform="translate(504.345703 0.484375)"/>
      <use xlink:href="#DejaVuSans-28" transform="translate(583.056641 0.484375)"/>
      <use xlink:href="#DejaVuSans-Oblique-4e" transform="translate(622.070312 0.484375)"/>
      <use xlink:href="#DejaVuSans-6c" transform="translate(696.875 0.484375)"/>
      <use xlink:href="#DejaVuSans-6f" transform="translate(724.658203 0.484375)"/>
      <use xlink:href="#DejaVuSans-67" transform="translate(785.839844 0.484375)"/>
      <use xlink:href="#DejaVuSans-Oblique-4e" transform="translate(865.552083 0.484375)"/>
      <use xlink:href="#DejaVuSans-29" transform="translate(940.35677 0.484375)"/>
     </g>
    </g>
    <g id="line2d_19">
     <path d="M 99 80.938437 
L 109 80.938437 
L 119 80.938437 
" style="fill: none; stroke: #0000ff; stroke-width: 1.5; stroke-linecap: square"/>
     <g>
      <use xlink:href="#m5598002e28" x="109" y="80.938437" style="fill: #0000ff; stroke: #0000ff"/>
     </g>
    </g>
    <g id="text_19">
     <!-- Thực nghiệm (Quick Sort) -->
     <g transform="translate(127 84.438437) scale(0.1 -0.1)">
      <defs>
       <path id="DejaVuSans-54" d="M -19 4666 
L 3928 4666 
L 3928 4134 
L 2272 4134 
L 2272 0 
L 1638 0 
L 1638 4134 
L -19 4134 
L -19 4666 
z
" transform="scale(0.015625)"/>
       <path id="DejaVuSans-1ef1" d="M 3094 3136 
L 3094 3508 
Q 3285 3367 3422 3300 
Q 3560 3233 3657 3233 
Q 3800 3233 3872 3319 
Q 3944 3405 3944 3573 
Q 3944 3673 3920 3770 
Q 3897 3867 3850 3964 
L 4266 3964 
Q 4297 3845 4312 3739 
Q 4328 3633 4328 3539 
Q 4328 3158 4192 2978 
Q 4057 2798 3766 2798 
Q 3616 2798 3452 2881 
Q 3288 2964 3094 3136 
z
M 552 1381 
L 552 3500 
L 1127 3500 
L 1127 1403 
Q 1127 906 1320 657 
Q 1514 409 1902 409 
Q 2367 409 2637 706 
Q 2908 1003 2908 1516 
L 2908 3500 
L 3483 3500 
L 3483 0 
L 2908 0 
L 2908 538 
Q 2699 219 2422 64 
Q 2146 -91 1780 -91 
Q 1177 -91 864 284 
Q 552 659 552 1381 
z
M 1999 3584 
L 1999 3584 
z
M 1690 -441 
L 2265 -441 
L 2265 -1172 
L 1690 -1172 
L 1690 -441 
z
" transform="scale(0.015625)"/>
       <path id="DejaVuSans-6e" d="M 3513 2113 
L 3513 0 
L 2938 0 
L 2938 2094 
Q 2938 2591 2744 2837 
Q 2550 3084 2163 3084 
Q 1697 3084 1428 2787 
Q 1159 2491 1159 1978 
L 1159 0 
L 581 0 
L 581 3500 
L 1159 3500 
L 1159 2956 
Q 1366 3272 1645 3428 
Q 1925 3584 2291 3584 
Q 2894 3584 3203 3211 
Q 3513 2838 3513 2113 
z
" transform="scale(0.015625)"/>
       <path id="DejaVuSans-1ec7" d="M 1738 -441 
L 2313 -441 
L 2313 -1172 
L 1738 -1172 
L 1738 -441 
z
M 3597 1894 
L 3597 1613 
L 953 1613 
Q 991 1019 1311 708 
Q 1631 397 2203 397 
Q 2534 397 2845 478 
Q 3156 559 3463 722 
L 3463 178 
Q 3153 47 2828 -22 
Q 2503 -91 2169 -91 
Q 1331 -91 842 396 
Q 353 884 353 1716 
Q 353 2575 817 3079 
Q 1281 3584 2069 3584 
Q 2775 3584 3186 3129 
Q 3597 2675 3597 1894 
z
M 3022 2063 
Q 3016 2534 2758 2815 
Q 2500 3097 2075 3097 
Q 1594 3097 1305 2825 
Q 1016 2553 972 2059 
L 3022 2063 
z
M 1738 -441 
L 2313 -441 
L 2313 -1172 
L 1738 -1172 
L 1738 -441 
z
M 1801 5119 
L 2263 5119 
L 3029 3944 
L 2595 3944 
L 2032 4709 
L 1470 3944 
L 1035 3944 
L 1801 5119 
z
" transform="scale(0.015625)"/>
      </defs>
      <use xlink:href="#DejaVuSans-54"/>
      <use xlink:href="#DejaVuSans-68" transform="translate(61.083984 0)"/>
      <use xlink:href="#DejaVuSans-1ef1" transform="translate(124.462891 0)"/>
      <use xlink:href="#DejaVuSans-63" transform="translate(187.841797 0)"/>
      <use xlink:href="#DejaVuSans-20" transform="translate(242.822266 0)"/>
      <use xlink:href="#DejaVuSans-6e" transform="translate(274.609375 0)"/>
      <use xlink:href="#DejaVuSans-67" transform="translate(337.988281 0)"/>
      <use xlink:href="#DejaVuSans-68" transform="translate(401.464844 0)"/>
      <use xlink:href="#DejaVuSans-69" transform="translate(464.84375 0)"/>
      <use xlink:href="#DejaVuSans-1ec7" transform="translate(492.626953 0)"/>
      <use xlink:href="#DejaVuSans-6d" transform="translate(554.150391 0)"/>
      <use xlink:href="#DejaVuSans-20" transform="translate(651.5625 0)"/>
      <use xlink:href="#DejaVuSans-28" transform="translate(683.349609 0)"/>
      <use xlink:href="#DejaVuSans-51" transform="translate(722.363281 0)"/>
      <use xlink:href="#DejaVuSans-75" transform="translate(801.074219 0)"/>
      <use xlink:href="#DejaVuSans-69" transform="translate(864.453125 0)"/>
      <use xlink:href="#DejaVuSans-63" transform="translate(892.236328 0)"/>
      <use xlink:href="#DejaVuSans-6b" transform="translate(947.216797 0)"/>
      <use xlink:href="#DejaVuSans-20" transform="translate(1005.126953 0)"/>
      <use xlink:href="#DejaVuSans-53" transform="translate(1036.914062 0)"/>
      <use xlink:href="#DejaVuSans-6f" transform="translate(1100.390625 0)"/>
      <use xlink:href="#DejaVuSans-72" transform="translate(1161.572266 0)"/>
      <use xlink:href="#DejaVuSans-74" transform="translate(1202.685547 0)"/>
      <use xlink:href="#DejaVuSans-29" transform="translate(1241.894531 0)"/>
     </g>
    </g>
    <g id="line2d_20">
     <path d="M 99 96.016562 
L 109 96.016562 
L 119 96.016562 
" style="fill: none; stroke: #008000; stroke-width: 1.5; stroke-linecap: square"/>
     <g>
      <use xlink:href="#maded601375" x="109" y="96.016562" style="fill: #008000; stroke: #008000"/>
     </g>
    </g>
    <g id="text_20">
     <!-- Thực nghiệm (Merge Sort) -->
     <g transform="translate(127 99.516562) scale(0.1 -0.1)">
      <use xlink:href="#DejaVuSans-54"/>
      <use xlink:href="#DejaVuSans-68" transform="translate(61.083984 0)"/>
      <use xlink:href="#DejaVuSans-1ef1" transform="translate(124.462891 0)"/>
      <use xlink:href="#DejaVuSans-63" transform="translate(187.841797 0)"/>
      <use xlink:href="#DejaVuSans-20" transform="translate(242.822266 0)"/>
      <use xlink:href="#DejaVuSans-6e" transform="translate(274.609375 0)"/>
      <use xlink:href="#DejaVuSans-67" transform="translate(337.988281 0)"/>
      <use xlink:href="#DejaVuSans-68" transform="translate(401.464844 0)"/>
      <use xlink:href="#DejaVuSans-69" transform="translate(464.84375 0)"/>
      <use xlink:href="#DejaVuSans-1ec7" transform="translate(492.626953 0)"/>
      <use xlink:href="#DejaVuSans-6d" transform="translate(554.150391 0)"/>
      <use xlink:href="#DejaVuSans-20" transform="translate(651.5625 0)"/>
      <use xlink:href="#DejaVuSans-28" transform="translate(683.349609 0)"/>
      <use xlink:href="#DejaVuSans-4d" transform="translate(722.363281 0)"/>
      <use xlink:href="#DejaVuSans-65" transform="translate(808.642578 0)"/>
      <use xlink:href="#DejaVuSans-72" transform="translate(870.166016 0)"/>
      <use xlink:href="#DejaVuSans-67" transform="translate(909.529297 0)"/>
      <use xlink:href="#DejaVuSans-65" transform="translate(973.005859 0)"/>
      <use xlink:href="#DejaVuSans-20" transform="translate(1034.529297 0)"/>
      <use xlink:href="#DejaVuSans-53" transform="translate(1066.316406 0)"/>
      <use xlink:href="#DejaVuSans-6f" transform="translate(1129.792969 0)"/>
      <use xlink:href="#DejaVuSans-72" transform="translate(1190.974609 0)"/>
      <use xlink:href="#DejaVuSans-74" transform="translate(1232.087891 0)"/>
      <use xlink:href="#DejaVuSans-29" transform="translate(1271.296875 0)"/>
     </g>
    </g>
   </g>
  </g>
 </g>
 <defs>
  <clipPath id="p2d1e0a8c01">
   <rect x="90" y="51.84" width="558" height="332.64"/>
  </clipPath>
 </defs>
</svg>
