<?xml version="1.0" encoding="utf-8" standalone="no"?>
<!DOCTYPE svg PUBLIC "-//W3C//DTD SVG 1.1//EN"
  "http://www.w3.org/Graphics/SVG/1.1/DTD/svg11.dtd">
<svg xmlns:xlink="http://www.w3.org/1999/xlink" width="720pt" height="432pt" viewBox="0 0 720 432" xmlns="http://www.w3.org/2000/svg" version="1.1">
 <metadata>
  <rdf:RDF xmlns:dc="http://purl.org/dc/elements/1.1/" xmlns:cc="http://creativecommons.org/ns#" xmlns:rdf="http://www.w3.org/1999/02/22-rdf-syntax-ns#">
   <cc:Work>
    <dc:type rdf:resource="http://purl.org/dc/dcmitype/StillImage"/>
    <dc:date>2026-03-31T00:11:02.453159</dc:date>
    <dc:format>image/svg+xml</dc:format>
    <dc:creator>
     <cc:Agent>
      <dc:title>Matplotlib v3.10.7, https://matplotlib.org/</dc:title>
     </cc:Agent>
    </dc:creator>
   </cc:Work>
  </rdf:RDF>
 </metadata>
 <defs>
  <style type="text/css">*{stroke-linejoin: round; stroke-linecap: butt}</style>
 </defs>
 <g id="figure_1">
  <g id="patch_1">
   <path d="M 0 432 
L 720 432 
L 720 0 
L 0 0 
z
" style="fill: #ffffff"/>
  </g>
  <g id="axes_1">
   <g id="patch_2">
    <path d="M 90 384.48 
L 648 384.48 
L 648 51.84 
L 90 51.84 
z
" style="fill: #ffffff"/>
   </g>
   <g id="matplotlib.axis_1">
    <g id="xtick_1">
     <g id="line2d_1">
      <defs>
       <path id="mfd7eed08d3" d="M 0 0 
L 0 3.5 
" style="stroke: #000000; stroke-width: 0.8"/>
      </defs>
      <g>
       <use xlink:href="#mfd7eed08d3" x="110.239669" y="384.48" style="stroke: #000000; stroke-width: 0.8"/>
      </g>
     </g>
     <g id="text_1">
      <!-- 0 -->
      <g transform="translate(107.058419 399.078438) scale(0.1 -0.1)">
       <defs>
        <path id="DejaVuSans-30" d="M 2034 4250 
Q 1547 4250 1301 3770 
Q 1056 3291 1056 2328 
Q 1056 1369 1301 889 
Q 1547 409 2034 409 
Q 2525 409 2770 889 
Q 3016 1369 3016 2328 
Q 3016 3291 2770 3770 
Q 2525 4250 2034 4250 
z
M 2034 4750 
Q 2819 4750 3233 4129 
Q 3647 3509 3647 2328 
Q 3647 1150 3233 529 
Q 2819 -91 2034 -91 
Q 1250 -91 836 529 
Q 422 1150 422 2328 
Q 422 3509 836 4129 
Q 1250 4750 2034 4750 
z
" transform="scale(0.015625)"/>
       </defs>
       <use xlink:href="#DejaVuSans-30"/>
      </g>
     </g>
    </g>
    <g id="xtick_2">
     <g id="line2d_2">
      <g>
       <use xlink:href="#mfd7eed08d3" x="212.719008" y="384.48" style="stroke: #000000; stroke-width: 0.8"/>
      </g>
     </g>
     <g id="text_2">
      <!-- 200 -->
      <g transform="translate(203.175258 399.078438) scale(0.1 -0.1)">
       <defs>
        <path id="DejaVuSans-32" d="M 1228 531 
L 3431 531 
L 3431 0 
L 469 0 
L 469 531 
Q 828 903 1448 1529 
Q 2069 2156 2228 2338 
Q 2531 2678 2651 2914 
Q 2772 3150 2772 3378 
Q 2772 3750 2511 3984 
Q 2250 4219 1831 4219 
Q 1534 4219 1204 4116 
Q 875 4013 500 3803 
L 500 4441 
Q 881 4594 1212 4672 
Q 1544 4750 1819 4750 
Q 2544 4750 2975 4387 
Q 3406 4025 3406 3419 
Q 3406 3131 3298 2873 
Q 3191 2616 2906 2266 
Q 2828 2175 2409 1742 
Q 1991 1309 1228 531 
z
" transform="scale(0.015625)"/>
       </defs>
       <use xlink:href="#DejaVuSans-32"/>
       <use xlink:href="#DejaVuSans-30" transform="translate(63.623047 0)"/>
       <use xlink:href="#DejaVuSans-30" transform="translate(127.246094 0)"/>
      </g>
     </g>
    </g>
    <g id="xtick_3">
     <g id="line2d_3">
      <g>
       <use xlink:href="#mfd7eed08d3" x="315.198347" y="384.48" style="stroke: #000000; stroke-width: 0.8"/>
      </g>
     </g>
     <g id="text_3">
      <!-- 400 -->
      <g transform="translate(305.654597 399.078438) scale(0.1 -0.1)">
       <defs>
        <path id="DejaVuSans-34" d="M 2419 4116 
L 825 1625 
L 2419 1625 
L 2419 4116 
z
M 2253 4666 
L 3047 4666 
L 3047 1625 
L 3713 1625 
L 3713 1100 
L 3047 1100 
L 3047 0 
L 2419 0 
L 2419 1100 
L 313 1100 
L 313 1709 
L 2253 4666 
z
" transform="scale(0.015625)"/>
       </defs>
       <use xlink:href="#DejaVuSans-34"/>
       <use xlink:href="#DejaVuSans-30" transform="translate(63.623047 0)"/>
       <use xlink:href="#DejaVuSans-30" transform="translate(127.246094 0)"/>
      </g>
     </g>
    </g>
    <g id="xtick_4">
     <g id="line2d_4">
      <g>
       <use xlink:href="#mfd7eed08d3" x="417.677686" y="384.48" style="stroke: #000000; stroke-width: 0.8"/>
      </g>
     </g>
     <g id="text_4">
      <!-- 600 -->
      <g transform="translate(408.133936 399.078438) scale(0.1 -0.1)">
       <defs>
        <path id="DejaVuSans-36" d="M 2113 2584 
Q 1688 2584 1439 2293 
Q 1191 2003 1191 1497 
Q 1191 994 1439 701 
Q 1688 409 2113 409 
Q 2538 409 2786 701 
Q 3034 994 3034 1497 
Q 3034 2003 2786 2293 
Q 2538 2584 2113 2584 
z
M 3366 4563 
L 3366 3988 
Q 3128 4100 2886 4159 
Q 2644 4219 2406 4219 
Q 1781 4219 1451 3797 
Q 1122 3375 1075 2522 
Q 1259 2794 1537 2939 
Q 1816 3084 2150 3084 
Q 2853 3084 3261 2657 
Q 3669 2231 3669 1497 
Q 3669 778 3244 343 
Q 2819 -91 2113 -91 
Q 1303 -91 875 529 
Q 447 1150 447 2328 
Q 447 3434 972 4092 
Q 1497 4750 2381 4750 
Q 2619 4750 2861 4703 
Q 3103 4656 3366 4563 
z
" transform="scale(0.015625)"/>
       </defs>
       <use xlink:href="#DejaVuSans-36"/>
       <use xlink:href="#DejaVuSans-30" transform="translate(63.623047 0)"/>
       <use xlink:href="#DejaVuSans-30" transform="translate(127.246094 0)"/>
      </g>
     </g>
    </g>
    <g id="xtick_5">
     <g id="line2d_5">
      <g>
       <use xlink:href="#mfd7eed08d3" x="520.157025" y="384.48" style="stroke: #000000; stroke-width: 0.8"/>
      </g>
     </g>
     <g id="text_5">
      <!-- 800 -->
      <g transform="translate(510.613275 399.078438) scale(0.1 -0.1)">
       <defs>
        <path id="DejaVuSans-38" d="M 2034 2216 
Q 1584 2216 1326 1975 
Q 1069 1734 1069 1313 
Q 1069 891 1326 650 
Q 1584 409 2034 409 
Q 2484 409 2743 651 
Q 3003 894 3003 1313 
Q 3003 1734 2745 1975 
Q 2488 2216 2034 2216 
z
M 1403 2484 
Q 997 2584 770 2862 
Q 544 3141 544 3541 
Q 544 4100 942 4425 
Q 1341 4750 2034 4750 
Q 2731 4750 3128 4425 
Q 3525 4100 3525 3541 
Q 3525 3141 3298 2862 
Q 3072 2584 2669 2484 
Q 3125 2378 3379 2068 
Q 3634 1759 3634 1313 
Q 3634 634 3220 271 
Q 2806 -91 2034 -91 
Q 1263 -91 848 271 
Q 434 634 434 1313 
Q 434 1759 690 2068 
Q 947 2378 1403 2484 
z
M 1172 3481 
Q 1172 3119 1398 2916 
Q 1625 2713 2034 2713 
Q 2441 2713 2670 2916 
Q 2900 3119 2900 3481 
Q 2900 3844 2670 4047 
Q 2441 4250 2034 4250 
Q 1625 4250 1398 4047 
Q 1172 3844 1172 3481 
z
" transform="scale(0.015625)"/>
       </defs>
       <use xlink:href="#DejaVuSans-38"/>
       <use xlink:href="#DejaVuSans-30" transform="translate(63.623047 0)"/>
       <use xlink:href="#DejaVuSans-30" transform="translate(127.246094 0)"/>
      </g>
     </g>
    </g>
    <g id="xtick_6">
     <g id="line2d_6">
      <g>
       <use xlink:href="#mfd7eed08d3" x="622.636364" y="384.48" style="stroke: #000000; stroke-width: 0.8"/>
      </g>
     </g>
     <g id="text_6">
      <!-- 1000 -->
      <g transform="translate(609.911364 399.078438) scale(0.1 -0.1)">
       <defs>
        <path id="DejaVuSans-31" d="M 794 531 
L 1825 531 
L 1825 4091 
L 703 3866 
L 703 4441 
L 1819 4666 
L 2450 4666 
L 2450 531 
L 3481 531 
L 3481 0 
L 794 0 
L 794 531 
z
" transform="scale(0.015625)"/>
       </defs>
       <use xlink:href="#DejaVuSans-31"/>
       <use xlink:href="#DejaVuSans-30" transform="translate(63.623047 0)"/>
       <use xlink:href="#DejaVuSans-30" transform="translate(127.246094 0)"/>
       <use xlink:href="#DejaVuSans-30" transform="translate(190.869141 0)"/>
      </g>
     </g>
    </g>
    <g id="text_7">
     <!-- N -->
     <g transform="translate(365.259375 412.756563) scale(0.1 -0.1)">
      <defs>
       <path id="DejaVuSans-4e" d="M 628 4666 
L 1478 4666 
L 3547 763 
L 3547 4666 
L 4159 4666 
L 4159 0 
L 3309 0 
L 1241 3903 
L 1241 0 
L 628 0 
L 628 4666 
z
" transform="scale(0.015625)"/>
      </defs>
      <use xlink:href="#DejaVuSans-4e"/>
     </g>
    </g>
   </g>
   <g id="matplotlib.axis_2">
    <g id="ytick_1">
     <g id="line2d_7">
      <defs>
       <path id="ma8f62100a9" d="M 0 0 
L -3.5 0 
" style="stroke: #000000; stroke-width: 0.8"/>
      </defs>
      <g>
       <use xlink:href="#ma8f62100a9" x="90" y="370.371371" style="stroke: #000000; stroke-width: 0.8"/>
      </g>
     </g>
     <g id="text_8">
      <!-- 0.0000 -->
      <g transform="translate(48.009375 374.17059) scale(0.1 -0.1)">
       <defs>
        <path id="DejaVuSans-2e" d="M 684 794 
L 1344 794 
L 1344 0 
L 684 0 
L 684 794 
z
" transform="scale(0.015625)"/>
       </defs>
       <use xlink:href="#DejaVuSans-30"/>
       <use xlink:href="#DejaVuSans-2e" transform="translate(63.623047 0)"/>
       <use xlink:href="#DejaVuSans-30" transform="translate(95.410156 0)"/>
       <use xlink:href="#DejaVuSans-30" transform="translate(159.033203 0)"/>
       <use xlink:href="#DejaVuSans-30" transform="translate(222.65625 0)"/>
       <use xlink:href="#DejaVuSans-30" transform="translate(286.279297 0)"/>
      </g>
     </g>
    </g>
    <g id="ytick_2">
     <g id="line2d_8">
      <g>
       <use xlink:href="#ma8f62100a9" x="90" y="332.999916" style="stroke: #000000; stroke-width: 0.8"/>
      </g>
     </g>
     <g id="text_9">
      <!-- 0.0002 -->
      <g transform="translate(48.009375 336.799135) scale(0.1 -0.1)">
       <use xlink:href="#DejaVuSans-30"/>
       <use xlink:href="#DejaVuSans-2e" transform="translate(63.623047 0)"/>
       <use xlink:href="#DejaVuSans-30" transform="translate(95.410156 0)"/>
       <use xlink:href="#DejaVuSans-30" transform="translate(159.033203 0)"/>
       <use xlink:href="#DejaVuSans-30" transform="translate(222.65625 0)"/>
       <use xlink:href="#DejaVuSans-32" transform="translate(286.279297 0)"/>
      </g>
     </g>
    </g>
    <g id="ytick_3">
     <g id="line2d_9">
      <g>
       <use xlink:href="#ma8f62100a9" x="90" y="295.628461" style="stroke: #000000; stroke-width: 0.8"/>
      </g>
     </g>
     <g id="text_10">
      <!-- 0.0004 -->
      <g transform="translate(48.009375 299.427679) scale(0.1 -0.1)">
       <use xlink:href="#DejaVuSans-30"/>
       <use xlink:href="#DejaVuSans-2e" transform="translate(63.623047 0)"/>
       <use xlink:href="#DejaVuSans-30" transform="translate(95.410156 0)"/>
       <use xlink:href="#DejaVuSans-30" transform="translate(159.033203 0)"/>
       <use xlink:href="#DejaVuSans-30" transform="translate(222.65625 0)"/>
       <use xlink:href="#DejaVuSans-34" transform="translate(286.279297 0)"/>
      </g>
     </g>
    </g>
    <g id="ytick_4">
     <g id="line2d_10">
      <g>
       <use xlink:href="#ma8f62100a9" x="90" y="258.257005" style="stroke: #000000; stroke-width: 0.8"/>
      </g>
     </g>
     <g id="text_11">
      <!-- 0.0006 -->
      <g transform="translate(48.009375 262.056224) scale(0.1 -0.1)">
       <use xlink:href="#DejaVuSans-30"/>
       <use xlink:href="#DejaVuSans-2e" transform="translate(63.623047 0)"/>
       <use xlink:href="#DejaVuSans-30" transform="translate(95.410156 0)"/>
       <use xlink:href="#DejaVuSans-30" transform="translate(159.033203 0)"/>
       <use xlink:href="#DejaVuSans-30" transform="translate(222.65625 0)"/>
       <use xlink:href="#DejaVuSans-36" transform="translate(286.279297 0)"/>
      </g>
     </g>
    </g>
    <g id="ytick_5">
     <g id="line2d_11">
      <g>
       <use xlink:href="#ma8f62100a9" x="90" y="220.88555" style="stroke: #000000; stroke-width: 0.8"/>
      </g>
     </g>
     <g id="text_12">
      <!-- 0.0008 -->
      <g transform="translate(48.009375 224.684769) scale(0.1 -0.1)">
       <use xlink:href="#DejaVuSans-30"/>
       <use xlink:href="#DejaVuSans-2e" transform="translate(63.623047 0)"/>
       <use xlink:href="#DejaVuSans-30" transform="translate(95.410156 0)"/>
       <use xlink:href="#DejaVuSans-30" transform="translate(159.033203 0)"/>
       <use xlink:href="#DejaVuSans-30" transform="translate(222.65625 0)"/>
       <use xlink:href="#DejaVuSans-38" transform="translate(286.279297 0)"/>
      </g>
     </g>
    </g>
    <g id="ytick_6">
     <g id="line2d_12">
      <g>
       <use xlink:href="#ma8f62100a9" x="90" y="183.514095" style="stroke: #000000; stroke-width: 0.8"/>
      </g>
     </g>
     <g id="text_13">
      <!-- 0.0010 -->
      <g transform="translate(48.009375 187.313314) scale(0.1 -0.1)">
       <use xlink:href="#DejaVuSans-30"/>
       <use xlink:href="#DejaVuSans-2e" transform="translate(63.623047 0)"/>
       <use xlink:href="#DejaVuSans-30" transform="translate(95.410156 0)"/>
       <use xlink:href="#DejaVuSans-30" transform="translate(159.033203 0)"/>
       <use xlink:href="#DejaVuSans-31" transform="translate(222.65625 0)"/>
       <use xlink:href="#DejaVuSans-30" transform="translate(286.279297 0)"/>
      </g>
     </g>
    </g>
    <g id="ytick_7">
     <g id="line2d_13">
      <g>
       <use xlink:href="#ma8f62100a9" x="90" y="146.142639" style="stroke: #000000; stroke-width: 0.8"/>
      </g>
     </g>
     <g id="text_14">
      <!-- 0.0012 -->
      <g transform="translate(48.009375 149.941858) scale(0.1 -0.1)">
       <use xlink:href="#DejaVuSans-30"/>
       <use xlink:href="#DejaVuSans-2e" transform="translate(63.623047 0)"/>
       <use xlink:href="#DejaVuSans-30" transform="translate(95.410156 0)"/>
       <use xlink:href="#DejaVuSans-30" transform="translate(159.033203 0)"/>
       <use xlink:href="#DejaVuSans-31" transform="translate(222.65625 0)"/>
       <use xlink:href="#DejaVuSans-32" transform="translate(286.279297 0)"/>
      </g>
     </g>
    </g>
    <g id="ytick_8">
     <g id="line2d_14">
      <g>
       <use xlink:href="#ma8f62100a9" x="90" y="108.771184" style="stroke: #000000; stroke-width: 0.8"/>
      </g>
     </g>
     <g id="text_15">
      <!-- 0.0014 -->
      <g transform="translate(48.009375 112.570403) scale(0.1 -0.1)">
       <use xlink:href="#DejaVuSans-30"/>
       <use xlink:href="#DejaVuSans-2e" transform="translate(63.623047 0)"/>
       <use xlink:href="#DejaVuSans-30" transform="translate(95.410156 0)"/>
       <use xlink:href="#DejaVuSans-30" transform="translate(159.033203 0)"/>
       <use xlink:href="#DejaVuSans-31" transform="translate(222.65625 0)"/>
       <use xlink:href="#DejaVuSans-34" transform="translate(286.279297 0)"/>
      </g>
     </g>
    </g>
    <g id="ytick_9">
     <g id="line2d_15">
      <g>
       <use xlink:href="#ma8f62100a9" x="90" y="71.399729" style="stroke: #000000; stroke-width: 0.8"/>
      </g>
     </g>
     <g id="text_16">
      <!-- 0.0016 -->
      <g transform="translate(48.009375 75.198948) scale(0.1 -0.1)">
       <use xlink:href="#DejaVuSans-30"/>
       <use xlink:href="#DejaVuSans-2e" transform="translate(63.623047 0)"/>
       <use xlink:href="#DejaVuSans-30" transform="translate(95.410156 0)"/>
       <use xlink:href="#DejaVuSans-30" transform="translate(159.033203 0)"/>
       <use xlink:href="#DejaVuSans-31" transform="translate(222.65625 0)"/>
       <use xlink:href="#DejaVuSans-36" transform="translate(286.279297 0)"/>
      </g>
     </g>
    </g>
    <g id="text_17">
     <!-- time (s) -->
     <g transform="translate(41.929688 237.551406) rotate(-90) scale(0.1 -0.1)">
      <defs>
       <path id="DejaVuSans-74" d="M 1172 4494 
L 1172 3500 
L 2356 3500 
L 2356 3053 
L 1172 3053 
L 1172 1153 
Q 1172 725 1289 603 
Q 1406 481 1766 481 
L 2356 481 
L 2356 0 
L 1766 0 
Q 1100 0 847 248 
Q 594 497 594 1153 
L 594 3053 
L 172 3053 
L 172 3500 
L 594 3500 
L 594 4494 
L 1172 4494 
z
" transform="scale(0.015625)"/>
       <path id="DejaVuSans-69" d="M 603 3500 
L 1178 3500 
L 1178 0 
L 603 0 
L 603 3500 
z
M 603 4863 
L 1178 4863 
L 1178 4134 
L 603 4134 
L 603 4863 
z
" transform="scale(0.015625)"/>
       <path id="DejaVuSans-6d" d="M 3328 2828 
Q 3544 3216 3844 3400 
Q 4144 3584 4550 3584 
Q 5097 3584 5394 3201 
Q 5691 2819 5691 2113 
L 5691 0 
L 5113 0 
L 5113 2094 
Q 5113 2597 4934 2840 
Q 4756 3084 4391 3084 
Q 3944 3084 3684 2787 
Q 3425 2491 3425 1978 
L 3425 0 
L 2847 0 
L 2847 2094 
Q 2847 2600 2669 2842 
Q 2491 3084 2119 3084 
Q 1678 3084 1418 2786 
Q 1159 2488 1159 1978 
L 1159 0 
L 581 0 
L 581 3500 
L 1159 3500 
L 1159 2956 
Q 1356 3278 1631 3431 
Q 1906 3584 2284 3584 
Q 2666 3584 2933 3390 
Q 3200 3197 3328 2828 
z
" transform="scale(0.015625)"/>
       <path id="DejaVuSans-65" d="M 3597 1894 
L 3597 1613 
L 953 1613 
Q 991 1019 1311 708 
Q 1631 397 2203 397 
Q 2534 397 2845 478 
Q 3156 559 3463 722 
L 3463 178 
Q 3153 47 2828 -22 
Q 2503 -91 2169 -91 
Q 1331 -91 842 396 
Q 353 884 353 1716 
Q 353 2575 817 3079 
Q 1281 3584 2069 3584 
Q 2775 3584 3186 3129 
Q 3597 2675 3597 1894 
z
M 3022 2063 
Q 3016 2534 2758 2815 
Q 2500 3097 2075 3097 
Q 1594 3097 1305 2825 
Q 1016 2553 972 2059 
L 3022 2063 
z
" transform="scale(0.015625)"/>
       <path id="DejaVuSans-20" transform="scale(0.015625)"/>
       <path id="DejaVuSans-28" d="M 1984 4856 
Q 1566 4138 1362 3434 
Q 1159 2731 1159 2009 
Q 1159 1288 1364 580 
Q 1569 -128 1984 -844 
L 1484 -844 
Q 1016 -109 783 600 
Q 550 1309 550 2009 
Q 550 2706 781 3412 
Q 1013 4119 1484 4856 
L 1984 4856 
z
" transform="scale(0.015625)"/>
       <path id="DejaVuSans-73" d="M 2834 3397 
L 2834 2853 
Q 2591 2978 2328 3040 
Q 2066 3103 1784 3103 
Q 1356 3103 1142 2972 
Q 928 2841 928 2578 
Q 928 2378 1081 2264 
Q 1234 2150 1697 2047 
L 1894 2003 
Q 2506 1872 2764 1633 
Q 3022 1394 3022 966 
Q 3022 478 2636 193 
Q 2250 -91 1575 -91 
Q 1294 -91 989 -36 
Q 684 19 347 128 
L 347 722 
Q 666 556 975 473 
Q 1284 391 1588 391 
Q 1994 391 2212 530 
Q 2431 669 2431 922 
Q 2431 1156 2273 1281 
Q 2116 1406 1581 1522 
L 1381 1569 
Q 847 1681 609 1914 
Q 372 2147 372 2553 
Q 372 3047 722 3315 
Q 1072 3584 1716 3584 
Q 2034 3584 2315 3537 
Q 2597 3491 2834 3397 
z
" transform="scale(0.015625)"/>
       <path id="DejaVuSans-29" d="M 513 4856 
L 1013 4856 
Q 1481 4119 1714 3412 
Q 1947 2706 1947 2009 
Q 1947 1309 1714 600 
Q 1481 -109 1013 -844 
L 513 -844 
Q 928 -128 1133 580 
Q 1338 1288 1338 2009 
Q 1338 2731 1133 3434 
Q 928 4138 513 4856 
z
" transform="scale(0.015625)"/>
      </defs>
      <use xlink:href="#DejaVuSans-74"/>
      <use xlink:href="#DejaVuSans-69" transform="translate(39.208984 0)"/>
      <use xlink:href="#DejaVuSans-6d" transform="translate(66.992188 0)"/>
      <use xlink:href="#DejaVuSans-65" transform="translate(164.404297 0)"/>
      <use xlink:href="#DejaVuSans-20" transform="translate(225.927734 0)"/>
      <use xlink:href="#DejaVuSans-28" transform="translate(257.714844 0)"/>
      <use xlink:href="#DejaVuSans-73" transform="translate(296.728516 0)"/>
      <use xlink:href="#DejaVuSans-29" transform="translate(348.828125 0)"/>
     </g>
    </g>
   </g>
   <g id="line2d_16">
    <path d="M 115.363636 369.36 
L 120.487603 367.739723 
L 125.61157 365.889617 
L 130.735537 363.890262 
L 135.859504 361.779924 
L 140.983471 359.581145 
L 146.107438 357.308818 
L 151.231405 354.973527 
L 156.355372 352.583189 
L 161.479339 350.143946 
L 166.603306 347.660707 
L 171.727273 345.137482 
L 176.85124 342.577612 
L 181.975207 339.983921 
L 187.099174 337.35883 
L 192.22314 334.704434 
L 197.347107 332.022569 
L 202.471074 329.314852 
L 207.595041 326.58272 
L 212.719008 323.82746 
L 217.842975 321.050229 
L 222.966942 318.252075 
L 228.090909 315.433948 
L 233.214876 312.596719 
L 238.338843 309.741182 
L 243.46281 306.868072 
L 248.586777 303.978064 
L 253.710744 301.071784 
L 258.834711 298.149814 
L 263.958678 295.212696 
L 269.082645 292.260933 
L 274.206612 289.294999 
L 279.330579 286.315337 
L 284.454545 283.322362 
L 289.578512 280.316468 
L 294.702479 277.298022 
L 299.826446 274.267373 
L 304.950413 271.224852 
L 310.07438 268.170771 
L 315.198347 265.105426 
L 320.322314 262.029099 
L 325.446281 258.942058 
L 330.570248 255.844558 
L 335.694215 252.736843 
L 340.818182 249.619144 
L 345.942149 246.491684 
L 351.066116 243.354674 
L 356.190083 240.208318 
L 361.31405 237.052811 
L 366.438017 233.88834 
L 371.561983 230.715083 
L 376.68595 227.533213 
L 381.809917 224.342896 
L 386.933884 221.144291 
L 392.057851 217.937551 
L 397.181818 214.722825 
L 402.305785 211.500255 
L 407.429752 208.269979 
L 412.553719 205.03213 
L 417.677686 201.786835 
L 422.801653 198.53422 
L 427.92562 195.274404 
L 433.049587 192.007503 
L 438.173554 188.73363 
L 443.297521 185.452893 
L 448.421488 182.165399 
L 453.545455 178.87125 
L 458.669421 175.570544 
L 463.793388 172.263379 
L 468.917355 168.949848 
L 474.041322 165.630043 
L 479.165289 162.30405 
L 484.289256 158.971957 
L 489.413223 155.633847 
L 494.53719 152.289801 
L 499.661157 148.939899 
L 504.785124 145.584217 
L 509.909091 142.22283 
L 515.033058 138.855812 
L 520.157025 135.483234 
L 525.280992 132.105166 
L 530.404959 128.721674 
L 535.528926 125.332827 
L 540.652893 121.938687 
L 545.77686 118.539318 
L 550.900826 115.134781 
L 556.024793 111.725137 
L 561.14876 108.310444 
L 566.272727 104.89076 
L 571.396694 101.46614 
L 576.520661 98.03664 
L 581.644628 94.602313 
L 586.768595 91.163212 
L 591.892562 87.719388 
L 597.016529 84.270891 
L 602.140496 80.81777 
L 607.264463 77.360074 
L 612.38843 73.89785 
L 617.512397 70.431143 
L 622.636364 66.96 
" clip-path="url(#pb038e773fe)" style="fill: none; stroke-dasharray: 5.55,2.4; stroke-dashoffset: 0; stroke: #ff0000; stroke-width: 1.5"/>
   </g>
   <g id="line2d_17">
    <path d="M 115.363636 368.337056 
L 120.487603 366.55668 
L 125.61157 364.614859 
L 130.735537 361.454916 
L 135.859504 360.368714 
L 140.983471 357.934151 
L 146.107438 356.113227 
L 151.231405 353.584487 
L 156.355372 350.545814 
L 161.479339 346.149436 
L 166.603306 342.663801 
L 171.727273 343.915557 
L 176.85124 341.909645 
L 181.975207 336.16341 
L 187.099174 335.819219 
L 192.22314 330.388399 
L 197.347107 329.069186 
L 202.471074 326.363867 
L 207.595041 322.835441 
L 212.719008 323.366676 
L 217.842975 316.334115 
L 222.966942 316.911131 
L 228.090909 314.218144 
L 233.214876 308.69184 
L 238.338843 304.9347 
L 243.46281 301.088243 
L 248.586777 300.982482 
L 253.710744 302.341308 
L 258.834711 292.245597 
L 263.958678 293.037871 
L 269.082645 292.268393 
L 274.206612 286.721909 
L 279.330579 280.193489 
L 284.454545 280.744905 
L 289.578512 277.61953 
L 294.702479 278.618843 
L 299.826446 272.050062 
L 304.950413 265.897973 
L 310.07438 259.4215 
L 315.198347 259.463543 
L 320.322314 258.109201 
L 325.446281 252.113138 
L 330.570248 257.012162 
L 335.694215 251.703547 
L 340.818182 250.42563 
L 345.942149 245.751208 
L 351.066116 244.39369 
L 356.190083 240.249943 
L 361.31405 242.001357 
L 366.438017 227.122099 
L 371.561983 228.667595 
L 376.68595 222.569882 
L 381.809917 223.115878 
L 386.933884 225.6207 
L 392.057851 207.988848 
L 397.181818 212.697277 
L 402.305785 212.370838 
L 407.429752 207.07306 
L 412.553719 206.464279 
L 417.677686 201.916547 
L 422.801653 201.287772 
L 427.92562 198.461556 
L 433.049587 184.329727 
L 438.173554 193.954932 
L 443.297521 185.246262 
L 448.421488 182.380058 
L 453.545455 175.152045 
L 458.669421 176.210404 
L 463.793388 169.77149 
L 468.917355 170.474633 
L 474.041322 166.298747 
L 479.165289 164.852659 
L 484.289256 153.516214 
L 489.413223 155.160932 
L 494.53719 145.462105 
L 499.661157 146.604177 
L 504.785124 143.083412 
L 509.909091 147.501839 
L 515.033058 148.598318 
L 520.157025 129.843453 
L 525.280992 134.769384 
L 530.404959 130.14747 
L 535.528926 125.394942 
L 540.652893 122.25929 
L 545.77686 119.389162 
L 550.900826 125.523686 
L 556.024793 117.030463 
L 561.14876 115.382195 
L 566.272727 113.821189 
L 571.396694 109.450037 
L 576.520661 103.184338 
L 581.644628 100.685683 
L 586.768595 81.238699 
L 591.892562 94.700458 
L 597.016529 96.63032 
L 602.140496 83.676626 
L 607.264463 89.017007 
L 612.38843 84.420878 
L 617.512397 77.096073 
L 622.636364 69.824709 
" clip-path="url(#pb038e773fe)" style="fill: none; stroke: #0000ff; stroke-width: 1.5; stroke-linecap: square"/>
    <defs>
     <path id="m256be3bee6" d="M 0 1.5 
C 0.397805 1.5 0.77937 1.341951 1.06066 1.06066 
C 1.341951 0.77937 1.5 0.397805 1.5 0 
C 1.5 -0.397805 1.341951 -0.77937 1.06066 -1.06066 
C 0.77937 -1.341951 0.397805 -1.5 0 -1.5 
C -0.397805 -1.5 -0.77937 -1.341951 -1.06066 -1.06066 
C -1.341951 -0.77937 -1.5 -0.397805 -1.5 0 
C -1.5 0.397805 -1.341951 0.77937 -1.06066 1.06066 
C -0.77937 1.341951 -0.397805 1.5 0 1.5 
z
" style="stroke: #0000ff"/>
    </defs>
    <g clip-path="url(#pb038e773fe)">
     <use xlink:href="#m256be3bee6" x="115.363636" y="368.337056" style="fill: #0000ff; stroke: #0000ff"/>
     <use xlink:href="#m256be3bee6" x="120.487603" y="366.55668" style="fill: #0000ff; stroke: #0000ff"/>
     <use xlink:href="#m256be3bee6" x="125.61157" y="364.614859" style="fill: #0000ff; stroke: #0000ff"/>
     <use xlink:href="#m256be3bee6" x="130.735537" y="361.454916" style="fill: #0000ff; stroke: #0000ff"/>
     <use xlink:href="#m256be3bee6" x="135.859504" y="360.368714" style="fill: #0000ff; stroke: #0000ff"/>
     <use xlink:href="#m256be3bee6" x="140.983471" y="357.934151" style="fill: #0000ff; stroke: #0000ff"/>
     <use xlink:href="#m256be3bee6" x="146.107438" y="356.113227" style="fill: #0000ff; stroke: #0000ff"/>
     <use xlink:href="#m256be3bee6" x="151.231405" y="353.584487" style="fill: #0000ff; stroke: #0000ff"/>
     <use xlink:href="#m256be3bee6" x="156.355372" y="350.545814" style="fill: #0000ff; stroke: #0000ff"/>
     <use xlink:href="#m256be3bee6" x="161.479339" y="346.149436" style="fill: #0000ff; stroke: #0000ff"/>
     <use xlink:href="#m256be3bee6" x="166.603306" y="342.663801" style="fill: #0000ff; stroke: #0000ff"/>
     <use xlink:href="#m256be3bee6" x="171.727273" y="343.915557" style="fill: #0000ff; stroke: #0000ff"/>
     <use xlink:href="#m256be3bee6" x="176.85124" y="341.909645" style="fill: #0000ff; stroke: #0000ff"/>
     <use xlink:href="#m256be3bee6" x="181.975207" y="336.16341" style="fill: #0000ff; stroke: #0000ff"/>
     <use xlink:href="#m256be3bee6" x="187.099174" y="335.819219" style="fill: #0000ff; stroke: #0000ff"/>
     <use xlink:href="#m256be3bee6" x="192.22314" y="330.388399" style="fill: #0000ff; stroke: #0000ff"/>
     <use xlink:href="#m256be3bee6" x="197.347107" y="329.069186" style="fill: #0000ff; stroke: #0000ff"/>
     <use xlink:href="#m256be3bee6" x="202.471074" y="326.363867" style="fill: #0000ff; stroke: #0000ff"/>
     <use xlink:href="#m256be3bee6" x="207.595041" y="322.835441" style="fill: #0000ff; stroke: #0000ff"/>
     <use xlink:href="#m256be3bee6" x="212.719008" y="323.366676" style="fill: #0000ff; stroke: #0000ff"/>
     <use xlink:href="#m256be3bee6" x="217.842975" y="316.334115" style="fill: #0000ff; stroke: #0000ff"/>
     <use xlink:href="#m256be3bee6" x="222.966942" y="316.911131" style="fill: #0000ff; stroke: #0000ff"/>
     <use xlink:href="#m256be3bee6" x="228.090909" y="314.218144" style="fill: #0000ff; stroke: #0000ff"/>
     <use xlink:href="#m256be3bee6" x="233.214876" y="308.69184" style="fill: #0000ff; stroke: #0000ff"/>
     <use xlink:href="#m256be3bee6" x="238.338843" y="304.9347" style="fill: #0000ff; stroke: #0000ff"/>
     <use xlink:href="#m256be3bee6" x="243.46281" y="301.088243" style="fill: #0000ff; stroke: #0000ff"/>
     <use xlink:href="#m256be3bee6" x="248.586777" y="300.982482" style="fill: #0000ff; stroke: #0000ff"/>
     <use xlink:href="#m256be3bee6" x="253.710744" y="302.341308" style="fill: #0000ff; stroke: #0000ff"/>
     <use xlink:href="#m256be3bee6" x="258.834711" y="292.245597" style="fill: #0000ff; stroke: #0000ff"/>
     <use xlink:href="#m256be3bee6" x="263.958678" y="293.037871" style="fill: #0000ff; stroke: #0000ff"/>
     <use xlink:href="#m256be3bee6" x="269.082645" y="292.268393" style="fill: #0000ff; stroke: #0000ff"/>
     <use xlink:href="#m256be3bee6" x="274.206612" y="286.721909" style="fill: #0000ff; stroke: #0000ff"/>
     <use xlink:href="#m256be3bee6" x="279.330579" y="280.193489" style="fill: #0000ff; stroke: #0000ff"/>
     <use xlink:href="#m256be3bee6" x="284.454545" y="280.744905" style="fill: #0000ff; stroke: #0000ff"/>
     <use xlink:href="#m256be3bee6" x="289.578512" y="277.61953" style="fill: #0000ff; stroke: #0000ff"/>
     <use xlink:href="#m256be3bee6" x="294.702479" y="278.618843" style="fill: #0000ff; stroke: #0000ff"/>
     <use xlink:href="#m256be3bee6" x="299.826446" y="272.050062" style="fill: #0000ff; stroke: #0000ff"/>
     <use xlink:href="#m256be3bee6" x="304.950413" y="265.897973" style="fill: #0000ff; stroke: #0000ff"/>
     <use xlink:href="#m256be3bee6" x="310.07438" y="259.4215" style="fill: #0000ff; stroke: #0000ff"/>
     <use xlink:href="#m256be3bee6" x="315.198347" y="259.463543" style="fill: #0000ff; stroke: #0000ff"/>
     <use xlink:href="#m256be3bee6" x="320.322314" y="258.109201" style="fill: #0000ff; stroke: #0000ff"/>
     <use xlink:href="#m256be3bee6" x="325.446281" y="252.113138" style="fill: #0000ff; stroke: #0000ff"/>
     <use xlink:href="#m256be3bee6" x="330.570248" y="257.012162" style="fill: #0000ff; stroke: #0000ff"/>
     <use xlink:href="#m256be3bee6" x="335.694215" y="251.703547" style="fill: #0000ff; stroke: #0000ff"/>
     <use xlink:href="#m256be3bee6" x="340.818182" y="250.42563" style="fill: #0000ff; stroke: #0000ff"/>
     <use xlink:href="#m256be3bee6" x="345.942149" y="245.751208" style="fill: #0000ff; stroke: #0000ff"/>
     <use xlink:href="#m256be3bee6" x="351.066116" y="244.39369" style="fill: #0000ff; stroke: #0000ff"/>
     <use xlink:href="#m256be3bee6" x="356.190083" y="240.249943" style="fill: #0000ff; stroke: #0000ff"/>
     <use xlink:href="#m256be3bee6" x="361.31405" y="242.001357" style="fill: #0000ff; stroke: #0000ff"/>
     <use xlink:href="#m256be3bee6" x="366.438017" y="227.122099" style="fill: #0000ff; stroke: #0000ff"/>
     <use xlink:href="#m256be3bee6" x="371.561983" y="228.667595" style="fill: #0000ff; stroke: #0000ff"/>
     <use xlink:href="#m256be3bee6" x="376.68595" y="222.569882" style="fill: #0000ff; stroke: #0000ff"/>
     <use xlink:href="#m256be3bee6" x="381.809917" y="223.115878" style="fill: #0000ff; stroke: #0000ff"/>
     <use xlink:href="#m256be3bee6" x="386.933884" y="225.6207" style="fill: #0000ff; stroke: #0000ff"/>
     <use xlink:href="#m256be3bee6" x="392.057851" y="207.988848" style="fill: #0000ff; stroke: #0000ff"/>
     <use xlink:href="#m256be3bee6" x="397.181818" y="212.697277" style="fill: #0000ff; stroke: #0000ff"/>
     <use xlink:href="#m256be3bee6" x="402.305785" y="212.370838" style="fill: #0000ff; stroke: #0000ff"/>
     <use xlink:href="#m256be3bee6" x="407.429752" y="207.07306" style="fill: #0000ff; stroke: #0000ff"/>
     <use xlink:href="#m256be3bee6" x="412.553719" y="206.464279" style="fill: #0000ff; stroke: #0000ff"/>
     <use xlink:href="#m256be3bee6" x="417.677686" y="201.916547" style="fill: #0000ff; stroke: #0000ff"/>
     <use xlink:href="#m256be3bee6" x="422.801653" y="201.287772" style="fill: #0000ff; stroke: #0000ff"/>
     <use xlink:href="#m256be3bee6" x="427.92562" y="198.461556" style="fill: #0000ff; stroke: #0000ff"/>
     <use xlink:href="#m256be3bee6" x="433.049587" y="184.329727" style="fill: #0000ff; stroke: #0000ff"/>
     <use xlink:href="#m256be3bee6" x="438.173554" y="193.954932" style="fill: #0000ff; stroke: #0000ff"/>
     <use xlink:href="#m256be3bee6" x="443.297521" y="185.246262" style="fill: #0000ff; stroke: #0000ff"/>
     <use xlink:href="#m256be3bee6" x="448.421488" y="182.380058" style="fill: #0000ff; stroke: #0000ff"/>
     <use xlink:href="#m256be3bee6" x="453.545455" y="175.152045" style="fill: #0000ff; stroke: #0000ff"/>
     <use xlink:href="#m256be3bee6" x="458.669421" y="176.210404" style="fill: #0000ff; stroke: #0000ff"/>
     <use xlink:href="#m256be3bee6" x="463.793388" y="169.77149" style="fill: #0000ff; stroke: #0000ff"/>
     <use xlink:href="#m256be3bee6" x="468.917355" y="170.474633" style="fill: #0000ff; stroke: #0000ff"/>
     <use xlink:href="#m256be3bee6" x="474.041322" y="166.298747" style="fill: #0000ff; stroke: #0000ff"/>
     <use xlink:href="#m256be3bee6" x="479.165289" y="164.852659" style="fill: #0000ff; stroke: #0000ff"/>
     <use xlink:href="#m256be3bee6" x="484.289256" y="153.516214" style="fill: #0000ff; stroke: #0000ff"/>
     <use xlink:href="#m256be3bee6" x="489.413223" y="155.160932" style="fill: #0000ff; stroke: #0000ff"/>
     <use xlink:href="#m256be3bee6" x="494.53719" y="145.462105" style="fill: #0000ff; stroke: #0000ff"/>
     <use xlink:href="#m256be3bee6" x="499.661157" y="146.604177" style="fill: #0000ff; stroke: #0000ff"/>
     <use xlink:href="#m256be3bee6" x="504.785124" y="143.083412" style="fill: #0000ff; stroke: #0000ff"/>
     <use xlink:href="#m256be3bee6" x="509.909091" y="147.501839" style="fill: #0000ff; stroke: #0000ff"/>
     <use xlink:href="#m256be3bee6" x="515.033058" y="148.598318" style="fill: #0000ff; stroke: #0000ff"/>
     <use xlink:href="#m256be3bee6" x="520.157025" y="129.843453" style="fill: #0000ff; stroke: #0000ff"/>
     <use xlink:href="#m256be3bee6" x="525.280992" y="134.769384" style="fill: #0000ff; stroke: #0000ff"/>
     <use xlink:href="#m256be3bee6" x="530.404959" y="130.14747" style="fill: #0000ff; stroke: #0000ff"/>
     <use xlink:href="#m256be3bee6" x="535.528926" y="125.394942" style="fill: #0000ff; stroke: #0000ff"/>
     <use xlink:href="#m256be3bee6" x="540.652893" y="122.25929" style="fill: #0000ff; stroke: #0000ff"/>
     <use xlink:href="#m256be3bee6" x="545.77686" y="119.389162" style="fill: #0000ff; stroke: #0000ff"/>
     <use xlink:href="#m256be3bee6" x="550.900826" y="125.523686" style="fill: #0000ff; stroke: #0000ff"/>
     <use xlink:href="#m256be3bee6" x="556.024793" y="117.030463" style="fill: #0000ff; stroke: #0000ff"/>
     <use xlink:href="#m256be3bee6" x="561.14876" y="115.382195" style="fill: #0000ff; stroke: #0000ff"/>
     <use xlink:href="#m256be3bee6" x="566.272727" y="113.821189" style="fill: #0000ff; stroke: #0000ff"/>
     <use xlink:href="#m256be3bee6" x="571.396694" y="109.450037" style="fill: #0000ff; stroke: #0000ff"/>
     <use xlink:href="#m256be3bee6" x="576.520661" y="103.184338" style="fill: #0000ff; stroke: #0000ff"/>
     <use xlink:href="#m256be3bee6" x="581.644628" y="100.685683" style="fill: #0000ff; stroke: #0000ff"/>
     <use xlink:href="#m256be3bee6" x="586.768595" y="81.238699" style="fill: #0000ff; stroke: #0000ff"/>
     <use xlink:href="#m256be3bee6" x="591.892562" y="94.700458" style="fill: #0000ff; stroke: #0000ff"/>
     <use xlink:href="#m256be3bee6" x="597.016529" y="96.63032" style="fill: #0000ff; stroke: #0000ff"/>
     <use xlink:href="#m256be3bee6" x="602.140496" y="83.676626" style="fill: #0000ff; stroke: #0000ff"/>
     <use xlink:href="#m256be3bee6" x="607.264463" y="89.017007" style="fill: #0000ff; stroke: #0000ff"/>
     <use xlink:href="#m256be3bee6" x="612.38843" y="84.420878" style="fill: #0000ff; stroke: #0000ff"/>
     <use xlink:href="#m256be3bee6" x="617.512397" y="77.096073" style="fill: #0000ff; stroke: #0000ff"/>
     <use xlink:href="#m256be3bee6" x="622.636364" y="69.824709" style="fill: #0000ff; stroke: #0000ff"/>
    </g>
   </g>
   <g id="line2d_18">
    <path d="M 115.363636 368.425813 
L 120.487603 366.382342 
L 125.61157 362.861577 
L 130.735537 362.503372 
L 135.859504 360.257534 
L 140.983471 356.272242 
L 146.107438 353.518153 
L 151.231405 352.170538 
L 156.355372 351.152166 
L 161.479339 348.84616 
L 166.603306 346.850712 
L 171.727273 342.495255 
L 176.85124 336.458457 
L 181.975207 336.264873 
L 187.099174 336.113332 
L 192.22314 330.684194 
L 197.347107 332.172138 
L 202.471074 328.953335 
L 207.595041 323.781312 
L 212.719008 323.579319 
L 217.842975 318.48914 
L 222.966942 318.900974 
L 228.090909 310.764461 
L 233.214876 309.817094 
L 238.338843 311.426683 
L 243.46281 307.418034 
L 248.586777 304.668242 
L 253.710744 302.981481 
L 258.834711 301.824087 
L 263.958678 296.193704 
L 269.082645 287.315367 
L 274.206612 289.928379 
L 279.330579 284.593604 
L 284.454545 286.50777 
L 289.578512 282.536306 
L 294.702479 276.752699 
L 299.826446 277.387827 
L 304.950413 269.460781 
L 310.07438 269.520949 
L 315.198347 267.323507 
L 320.322314 258.451898 
L 325.446281 259.262111 
L 330.570248 264.146934 
L 335.694215 254.100926 
L 340.818182 250.574182 
L 345.942149 243.415679 
L 351.066116 246.360924 
L 356.190083 238.084081 
L 361.31405 235.441358 
L 366.438017 239.899212 
L 371.561983 235.005233 
L 376.68595 224.651098 
L 381.809917 219.785334 
L 386.933884 221.67334 
L 392.057851 215.681388 
L 397.181818 220.057772 
L 402.305785 216.008201 
L 407.429752 206.348615 
L 412.553719 205.576894 
L 417.677686 203.705892 
L 422.801653 204.775463 
L 427.92562 197.68479 
L 433.049587 197.013225 
L 438.173554 196.74658 
L 443.297521 182.704255 
L 448.421488 183.847635 
L 453.545455 157.400977 
L 458.669421 180.623786 
L 463.793388 165.646241 
L 468.917355 178.155589 
L 474.041322 177.06864 
L 479.165289 170.114933 
L 484.289256 167.289651 
L 489.413223 160.717881 
L 494.53719 155.475974 
L 499.661157 149.26353 
L 504.785124 153.942996 
L 509.909091 145.890756 
L 515.033058 137.378099 
L 520.157025 147.779509 
L 525.280992 137.156299 
L 530.404959 130.669362 
L 535.528926 114.300478 
L 540.652893 134.201525 
L 545.77686 136.779034 
L 550.900826 121.522885 
L 556.024793 103.86562 
L 561.14876 120.410337 
L 566.272727 116.441675 
L 571.396694 111.066913 
L 576.520661 110.316868 
L 581.644628 104.128341 
L 586.768595 108.525654 
L 591.892562 104.452352 
L 597.016529 92.570845 
L 602.140496 96.952835 
L 607.264463 95.076601 
L 612.38843 86.8603 
L 617.512397 92.611767 
L 622.636364 78.466671 
" clip-path="url(#pb038e773fe)" style="fill: none; stroke: #008000; stroke-width: 1.5; stroke-linecap: square"/>
    <defs>
     <path id="m8c58478d5f" d="M 0 1.5 
C 0.397805 1.5 0.77937 1.341951 1.06066 1.06066 
C 1.341951 0.77937 1.5 0.397805 1.5 0 
C 1.5 -0.397805 1.341951 -0.77937 1.06066 -1.06066 
C 0.77937 -1.341951 0.397805 -1.5 0 -1.5 
C -0.397805 -1.5 -0.77937 -1.341951 -1.06066 -1.06066 
C -1.341951 -0.77937 -1.5 -0.397805 -1.5 0 
C -1.5 0.397805 -1.341951 0.77937 -1.06066 1.06066 
C -0.77937 1.341951 -0.397805 1.5 0 1.5 
z
" style="stroke: #008000"/>
    </defs>
    <g clip-path="url(#pb038e773fe)">
     <use xlink:href="#m8c58478d5f" x="115.363636" y="368.425813" style="fill: #008000; stroke: #008000"/>
     <use xlink:href="#m8c58478d5f" x="120.487603" y="366.382342" style="fill: #008000; stroke: #008000"/>
     <use xlink:href="#m8c58478d5f" x="125.61157" y="362.861577" style="fill: #008000; stroke: #008000"/>
     <use xlink:href="#m8c58478d5f" x="130.735537" y="362.503372" style="fill: #008000; stroke: #008000"/>
     <use xlink:href="#m8c58478d5f" x="135.859504" y="360.257534" style="fill: #008000; stroke: #008000"/>
     <use xlink:href="#m8c58478d5f" x="140.983471" y="356.272242" style="fill: #008000; stroke: #008000"/>
     <use xlink:href="#m8c58478d5f" x="146.107438" y="353.518153" style="fill: #008000; stroke: #008000"/>
     <use xlink:href="#m8c58478d5f" x="151.231405" y="352.170538" style="fill: #008000; stroke: #008000"/>
     <use xlink:href="#m8c58478d5f" x="156.355372" y="351.152166" style="fill: #008000; stroke: #008000"/>
     <use xlink:href="#m8c58478d5f" x="161.479339" y="348.84616" style="fill: #008000; stroke: #008000"/>
     <use xlink:href="#m8c58478d5f" x="166.603306" y="346.850712" style="fill: #008000; stroke: #008000"/>
     <use xlink:href="#m8c58478d5f" x="171.727273" y="342.495255" style="fill: #008000; stroke: #008000"/>
     <use xlink:href="#m8c58478d5f" x="176.85124" y="336.458457" style="fill: #008000; stroke: #008000"/>
     <use xlink:href="#m8c58478d5f" x="181.975207" y="336.264873" style="fill: #008000; stroke: #008000"/>
     <use xlink:href="#m8c58478d5f" x="187.099174" y="336.113332" style="fill: #008000; stroke: #008000"/>
     <use xlink:href="#m8c58478d5f" x="192.22314" y="330.684194" style="fill: #008000; stroke: #008000"/>
     <use xlink:href="#m8c58478d5f" x="197.347107" y="332.172138" style="fill: #008000; stroke: #008000"/>
     <use xlink:href="#m8c58478d5f" x="202.471074" y="328.953335" style="fill: #008000; stroke: #008000"/>
     <use xlink:href="#m8c58478d5f" x="207.595041" y="323.781312" style="fill: #008000; stroke: #008000"/>
     <use xlink:href="#m8c58478d5f" x="212.719008" y="323.579319" style="fill: #008000; stroke: #008000"/>
     <use xlink:href="#m8c58478d5f" x="217.842975" y="318.48914" style="fill: #008000; stroke: #008000"/>
     <use xlink:href="#m8c58478d5f" x="222.966942" y="318.900974" style="fill: #008000; stroke: #008000"/>
     <use xlink:href="#m8c58478d5f" x="228.090909" y="310.764461" style="fill: #008000; stroke: #008000"/>
     <use xlink:href="#m8c58478d5f" x="233.214876" y="309.817094" style="fill: #008000; stroke: #008000"/>
     <use xlink:href="#m8c58478d5f" x="238.338843" y="311.426683" style="fill: #008000; stroke: #008000"/>
     <use xlink:href="#m8c58478d5f" x="243.46281" y="307.418034" style="fill: #008000; stroke: #008000"/>
     <use xlink:href="#m8c58478d5f" x="248.586777" y="304.668242" style="fill: #008000; stroke: #008000"/>
     <use xlink:href="#m8c58478d5f" x="253.710744" y="302.981481" style="fill: #008000; stroke: #008000"/>
     <use xlink:href="#m8c58478d5f" x="258.834711" y="301.824087" style="fill: #008000; stroke: #008000"/>
     <use xlink:href="#m8c58478d5f" x="263.958678" y="296.193704" style="fill: #008000; stroke: #008000"/>
     <use xlink:href="#m8c58478d5f" x="269.082645" y="287.315367" style="fill: #008000; stroke: #008000"/>
     <use xlink:href="#m8c58478d5f" x="274.206612" y="289.928379" style="fill: #008000; stroke: #008000"/>
     <use xlink:href="#m8c58478d5f" x="279.330579" y="284.593604" style="fill: #008000; stroke: #008000"/>
     <use xlink:href="#m8c58478d5f" x="284.454545" y="286.50777" style="fill: #008000; stroke: #008000"/>
     <use xlink:href="#m8c58478d5f" x="289.578512" y="282.536306" style="fill: #008000; stroke: #008000"/>
     <use xlink:href="#m8c58478d5f" x="294.702479" y="276.752699" style="fill: #008000; stroke: #008000"/>
     <use xlink:href="#m8c58478d5f" x="299.826446" y="277.387827" style="fill: #008000; stroke: #008000"/>
     <use xlink:href="#m8c58478d5f" x="304.950413" y="269.460781" style="fill: #008000; stroke: #008000"/>
     <use xlink:href="#m8c58478d5f" x="310.07438" y="269.520949" style="fill: #008000; stroke: #008000"/>
     <use xlink:href="#m8c58478d5f" x="315.198347" y="267.323507" style="fill: #008000; stroke: #008000"/>
     <use xlink:href="#m8c58478d5f" x="320.322314" y="258.451898" style="fill: #008000; stroke: #008000"/>
     <use xlink:href="#m8c58478d5f" x="325.446281" y="259.262111" style="fill: #008000; stroke: #008000"/>
     <use xlink:href="#m8c58478d5f" x="330.570248" y="264.146934" style="fill: #008000; stroke: #008000"/>
     <use xlink:href="#m8c58478d5f" x="335.694215" y="254.100926" style="fill: #008000; stroke: #008000"/>
     <use xlink:href="#m8c58478d5f" x="340.818182" y="250.574182" style="fill: #008000; stroke: #008000"/>
     <use xlink:href="#m8c58478d5f" x="345.942149" y="243.415679" style="fill: #008000; stroke: #008000"/>
     <use xlink:href="#m8c58478d5f" x="351.066116" y="246.360924" style="fill: #008000; stroke: #008000"/>
     <use xlink:href="#m8c58478d5f" x="356.190083" y="238.084081" style="fill: #008000; stroke: #008000"/>
     <use xlink:href="#m8c58478d5f" x="361.31405" y="235.441358" style="fill: #008000; stroke: #008000"/>
     <use xlink:href="#m8c58478d5f" x="366.438017" y="239.899212" style="fill: #008000; stroke: #008000"/>
     <use xlink:href="#m8c58478d5f" x="371.561983" y="235.005233" style="fill: #008000; stroke: #008000"/>
     <use xlink:href="#m8c58478d5f" x="376.68595" y="224.651098" style="fill: #008000; stroke: #008000"/>
     <use xlink:href="#m8c58478d5f" x="381.809917" y="219.785334" style="fill: #008000; stroke: #008000"/>
     <use xlink:href="#m8c58478d5f" x="386.933884" y="221.67334" style="fill: #008000; stroke: #008000"/>
     <use xlink:href="#m8c58478d5f" x="392.057851" y="215.681388" style="fill: #008000; stroke: #008000"/>
     <use xlink:href="#m8c58478d5f" x="397.181818" y="220.057772" style="fill: #008000; stroke: #008000"/>
     <use xlink:href="#m8c58478d5f" x="402.305785" y="216.008201" style="fill: #008000; stroke: #008000"/>
     <use xlink:href="#m8c58478d5f" x="407.429752" y="206.348615" style="fill: #008000; stroke: #008000"/>
     <use xlink:href="#m8c58478d5f" x="412.553719" y="205.576894" style="fill: #008000; stroke: #008000"/>
     <use xlink:href="#m8c58478d5f" x="417.677686" y="203.705892" style="fill: #008000; stroke: #008000"/>
     <use xlink:href="#m8c58478d5f" x="422.801653" y="204.775463" style="fill: #008000; stroke: #008000"/>
     <use xlink:href="#m8c58478d5f" x="427.92562" y="197.68479" style="fill: #008000; stroke: #008000"/>
     <use xlink:href="#m8c58478d5f" x="433.049587" y="197.013225" style="fill: #008000; stroke: #008000"/>
     <use xlink:href="#m8c58478d5f" x="438.173554" y="196.74658" style="fill: #008000; stroke: #008000"/>
     <use xlink:href="#m8c58478d5f" x="443.297521" y="182.704255" style="fill: #008000; stroke: #008000"/>
     <use xlink:href="#m8c58478d5f" x="448.421488" y="183.847635" style="fill: #008000; stroke: #008000"/>
     <use xlink:href="#m8c58478d5f" x="453.545455" y="157.400977" style="fill: #008000; stroke: #008000"/>
     <use xlink:href="#m8c58478d5f" x="458.669421" y="180.623786" style="fill: #008000; stroke: #008000"/>
     <use xlink:href="#m8c58478d5f" x="463.793388" y="165.646241" style="fill: #008000; stroke: #008000"/>
     <use xlink:href="#m8c58478d5f" x="468.917355" y="178.155589" style="fill: #008000; stroke: #008000"/>
     <use xlink:href="#m8c58478d5f" x="474.041322" y="177.06864" style="fill: #008000; stroke: #008000"/>
     <use xlink:href="#m8c58478d5f" x="479.165289" y="170.114933" style="fill: #008000; stroke: #008000"/>
     <use xlink:href="#m8c58478d5f" x="484.289256" y="167.289651" style="fill: #008000; stroke: #008000"/>
     <use xlink:href="#m8c58478d5f" x="489.413223" y="160.717881" style="fill: #008000; stroke: #008000"/>
     <use xlink:href="#m8c58478d5f" x="494.53719" y="155.475974" style="fill: #008000; stroke: #008000"/>
     <use xlink:href="#m8c58478d5f" x="499.661157" y="149.26353" style="fill: #008000; stroke: #008000"/>
     <use xlink:href="#m8c58478d5f" x="504.785124" y="153.942996" style="fill: #008000; stroke: #008000"/>
     <use xlink:href="#m8c58478d5f" x="509.909091" y="145.890756" style="fill: #008000; stroke: #008000"/>
     <use xlink:href="#m8c58478d5f" x="515.033058" y="137.378099" style="fill: #008000; stroke: #008000"/>
     <use xlink:href="#m8c58478d5f" x="520.157025" y="147.779509" style="fill: #008000; stroke: #008000"/>
     <use xlink:href="#m8c58478d5f" x="525.280992" y="137.156299" style="fill: #008000; stroke: #008000"/>
     <use xlink:href="#m8c58478d5f" x="530.404959" y="130.669362" style="fill: #008000; stroke: #008000"/>
     <use xlink:href="#m8c58478d5f" x="535.528926" y="114.300478" style="fill: #008000; stroke: #008000"/>
     <use xlink:href="#m8c58478d5f" x="540.652893" y="134.201525" style="fill: #008000; stroke: #008000"/>
     <use xlink:href="#m8c58478d5f" x="545.77686" y="136.779034" style="fill: #008000; stroke: #008000"/>
     <use xlink:href="#m8c58478d5f" x="550.900826" y="121.522885" style="fill: #008000; stroke: #008000"/>
     <use xlink:href="#m8c58478d5f" x="556.024793" y="103.86562" style="fill: #008000; stroke: #008000"/>
     <use xlink:href="#m8c58478d5f" x="561.14876" y="120.410337" style="fill: #008000; stroke: #008000"/>
     <use xlink:href="#m8c58478d5f" x="566.272727" y="116.441675" style="fill: #008000; stroke: #008000"/>
     <use xlink:href="#m8c58478d5f" x="571.396694" y="111.066913" style="fill: #008000; stroke: #008000"/>
     <use xlink:href="#m8c58478d5f" x="576.520661" y="110.316868" style="fill: #008000; stroke: #008000"/>
     <use xlink:href="#m8c58478d5f" x="581.644628" y="104.128341" style="fill: #008000; stroke: #008000"/>
     <use xlink:href="#m8c58478d5f" x="586.768595" y="108.525654" style="fill: #008000; stroke: #008000"/>
     <use xlink:href="#m8c58478d5f" x="591.892562" y="104.452352" style="fill: #008000; stroke: #008000"/>
     <use xlink:href="#m8c58478d5f" x="597.016529" y="92.570845" style="fill: #008000; stroke: #008000"/>
     <use xlink:href="#m8c58478d5f" x="602.140496" y="96.952835" style="fill: #008000; stroke: #008000"/>
     <use xlink:href="#m8c58478d5f" x="607.264463" y="95.076601" style="fill: #008000; stroke: #008000"/>
     <use xlink:href="#m8c58478d5f" x="612.38843" y="86.8603" style="fill: #008000; stroke: #008000"/>
     <use xlink:href="#m8c58478d5f" x="617.512397" y="92.611767" style="fill: #008000; stroke: #008000"/>
     <use xlink:href="#m8c58478d5f" x="622.636364" y="78.466671" style="fill: #008000; stroke: #008000"/>
    </g>
   </g>
   <g id="patch_3">
    <path d="M 90 384.48 
L 90 51.84 
" style="fill: none; stroke: #000000; stroke-width: 0.8; stroke-linejoin: miter; stroke-linecap: square"/>
   </g>
   <g id="patch_4">
    <path d="M 648 384.48 
L 648 51.84 
" style="fill: none; stroke: #000000; stroke-width: 0.8; stroke-linejoin: miter; stroke-linecap: square"/>
   </g>
   <g id="patch_5">
    <path d="M 90 384.48 
L 648 384.48 
" style="fill: none; stroke: #000000; stroke-width: 0.8; stroke-linejoin: miter; stroke-linecap: square"/>
   </g>
   <g id="patch_6">
    <path d="M 90 51.84 
L 648 51.84 
" style="fill: none; stroke: #000000; stroke-width: 0.8; stroke-linejoin: miter; stroke-linecap: square"/>
   </g>
   <g id="text_18">
    <!-- Quick Sort &amp; Merge Sort vs O(N log N) -->
    <g transform="translate(254.564063 45.84) scale(0.12 -0.12)">
     <defs>
      <path id="DejaVuSans-51" d="M 2522 4238 
Q 1834 4238 1429 3725 
Q 1025 3213 1025 2328 
Q 1025 1447 1429 934 
Q 1834 422 2522 422 
Q 3209 422 3611 934 
Q 4013 1447 4013 2328 
Q 4013 3213 3611 3725 
Q 3209 4238 2522 4238 
z
M 3406 84 
L 4238 -825 
L 3475 -825 
L 2784 -78 
Q 2681 -84 2626 -87 
Q 2572 -91 2522 -91 
Q 1538 -91 948 567 
Q 359 1225 359 2328 
Q 359 3434 948 4092 
Q 1538 4750 2522 4750 
Q 3503 4750 4090 4092 
Q 4678 3434 4678 2328 
Q 4678 1516 4351 937 
Q 4025 359 3406 84 
z
" transform="scale(0.015625)"/>
      <path id="DejaVuSans-75" d="M 544 1381 
L 544 3500 
L 1119 3500 
L 1119 1403 
Q 1119 906 1312 657 
Q 1506 409 1894 409 
Q 2359 409 2629 706 
Q 2900 1003 2900 1516 
L 2900 3500 
L 3475 3500 
L 3475 0 
L 2900 0 
L 2900 538 
Q 2691 219 2414 64 
Q 2138 -91 1772 -91 
Q 1169 -91 856 284 
Q 544 659 544 1381 
z
M 1991 3584 
L 1991 3584 
z
" transform="scale(0.015625)"/>
      <path id="DejaVuSans-63" d="M 3122 3366 
L 3122 2828 
Q 2878 2963 2633 3030 
Q 2388 3097 2138 3097 
Q 1578 3097 1268 2742 
Q 959 2388 959 1747 
Q 959 1106 1268 751 
Q 1578 397 2138 397 
Q 2388 397 2633 464 
Q 2878 531 3122 666 
L 3122 134 
Q 2881 22 2623 -34 
Q 2366 -91 2075 -91 
Q 1284 -91 818 406 
Q 353 903 353 1747 
Q 353 2603 823 3093 
Q 1294 3584 2113 3584 
Q 2378 3584 2631 3529 
Q 2884 3475 3122 3366 
z
" transform="scale(0.015625)"/>
      <path id="DejaVuSans-6b" d="M 581 4863 
L 1159 4863 
L 1159 1991 
L 2875 3500 
L 3609 3500 
L 1753 1863 
L 3688 0 
L 2938 0 
L 1159 1709 
L 1159 0 
L 581 0 
L 581 4863 
z
" transform="scale(0.015625)"/>
      <path id="DejaVuSans-53" d="M 3425 4513 
L 3425 3897 
Q 3066 4069 2747 4153 
Q 2428 4238 2131 4238 
Q 1616 4238 1336 4038 
Q 1056 3838 1056 3469 
Q 1056 3159 1242 3001 
Q 1428 2844 1947 2747 
L 2328 2669 
Q 3034 2534 3370 2195 
Q 3706 1856 3706 1288 
Q 3706 609 3251 259 
Q 2797 -91 1919 -91 
Q 1588 -91 1214 -16 
Q 841 59 441 206 
L 441 856 
Q 825 641 1194 531 
Q 1563 422 1919 422 
Q 2459 422 2753 634 
Q 3047 847 3047 1241 
Q 3047 1584 2836 1778 
Q 2625 1972 2144 2069 
L 1759 2144 
Q 1053 2284 737 2584 
Q 422 2884 422 3419 
Q 422 4038 858 4394 
Q 1294 4750 2059 4750 
Q 2388 4750 2728 4690 
Q 3069 4631 3425 4513 
z
" transform="scale(0.015625)"/>
      <path id="DejaVuSans-6f" d="M 1959 3097 
Q 1497 3097 1228 2736 
Q 959 2375 959 1747 
Q 959 1119 1226 758 
Q 1494 397 1959 397 
Q 2419 397 2687 759 
Q 2956 1122 2956 1747 
Q 2956 2369 2687 2733 
Q 2419 3097 1959 3097 
z
M 1959 3584 
Q 2709 3584 3137 3096 
Q 3566 2609 3566 1747 
Q 3566 888 3137 398 
Q 2709 -91 1959 -91 
Q 1206 -91 779 398 
Q 353 888 353 1747 
Q 353 2609 779 3096 
Q 1206 3584 1959 3584 
z
" transform="scale(0.015625)"/>
      <path id="DejaVuSans-72" d="M 2631 2963 
Q 2534 3019 2420 3045 
Q 2306 3072 2169 3072 
Q 1681 3072 1420 2755 
Q 1159 2438 1159 1844 
L 1159 0 
L 581 0 
L 581 3500 
L 1159 3500 
L 1159 2956 
Q 1341 3275 1631 3429 
Q 1922 3584 2338 3584 
Q 2397 3584 2469 3576 
Q 2541 3569 2628 3553 
L 2631 2963 
z
" transform="scale(0.015625)"/>
      <path id="DejaVuSans-26" d="M 1556 2509 
Q 1272 2256 1139 2004 
Q 1006 1753 1006 1478 
Q 1006 1022 1337 719 
Q 1669 416 2169 416 
Q 2466 416 2725 514 
Q 2984 613 3213 813 
L 1556 2509 
z
M 1997 2859 
L 3584 1234 
Q 3769 1513 3872 1830 
Q 3975 2147 3994 2503 
L 4575 2503 
Q 4538 2091 4375 1687 
Q 4213 1284 3922 891 
L 4794 0 
L 4006 0 
L 3559 459 
Q 3234 181 2878 45 
Q 2522 -91 2113 -91 
Q 1359 -91 881 339 
Q 403 769 403 1441 
Q 403 1841 612 2192 
Q 822 2544 1241 2853 
Q 1091 3050 1012 3245 
Q 934 3441 934 3628 
Q 934 4134 1281 4442 
Q 1628 4750 2203 4750 
Q 2463 4750 2720 4694 
Q 2978 4638 3244 4525 
L 3244 3956 
Q 2972 4103 2725 4179 
Q 2478 4256 2266 4256 
Q 1938 4256 1733 4082 
Q 1528 3909 1528 3634 
Q 1528 3475 1620 3314 
Q 1713 3153 1997 2859 
z
" transform="scale(0.015625)"/>
      <path id="DejaVuSans-4d" d="M 628 4666 
L 1569 4666 
L 2759 1491 
L 3956 4666 
L 4897 4666 
L 4897 0 
L 4281 0 
L 4281 4097 
L 3078 897 
L 2444 897 
L 1241 4097 
L 1241 0 
L 628 0 
L 628 4666 
z
" transform="scale(0.015625)"/>
      <path id="DejaVuSans-67" d="M 2906 1791 
Q 2906 2416 2648 2759 
Q 2391 3103 1925 3103 
Q 1463 3103 1205 2759 
Q 947 2416 947 1791 
Q 947 1169 1205 825 
Q 1463 481 1925 481 
Q 2391 481 2648 825 
Q 2906 1169 2906 1791 
z
M 3481 434 
Q 3481 -459 3084 -895 
Q 2688 -1331 1869 -1331 
Q 1566 -1331 1297 -1286 
Q 1028 -1241 775 -1147 
L 775 -588 
Q 1028 -725 1275 -790 
Q 1522 -856 1778 -856 
Q 2344 -856 2625 -561 
Q 2906 -266 2906 331 
L 2906 616 
Q 2728 306 2450 153 
Q 2172 0 1784 0 
Q 1141 0 747 490 
Q 353 981 353 1791 
Q 353 2603 747 3093 
Q 1141 3584 1784 3584 
Q 2172 3584 2450 3431 
Q 2728 3278 2906 2969 
L 2906 3500 
L 3481 3500 
L 3481 434 
z
" transform="scale(0.015625)"/>
      <path id="DejaVuSans-76" d="M 191 3500 
L 800 3500 
L 1894 563 
L 2988 3500 
L 3597 3500 
L 2284 0 
L 1503 0 
L 191 3500 
z
" transform="scale(0.015625)"/>
      <path id="DejaVuSans-4f" d="M 2522 4238 
Q 1834 4238 1429 3725 
Q 1025 3213 1025 2328 
Q 1025 1447 1429 934 
Q 1834 422 2522 422 
Q 3209 422 3611 934 
Q 4013 1447 4013 2328 
Q 4013 3213 3611 3725 
Q 3209 4238 2522 4238 
z
M 2522 4750 
Q 3503 4750 4090 4092 
Q 4678 3434 4678 2328 
Q 4678 1225 4090 567 
Q 3503 -91 2522 -91 
Q 1538 -91 948 565 
Q 359 1222 359 2328 
Q 359 3434 948 4092 
Q 1538 4750 2522 4750 
z
" transform="scale(0.015625)"/>
      <path id="DejaVuSans-6c" d="M 603 4863 
L 1178 4863 
L 1178 0 
L 603 0 
L 603 4863 
z
" transform="scale(0.015625)"/>
     </defs>
     <use xlink:href="#DejaVuSans-51"/>
     <use xlink:href="#DejaVuSans-75" transform="translate(78.710938 0)"/>
     <use xlink:href="#DejaVuSans-69" transform="translate(142.089844 0)"/>
     <use xlink:href="#DejaVuSans-63" transform="translate(169.873047 0)"/>
     <use xlink:href="#DejaVuSans-6b" transform="translate(224.853516 0)"/>
     <use xlink:href="#DejaVuSans-20" transform="translate(282.763672 0)"/>
     <use xlink:href="#DejaVuSans-53" transform="translate(314.550781 0)"/>
     <use xlink:href="#DejaVuSans-6f" transform="translate(378.027344 0)"/>
     <use xlink:href="#DejaVuSans-72" transform="translate(439.208984 0)"/>
     <use xlink:href="#DejaVuSans-74" transform="translate(480.322266 0)"/>
     <use xlink:href="#DejaVuSans-20" transform="translate(519.53125 0)"/>
     <use xlink:href="#DejaVuSans-26" transform="translate(551.318359 0)"/>
     <use xlink:href="#DejaVuSans-20" transform="translate(629.296875 0)"/>
     <use xlink:href="#DejaVuSans-4d" transform="translate(661.083984 0)"/>
     <use xlink:href="#DejaVuSans-65" transform="translate(747.363281 0)"/>
     <use xlink:href="#DejaVuSans-72" transform="translate(808.886719 0)"/>
     <use xlink:href="#DejaVuSans-67" transform="translate(848.25 0)"/>
     <use xlink:href="#DejaVuSans-65" transform="translate(911.726562 0)"/>
     <use xlink:href="#DejaVuSans-20" transform="translate(973.25 0)"/>
     <use xlink:href="#DejaVuSans-53" transform="translate(1005.037109 0)"/>
     <use xlink:href="#DejaVuSans-6f" transform="translate(1068.513672 0)"/>
     <use xlink:href="#DejaVuSans-72" transform="translate(1129.695312 0)"/>
     <use xlink:href="#DejaVuSans-74" transform="translate(1170.808594 0)"/>
     <use xlink:href="#DejaVuSans-20" transform="translate(1210.017578 0)"/>
     <use xlink:href="#DejaVuSans-76" transform="translate(1241.804688 0)"/>
     <use xlink:href="#DejaVuSans-73" transform="translate(1300.984375 0)"/>
     <use xlink:href="#DejaVuSans-20" transform="translate(1353.083984 0)"/>
     <use xlink:href="#DejaVuSans-4f" transform="translate(1384.871094 0)"/>
     <use xlink:href="#DejaVuSans-28" transform="translate(1463.582031 0)"/>
     <use xlink:href="#DejaVuSans-4e" transform="translate(1502.595703 0)"/>
     <use xlink:href="#DejaVuSans-20" transform="translate(1577.400391 0)"/>
     <use xlink:href="#DejaVuSans-6c" transform="translate(1609.1875 0)"/>
     <use xlink:href="#DejaVuSans-6f" transform="translate(1636.970703 0)"/>
     <use xlink:href="#DejaVuSans-67" transform="translate(1698.152344 0)"/>
     <use xlink:href="#DejaVuSans-20" transform="translate(1761.628906 0)"/>
     <use xlink:href="#DejaVuSans-4e" transform="translate(1793.416016 0)"/>
     <use xlink:href="#DejaVuSans-29" transform="translate(1868.220703 0)"/>
    </g>
   </g>
   <g id="legend_1">
    <g id="patch_7">
     <path d="M 97 103.89625 
L 183.895312 103.89625 
Q 185.895312 103.89625 185.895312 101.89625 
L 185.895312 58.84 
Q 185.895312 56.84 183.895312 56.84 
L 97 56.84 
Q 95 56.84 95 58.84 
L 95 101.89625 
Q 95 103.89625 97 103.89625 
z
" style="fill: #ffffff; opacity: 0.8; stroke: #cccccc; stroke-linejoin: miter"/>
    </g>
    <g id="line2d_19">
     <path d="M 99 64.94 
L 109 64.94 
L 119 64.94 
" style="fill: none; stroke-dasharray: 5.55,2.4; stroke-dashoffset: 0; stroke: #ff0000; stroke-width: 1.5"/>
    </g>
    <g id="text_19">
     <!-- $O(N \log N)$ -->
     <g transform="translate(127 68.44) scale(0.1 -0.1)">
      <defs>
       <path id="DejaVuSans-Oblique-4f" d="M 2919 4238 
Q 2400 4238 2003 3986 
Q 1606 3734 1313 3219 
Q 1125 2891 1026 2522 
Q 928 2153 928 1778 
Q 928 1128 1239 775 
Q 1550 422 2119 422 
Q 2631 422 3032 676 
Q 3434 931 3719 1434 
Q 3909 1772 4009 2142 
Q 4109 2513 4109 2881 
Q 4109 3528 3796 3883 
Q 3484 4238 2919 4238 
z
M 2100 -91 
Q 1241 -91 748 418 
Q 256 928 256 1813 
Q 256 2319 448 2847 
Q 641 3375 978 3788 
Q 1375 4272 1862 4511 
Q 2350 4750 2938 4750 
Q 3794 4750 4287 4245 
Q 4781 3741 4781 2869 
Q 4781 2331 4593 1812 
Q 4406 1294 4056 872 
Q 3656 384 3173 146 
Q 2691 -91 2100 -91 
z
" transform="scale(0.015625)"/>
       <path id="DejaVuSans-Oblique-4e" d="M 1081 4666 
L 1931 4666 
L 3219 666 
L 4000 4666 
L 4616 4666 
L 3706 0 
L 2853 0 
L 1569 4025 
L 788 0 
L 172 0 
L 1081 4666 
z
" transform="scale(0.015625)"/>
      </defs>
      <use xlink:href="#DejaVuSans-Oblique-4f" transform="translate(0 0.015625)"/>
      <use xlink:href="#DejaVuSans-28" transform="translate(78.710938 0.015625)"/>
      <use xlink:href="#DejaVuSans-Oblique-4e" transform="translate(117.724609 0.015625)"/>
      <use xlink:href="#DejaVuSans-6c" transform="translate(192.529297 0.015625)"/>
      <use xlink:href="#DejaVuSans-6f" transform="translate(220.3125 0.015625)"/>
      <use xlink:href="#DejaVuSans-67" transform="translate(281.494141 0.015625)"/>
      <use xlink:href="#DejaVuSans-Oblique-4e" transform="translate(361.206379 0.015625)"/>
      <use xlink:href="#DejaVuSans-29" transform="translate(436.011067 0.015625)"/>
     </g>
    </g>
    <g id="line2d_20">
     <path d="M 99 79.638438 
L 109 79.638438 
L 119 79.638438 
" style="fill: none; stroke: #0000ff; stroke-width: 1.5; stroke-linecap: square"/>
     <g>
      <use xlink:href="#m256be3bee6" x="109" y="79.638438" style="fill: #0000ff; stroke: #0000ff"/>
     </g>
    </g>
    <g id="text_20">
     <!-- Quick Sort -->
     <g transform="translate(127 83.138438) scale(0.1 -0.1)">
      <use xlink:href="#DejaVuSans-51"/>
      <use xlink:href="#DejaVuSans-75" transform="translate(78.710938 0)"/>
      <use xlink:href="#DejaVuSans-69" transform="translate(142.089844 0)"/>
      <use xlink:href="#DejaVuSans-63" transform="translate(169.873047 0)"/>
      <use xlink:href="#DejaVuSans-6b" transform="translate(224.853516 0)"/>
      <use xlink:href="#DejaVuSans-20" transform="translate(282.763672 0)"/>
      <use xlink:href="#DejaVuSans-53" transform="translate(314.550781 0)"/>
      <use xlink:href="#DejaVuSans-6f" transform="translate(378.027344 0)"/>
      <use xlink:href="#DejaVuSans-72" transform="translate(439.208984 0)"/>
      <use xlink:href="#DejaVuSans-74" transform="translate(480.322266 0)"/>
     </g>
    </g>
    <g id="line2d_21">
     <path d="M 99 94.316563 
L 109 94.316563 
L 119 94.316563 
" style="fill: none; stroke: #008000; stroke-width: 1.5; stroke-linecap: square"/>
     <g>
      <use xlink:href="#m8c58478d5f" x="109" y="94.316563" style="fill: #008000; stroke: #008000"/>
     </g>
    </g>
    <g id="text_21">
     <!-- Merge Sort -->
     <g transform="translate(127 97.816563) scale(0.1 -0.1)">
      <use xlink:href="#DejaVuSans-4d"/>
      <use xlink:href="#DejaVuSans-65" transform="translate(86.279297 0)"/>
      <use xlink:href="#DejaVuSans-72" transform="translate(147.802734 0)"/>
      <use xlink:href="#DejaVuSans-67" transform="translate(187.166016 0)"/>
      <use xlink:href="#DejaVuSans-65" transform="translate(250.642578 0)"/>
      <use xlink:href="#DejaVuSans-20" transform="translate(312.166016 0)"/>
      <use xlink:href="#DejaVuSans-53" transform="translate(343.953125 0)"/>
      <use xlink:href="#DejaVuSans-6f" transform="translate(407.429688 0)"/>
      <use xlink:href="#DejaVuSans-72" transform="translate(468.611328 0)"/>
      <use xlink:href="#DejaVuSans-74" transform="translate(509.724609 0)"/>
     </g>
    </g>
   </g>
  </g>
 </g>
 <defs>
  <clipPath id="pb038e773fe">
   <rect x="90" y="51.84" width="558" height="332.64"/>
  </clipPath>
 </defs>
</svg>
