<?xml version="1.0" encoding="utf-8" standalone="no"?>
<!DOCTYPE svg PUBLIC "-//W3C//DTD SVG 1.1//EN"
  "http://www.w3.org/Graphics/SVG/1.1/DTD/svg11.dtd">
<svg xmlns:xlink="http://www.w3.org/1999/xlink" width="720pt" height="432pt" viewBox="0 0 720 432" xmlns="http://www.w3.org/2000/svg" version="1.1">
 <metadata>
  <rdf:RDF xmlns:dc="http://purl.org/dc/elements/1.1/" xmlns:cc="http://creativecommons.org/ns#" xmlns:rdf="http://www.w3.org/1999/02/22-rdf-syntax-ns#">
   <cc:Work>
    <dc:type rdf:resource="http://purl.org/dc/dcmitype/StillImage"/>
    <dc:date>2026-03-31T23:31:34.002878</dc:date>
    <dc:format>image/svg+xml</dc:format>
    <dc:creator>
     <cc:Agent>
      <dc:title>Matplotlib v3.10.7, https://matplotlib.org/</dc:title>
     </cc:Agent>
    </dc:creator>
   </cc:Work>
  </rdf:RDF>
 </metadata>
 <defs>
  <style type="text/css">*{stroke-linejoin: round; stroke-linecap: butt}</style>
 </defs>
 <g id="figure_1">
  <g id="patch_1">
   <path d="M 0 432 
L 720 432 
L 720 0 
L 0 0 
z
" style="fill: #ffffff"/>
  </g>
  <g id="axes_1">
   <g id="patch_2">
    <path d="M 90 384.48 
L 648 384.48 
L 648 51.84 
L 90 51.84 
z
" style="fill: #ffffff"/>
   </g>
   <g id="matplotlib.axis_1">
    <g id="xtick_1">
     <g id="line2d_1">
      <path d="M 110.187384 384.48 
L 110.187384 51.84 
" clip-path="url(#pa3b90ed1d5)" style="fill: none; stroke: #b0b0b0; stroke-opacity: 0.3; stroke-width: 0.8; stroke-linecap: square"/>
     </g>
     <g id="line2d_2">
      <defs>
       <path id="mf5c9c88452" d="M 0 0 
L 0 3.5 
" style="stroke: #000000; stroke-width: 0.8"/>
      </defs>
      <g>
       <use xlink:href="#mf5c9c88452" x="110.187384" y="384.48" style="stroke: #000000; stroke-width: 0.8"/>
      </g>
     </g>
     <g id="text_1">
      <!-- 0 -->
      <g transform="translate(107.006134 399.078438) scale(0.1 -0.1)">
       <defs>
        <path id="DejaVuSans-30" d="M 2034 4250 
Q 1547 4250 1301 3770 
Q 1056 3291 1056 2328 
Q 1056 1369 1301 889 
Q 1547 409 2034 409 
Q 2525 409 2770 889 
Q 3016 1369 3016 2328 
Q 3016 3291 2770 3770 
Q 2525 4250 2034 4250 
z
M 2034 4750 
Q 2819 4750 3233 4129 
Q 3647 3509 3647 2328 
Q 3647 1150 3233 529 
Q 2819 -91 2034 -91 
Q 1250 -91 836 529 
Q 422 1150 422 2328 
Q 422 3509 836 4129 
Q 1250 4750 2034 4750 
z
" transform="scale(0.015625)"/>
       </defs>
       <use xlink:href="#DejaVuSans-30"/>
      </g>
     </g>
    </g>
    <g id="xtick_2">
     <g id="line2d_3">
      <path d="M 213.71243 384.48 
L 213.71243 51.84 
" clip-path="url(#pa3b90ed1d5)" style="fill: none; stroke: #b0b0b0; stroke-opacity: 0.3; stroke-width: 0.8; stroke-linecap: square"/>
     </g>
     <g id="line2d_4">
      <g>
       <use xlink:href="#mf5c9c88452" x="213.71243" y="384.48" style="stroke: #000000; stroke-width: 0.8"/>
      </g>
     </g>
     <g id="text_2">
      <!-- 200 -->
      <g transform="translate(204.16868 399.078438) scale(0.1 -0.1)">
       <defs>
        <path id="DejaVuSans-32" d="M 1228 531 
L 3431 531 
L 3431 0 
L 469 0 
L 469 531 
Q 828 903 1448 1529 
Q 2069 2156 2228 2338 
Q 2531 2678 2651 2914 
Q 2772 3150 2772 3378 
Q 2772 3750 2511 3984 
Q 2250 4219 1831 4219 
Q 1534 4219 1204 4116 
Q 875 4013 500 3803 
L 500 4441 
Q 881 4594 1212 4672 
Q 1544 4750 1819 4750 
Q 2544 4750 2975 4387 
Q 3406 4025 3406 3419 
Q 3406 3131 3298 2873 
Q 3191 2616 2906 2266 
Q 2828 2175 2409 1742 
Q 1991 1309 1228 531 
z
" transform="scale(0.015625)"/>
       </defs>
       <use xlink:href="#DejaVuSans-32"/>
       <use xlink:href="#DejaVuSans-30" transform="translate(63.623047 0)"/>
       <use xlink:href="#DejaVuSans-30" transform="translate(127.246094 0)"/>
      </g>
     </g>
    </g>
    <g id="xtick_3">
     <g id="line2d_5">
      <path d="M 317.237477 384.48 
L 317.237477 51.84 
" clip-path="url(#pa3b90ed1d5)" style="fill: none; stroke: #b0b0b0; stroke-opacity: 0.3; stroke-width: 0.8; stroke-linecap: square"/>
     </g>
     <g id="line2d_6">
      <g>
       <use xlink:href="#mf5c9c88452" x="317.237477" y="384.48" style="stroke: #000000; stroke-width: 0.8"/>
      </g>
     </g>
     <g id="text_3">
      <!-- 400 -->
      <g transform="translate(307.693727 399.078438) scale(0.1 -0.1)">
       <defs>
        <path id="DejaVuSans-34" d="M 2419 4116 
L 825 1625 
L 2419 1625 
L 2419 4116 
z
M 2253 4666 
L 3047 4666 
L 3047 1625 
L 3713 1625 
L 3713 1100 
L 3047 1100 
L 3047 0 
L 2419 0 
L 2419 1100 
L 313 1100 
L 313 1709 
L 2253 4666 
z
" transform="scale(0.015625)"/>
       </defs>
       <use xlink:href="#DejaVuSans-34"/>
       <use xlink:href="#DejaVuSans-30" transform="translate(63.623047 0)"/>
       <use xlink:href="#DejaVuSans-30" transform="translate(127.246094 0)"/>
      </g>
     </g>
    </g>
    <g id="xtick_4">
     <g id="line2d_7">
      <path d="M 420.762523 384.48 
L 420.762523 51.84 
" clip-path="url(#pa3b90ed1d5)" style="fill: none; stroke: #b0b0b0; stroke-opacity: 0.3; stroke-width: 0.8; stroke-linecap: square"/>
     </g>
     <g id="line2d_8">
      <g>
       <use xlink:href="#mf5c9c88452" x="420.762523" y="384.48" style="stroke: #000000; stroke-width: 0.8"/>
      </g>
     </g>
     <g id="text_4">
      <!-- 600 -->
      <g transform="translate(411.218773 399.078438) scale(0.1 -0.1)">
       <defs>
        <path id="DejaVuSans-36" d="M 2113 2584 
Q 1688 2584 1439 2293 
Q 1191 2003 1191 1497 
Q 1191 994 1439 701 
Q 1688 409 2113 409 
Q 2538 409 2786 701 
Q 3034 994 3034 1497 
Q 3034 2003 2786 2293 
Q 2538 2584 2113 2584 
z
M 3366 4563 
L 3366 3988 
Q 3128 4100 2886 4159 
Q 2644 4219 2406 4219 
Q 1781 4219 1451 3797 
Q 1122 3375 1075 2522 
Q 1259 2794 1537 2939 
Q 1816 3084 2150 3084 
Q 2853 3084 3261 2657 
Q 3669 2231 3669 1497 
Q 3669 778 3244 343 
Q 2819 -91 2113 -91 
Q 1303 -91 875 529 
Q 447 1150 447 2328 
Q 447 3434 972 4092 
Q 1497 4750 2381 4750 
Q 2619 4750 2861 4703 
Q 3103 4656 3366 4563 
z
" transform="scale(0.015625)"/>
       </defs>
       <use xlink:href="#DejaVuSans-36"/>
       <use xlink:href="#DejaVuSans-30" transform="translate(63.623047 0)"/>
       <use xlink:href="#DejaVuSans-30" transform="translate(127.246094 0)"/>
      </g>
     </g>
    </g>
    <g id="xtick_5">
     <g id="line2d_9">
      <path d="M 524.28757 384.48 
L 524.28757 51.84 
" clip-path="url(#pa3b90ed1d5)" style="fill: none; stroke: #b0b0b0; stroke-opacity: 0.3; stroke-width: 0.8; stroke-linecap: square"/>
     </g>
     <g id="line2d_10">
      <g>
       <use xlink:href="#mf5c9c88452" x="524.28757" y="384.48" style="stroke: #000000; stroke-width: 0.8"/>
      </g>
     </g>
     <g id="text_5">
      <!-- 800 -->
      <g transform="translate(514.74382 399.078438) scale(0.1 -0.1)">
       <defs>
        <path id="DejaVuSans-38" d="M 2034 2216 
Q 1584 2216 1326 1975 
Q 1069 1734 1069 1313 
Q 1069 891 1326 650 
Q 1584 409 2034 409 
Q 2484 409 2743 651 
Q 3003 894 3003 1313 
Q 3003 1734 2745 1975 
Q 2488 2216 2034 2216 
z
M 1403 2484 
Q 997 2584 770 2862 
Q 544 3141 544 3541 
Q 544 4100 942 4425 
Q 1341 4750 2034 4750 
Q 2731 4750 3128 4425 
Q 3525 4100 3525 3541 
Q 3525 3141 3298 2862 
Q 3072 2584 2669 2484 
Q 3125 2378 3379 2068 
Q 3634 1759 3634 1313 
Q 3634 634 3220 271 
Q 2806 -91 2034 -91 
Q 1263 -91 848 271 
Q 434 634 434 1313 
Q 434 1759 690 2068 
Q 947 2378 1403 2484 
z
M 1172 3481 
Q 1172 3119 1398 2916 
Q 1625 2713 2034 2713 
Q 2441 2713 2670 2916 
Q 2900 3119 2900 3481 
Q 2900 3844 2670 4047 
Q 2441 4250 2034 4250 
Q 1625 4250 1398 4047 
Q 1172 3844 1172 3481 
z
" transform="scale(0.015625)"/>
       </defs>
       <use xlink:href="#DejaVuSans-38"/>
       <use xlink:href="#DejaVuSans-30" transform="translate(63.623047 0)"/>
       <use xlink:href="#DejaVuSans-30" transform="translate(127.246094 0)"/>
      </g>
     </g>
    </g>
    <g id="xtick_6">
     <g id="line2d_11">
      <path d="M 627.812616 384.48 
L 627.812616 51.84 
" clip-path="url(#pa3b90ed1d5)" style="fill: none; stroke: #b0b0b0; stroke-opacity: 0.3; stroke-width: 0.8; stroke-linecap: square"/>
     </g>
     <g id="line2d_12">
      <g>
       <use xlink:href="#mf5c9c88452" x="627.812616" y="384.48" style="stroke: #000000; stroke-width: 0.8"/>
      </g>
     </g>
     <g id="text_6">
      <!-- 1000 -->
      <g transform="translate(615.087616 399.078438) scale(0.1 -0.1)">
       <defs>
        <path id="DejaVuSans-31" d="M 794 531 
L 1825 531 
L 1825 4091 
L 703 3866 
L 703 4441 
L 1819 4666 
L 2450 4666 
L 2450 531 
L 3481 531 
L 3481 0 
L 794 0 
L 794 531 
z
" transform="scale(0.015625)"/>
       </defs>
       <use xlink:href="#DejaVuSans-31"/>
       <use xlink:href="#DejaVuSans-30" transform="translate(63.623047 0)"/>
       <use xlink:href="#DejaVuSans-30" transform="translate(127.246094 0)"/>
       <use xlink:href="#DejaVuSans-30" transform="translate(190.869141 0)"/>
      </g>
     </g>
    </g>
    <g id="text_7">
     <!-- N -->
     <g transform="translate(365.259375 412.756563) scale(0.1 -0.1)">
      <defs>
       <path id="DejaVuSans-4e" d="M 628 4666 
L 1478 4666 
L 3547 763 
L 3547 4666 
L 4159 4666 
L 4159 0 
L 3309 0 
L 1241 3903 
L 1241 0 
L 628 0 
L 628 4666 
z
" transform="scale(0.015625)"/>
      </defs>
      <use xlink:href="#DejaVuSans-4e"/>
     </g>
    </g>
   </g>
   <g id="matplotlib.axis_2">
    <g id="ytick_1">
     <g id="line2d_13">
      <path d="M 90 369.390796 
L 648 369.390796 
" clip-path="url(#pa3b90ed1d5)" style="fill: none; stroke: #b0b0b0; stroke-opacity: 0.3; stroke-width: 0.8; stroke-linecap: square"/>
     </g>
     <g id="line2d_14">
      <defs>
       <path id="m499c299b5e" d="M 0 0 
L -3.5 0 
" style="stroke: #000000; stroke-width: 0.8"/>
      </defs>
      <g>
       <use xlink:href="#m499c299b5e" x="90" y="369.390796" style="stroke: #000000; stroke-width: 0.8"/>
      </g>
     </g>
     <g id="text_8">
      <!-- 0.00 -->
      <g transform="translate(60.734375 373.190015) scale(0.1 -0.1)">
       <defs>
        <path id="DejaVuSans-2e" d="M 684 794 
L 1344 794 
L 1344 0 
L 684 0 
L 684 794 
z
" transform="scale(0.015625)"/>
       </defs>
       <use xlink:href="#DejaVuSans-30"/>
       <use xlink:href="#DejaVuSans-2e" transform="translate(63.623047 0)"/>
       <use xlink:href="#DejaVuSans-30" transform="translate(95.410156 0)"/>
       <use xlink:href="#DejaVuSans-30" transform="translate(159.033203 0)"/>
      </g>
     </g>
    </g>
    <g id="ytick_2">
     <g id="line2d_15">
      <path d="M 90 322.477367 
L 648 322.477367 
" clip-path="url(#pa3b90ed1d5)" style="fill: none; stroke: #b0b0b0; stroke-opacity: 0.3; stroke-width: 0.8; stroke-linecap: square"/>
     </g>
     <g id="line2d_16">
      <g>
       <use xlink:href="#m499c299b5e" x="90" y="322.477367" style="stroke: #000000; stroke-width: 0.8"/>
      </g>
     </g>
     <g id="text_9">
      <!-- 0.01 -->
      <g transform="translate(60.734375 326.276586) scale(0.1 -0.1)">
       <use xlink:href="#DejaVuSans-30"/>
       <use xlink:href="#DejaVuSans-2e" transform="translate(63.623047 0)"/>
       <use xlink:href="#DejaVuSans-30" transform="translate(95.410156 0)"/>
       <use xlink:href="#DejaVuSans-31" transform="translate(159.033203 0)"/>
      </g>
     </g>
    </g>
    <g id="ytick_3">
     <g id="line2d_17">
      <path d="M 90 275.563939 
L 648 275.563939 
" clip-path="url(#pa3b90ed1d5)" style="fill: none; stroke: #b0b0b0; stroke-opacity: 0.3; stroke-width: 0.8; stroke-linecap: square"/>
     </g>
     <g id="line2d_18">
      <g>
       <use xlink:href="#m499c299b5e" x="90" y="275.563939" style="stroke: #000000; stroke-width: 0.8"/>
      </g>
     </g>
     <g id="text_10">
      <!-- 0.02 -->
      <g transform="translate(60.734375 279.363157) scale(0.1 -0.1)">
       <use xlink:href="#DejaVuSans-30"/>
       <use xlink:href="#DejaVuSans-2e" transform="translate(63.623047 0)"/>
       <use xlink:href="#DejaVuSans-30" transform="translate(95.410156 0)"/>
       <use xlink:href="#DejaVuSans-32" transform="translate(159.033203 0)"/>
      </g>
     </g>
    </g>
    <g id="ytick_4">
     <g id="line2d_19">
      <path d="M 90 228.65051 
L 648 228.65051 
" clip-path="url(#pa3b90ed1d5)" style="fill: none; stroke: #b0b0b0; stroke-opacity: 0.3; stroke-width: 0.8; stroke-linecap: square"/>
     </g>
     <g id="line2d_20">
      <g>
       <use xlink:href="#m499c299b5e" x="90" y="228.65051" style="stroke: #000000; stroke-width: 0.8"/>
      </g>
     </g>
     <g id="text_11">
      <!-- 0.03 -->
      <g transform="translate(60.734375 232.449729) scale(0.1 -0.1)">
       <defs>
        <path id="DejaVuSans-33" d="M 2597 2516 
Q 3050 2419 3304 2112 
Q 3559 1806 3559 1356 
Q 3559 666 3084 287 
Q 2609 -91 1734 -91 
Q 1441 -91 1130 -33 
Q 819 25 488 141 
L 488 750 
Q 750 597 1062 519 
Q 1375 441 1716 441 
Q 2309 441 2620 675 
Q 2931 909 2931 1356 
Q 2931 1769 2642 2001 
Q 2353 2234 1838 2234 
L 1294 2234 
L 1294 2753 
L 1863 2753 
Q 2328 2753 2575 2939 
Q 2822 3125 2822 3475 
Q 2822 3834 2567 4026 
Q 2313 4219 1838 4219 
Q 1578 4219 1281 4162 
Q 984 4106 628 3988 
L 628 4550 
Q 988 4650 1302 4700 
Q 1616 4750 1894 4750 
Q 2613 4750 3031 4423 
Q 3450 4097 3450 3541 
Q 3450 3153 3228 2886 
Q 3006 2619 2597 2516 
z
" transform="scale(0.015625)"/>
       </defs>
       <use xlink:href="#DejaVuSans-30"/>
       <use xlink:href="#DejaVuSans-2e" transform="translate(63.623047 0)"/>
       <use xlink:href="#DejaVuSans-30" transform="translate(95.410156 0)"/>
       <use xlink:href="#DejaVuSans-33" transform="translate(159.033203 0)"/>
      </g>
     </g>
    </g>
    <g id="ytick_5">
     <g id="line2d_21">
      <path d="M 90 181.737081 
L 648 181.737081 
" clip-path="url(#pa3b90ed1d5)" style="fill: none; stroke: #b0b0b0; stroke-opacity: 0.3; stroke-width: 0.8; stroke-linecap: square"/>
     </g>
     <g id="line2d_22">
      <g>
       <use xlink:href="#m499c299b5e" x="90" y="181.737081" style="stroke: #000000; stroke-width: 0.8"/>
      </g>
     </g>
     <g id="text_12">
      <!-- 0.04 -->
      <g transform="translate(60.734375 185.5363) scale(0.1 -0.1)">
       <use xlink:href="#DejaVuSans-30"/>
       <use xlink:href="#DejaVuSans-2e" transform="translate(63.623047 0)"/>
       <use xlink:href="#DejaVuSans-30" transform="translate(95.410156 0)"/>
       <use xlink:href="#DejaVuSans-34" transform="translate(159.033203 0)"/>
      </g>
     </g>
    </g>
    <g id="ytick_6">
     <g id="line2d_23">
      <path d="M 90 134.823652 
L 648 134.823652 
" clip-path="url(#pa3b90ed1d5)" style="fill: none; stroke: #b0b0b0; stroke-opacity: 0.3; stroke-width: 0.8; stroke-linecap: square"/>
     </g>
     <g id="line2d_24">
      <g>
       <use xlink:href="#m499c299b5e" x="90" y="134.823652" style="stroke: #000000; stroke-width: 0.8"/>
      </g>
     </g>
     <g id="text_13">
      <!-- 0.05 -->
      <g transform="translate(60.734375 138.622871) scale(0.1 -0.1)">
       <defs>
        <path id="DejaVuSans-35" d="M 691 4666 
L 3169 4666 
L 3169 4134 
L 1269 4134 
L 1269 2991 
Q 1406 3038 1543 3061 
Q 1681 3084 1819 3084 
Q 2600 3084 3056 2656 
Q 3513 2228 3513 1497 
Q 3513 744 3044 326 
Q 2575 -91 1722 -91 
Q 1428 -91 1123 -41 
Q 819 9 494 109 
L 494 744 
Q 775 591 1075 516 
Q 1375 441 1709 441 
Q 2250 441 2565 725 
Q 2881 1009 2881 1497 
Q 2881 1984 2565 2268 
Q 2250 2553 1709 2553 
Q 1456 2553 1204 2497 
Q 953 2441 691 2322 
L 691 4666 
z
" transform="scale(0.015625)"/>
       </defs>
       <use xlink:href="#DejaVuSans-30"/>
       <use xlink:href="#DejaVuSans-2e" transform="translate(63.623047 0)"/>
       <use xlink:href="#DejaVuSans-30" transform="translate(95.410156 0)"/>
       <use xlink:href="#DejaVuSans-35" transform="translate(159.033203 0)"/>
      </g>
     </g>
    </g>
    <g id="ytick_7">
     <g id="line2d_25">
      <path d="M 90 87.910224 
L 648 87.910224 
" clip-path="url(#pa3b90ed1d5)" style="fill: none; stroke: #b0b0b0; stroke-opacity: 0.3; stroke-width: 0.8; stroke-linecap: square"/>
     </g>
     <g id="line2d_26">
      <g>
       <use xlink:href="#m499c299b5e" x="90" y="87.910224" style="stroke: #000000; stroke-width: 0.8"/>
      </g>
     </g>
     <g id="text_14">
      <!-- 0.06 -->
      <g transform="translate(60.734375 91.709442) scale(0.1 -0.1)">
       <use xlink:href="#DejaVuSans-30"/>
       <use xlink:href="#DejaVuSans-2e" transform="translate(63.623047 0)"/>
       <use xlink:href="#DejaVuSans-30" transform="translate(95.410156 0)"/>
       <use xlink:href="#DejaVuSans-36" transform="translate(159.033203 0)"/>
      </g>
     </g>
    </g>
    <g id="text_15">
     <!-- time (s) -->
     <g transform="translate(54.654687 237.551406) rotate(-90) scale(0.1 -0.1)">
      <defs>
       <path id="DejaVuSans-74" d="M 1172 4494 
L 1172 3500 
L 2356 3500 
L 2356 3053 
L 1172 3053 
L 1172 1153 
Q 1172 725 1289 603 
Q 1406 481 1766 481 
L 2356 481 
L 2356 0 
L 1766 0 
Q 1100 0 847 248 
Q 594 497 594 1153 
L 594 3053 
L 172 3053 
L 172 3500 
L 594 3500 
L 594 4494 
L 1172 4494 
z
" transform="scale(0.015625)"/>
       <path id="DejaVuSans-69" d="M 603 3500 
L 1178 3500 
L 1178 0 
L 603 0 
L 603 3500 
z
M 603 4863 
L 1178 4863 
L 1178 4134 
L 603 4134 
L 603 4863 
z
" transform="scale(0.015625)"/>
       <path id="DejaVuSans-6d" d="M 3328 2828 
Q 3544 3216 3844 3400 
Q 4144 3584 4550 3584 
Q 5097 3584 5394 3201 
Q 5691 2819 5691 2113 
L 5691 0 
L 5113 0 
L 5113 2094 
Q 5113 2597 4934 2840 
Q 4756 3084 4391 3084 
Q 3944 3084 3684 2787 
Q 3425 2491 3425 1978 
L 3425 0 
L 2847 0 
L 2847 2094 
Q 2847 2600 2669 2842 
Q 2491 3084 2119 3084 
Q 1678 3084 1418 2786 
Q 1159 2488 1159 1978 
L 1159 0 
L 581 0 
L 581 3500 
L 1159 3500 
L 1159 2956 
Q 1356 3278 1631 3431 
Q 1906 3584 2284 3584 
Q 2666 3584 2933 3390 
Q 3200 3197 3328 2828 
z
" transform="scale(0.015625)"/>
       <path id="DejaVuSans-65" d="M 3597 1894 
L 3597 1613 
L 953 1613 
Q 991 1019 1311 708 
Q 1631 397 2203 397 
Q 2534 397 2845 478 
Q 3156 559 3463 722 
L 3463 178 
Q 3153 47 2828 -22 
Q 2503 -91 2169 -91 
Q 1331 -91 842 396 
Q 353 884 353 1716 
Q 353 2575 817 3079 
Q 1281 3584 2069 3584 
Q 2775 3584 3186 3129 
Q 3597 2675 3597 1894 
z
M 3022 2063 
Q 3016 2534 2758 2815 
Q 2500 3097 2075 3097 
Q 1594 3097 1305 2825 
Q 1016 2553 972 2059 
L 3022 2063 
z
" transform="scale(0.015625)"/>
       <path id="DejaVuSans-20" transform="scale(0.015625)"/>
       <path id="DejaVuSans-28" d="M 1984 4856 
Q 1566 4138 1362 3434 
Q 1159 2731 1159 2009 
Q 1159 1288 1364 580 
Q 1569 -128 1984 -844 
L 1484 -844 
Q 1016 -109 783 600 
Q 550 1309 550 2009 
Q 550 2706 781 3412 
Q 1013 4119 1484 4856 
L 1984 4856 
z
" transform="scale(0.015625)"/>
       <path id="DejaVuSans-73" d="M 2834 3397 
L 2834 2853 
Q 2591 2978 2328 3040 
Q 2066 3103 1784 3103 
Q 1356 3103 1142 2972 
Q 928 2841 928 2578 
Q 928 2378 1081 2264 
Q 1234 2150 1697 2047 
L 1894 2003 
Q 2506 1872 2764 1633 
Q 3022 1394 3022 966 
Q 3022 478 2636 193 
Q 2250 -91 1575 -91 
Q 1294 -91 989 -36 
Q 684 19 347 128 
L 347 722 
Q 666 556 975 473 
Q 1284 391 1588 391 
Q 1994 391 2212 530 
Q 2431 669 2431 922 
Q 2431 1156 2273 1281 
Q 2116 1406 1581 1522 
L 1381 1569 
Q 847 1681 609 1914 
Q 372 2147 372 2553 
Q 372 3047 722 3315 
Q 1072 3584 1716 3584 
Q 2034 3584 2315 3537 
Q 2597 3491 2834 3397 
z
" transform="scale(0.015625)"/>
       <path id="DejaVuSans-29" d="M 513 4856 
L 1013 4856 
Q 1481 4119 1714 3412 
Q 1947 2706 1947 2009 
Q 1947 1309 1714 600 
Q 1481 -109 1013 -844 
L 513 -844 
Q 928 -128 1133 580 
Q 1338 1288 1338 2009 
Q 1338 2731 1133 3434 
Q 928 4138 513 4856 
z
" transform="scale(0.015625)"/>
      </defs>
      <use xlink:href="#DejaVuSans-74"/>
      <use xlink:href="#DejaVuSans-69" transform="translate(39.208984 0)"/>
      <use xlink:href="#DejaVuSans-6d" transform="translate(66.992188 0)"/>
      <use xlink:href="#DejaVuSans-65" transform="translate(164.404297 0)"/>
      <use xlink:href="#DejaVuSans-20" transform="translate(225.927734 0)"/>
      <use xlink:href="#DejaVuSans-28" transform="translate(257.714844 0)"/>
      <use xlink:href="#DejaVuSans-73" transform="translate(296.728516 0)"/>
      <use xlink:href="#DejaVuSans-29" transform="translate(348.828125 0)"/>
     </g>
    </g>
   </g>
   <g id="line2d_27">
    <path d="M 115.363636 369.36 
L 125.716141 369.113631 
L 136.068646 368.620894 
L 146.42115 367.881788 
L 156.773655 366.896314 
L 167.12616 365.664471 
L 177.478664 364.186259 
L 187.831169 362.461678 
L 198.183673 360.490729 
L 208.536178 358.273412 
L 218.888683 355.809725 
L 229.241187 353.09967 
L 239.593692 350.143247 
L 249.946197 346.940455 
L 260.298701 343.491294 
L 270.651206 339.795764 
L 281.003711 335.853866 
L 291.356215 331.6656 
L 301.70872 327.230964 
L 312.061224 322.54996 
L 322.413729 317.622588 
L 332.766234 312.448846 
L 343.118738 307.028736 
L 353.471243 301.362258 
L 363.823748 295.449411 
L 374.176252 289.290195 
L 384.528757 282.884611 
L 394.881262 276.232658 
L 405.233766 269.334336 
L 415.586271 262.189646 
L 425.938776 254.798587 
L 436.29128 247.161159 
L 446.643785 239.277363 
L 456.996289 231.147198 
L 467.348794 222.770665 
L 477.701299 214.147763 
L 488.053803 205.278492 
L 498.406308 196.162853 
L 508.758813 186.800845 
L 519.111317 177.192468 
L 529.463822 167.337723 
L 539.816327 157.236609 
L 550.168831 146.889127 
L 560.521336 136.295276 
L 570.87384 125.455056 
L 581.226345 114.368467 
L 591.57885 103.03551 
L 601.931354 91.456185 
L 612.283859 79.630491 
L 622.636364 67.558428 
" clip-path="url(#pa3b90ed1d5)" style="fill: none; stroke-dasharray: 5.55,2.4; stroke-dashoffset: 0; stroke: #ff0000; stroke-width: 1.5"/>
   </g>
   <g id="line2d_28">
    <path d="M 115.363636 369.323757 
L 125.716141 368.991234 
L 136.068646 367.988694 
L 146.42115 367.08228 
L 156.773655 366.424741 
L 167.12616 365.075746 
L 177.478664 363.826113 
L 187.831169 362.068314 
L 198.183673 360.061029 
L 208.536178 357.54722 
L 218.888683 354.258354 
L 229.241187 352.460678 
L 239.593692 349.141694 
L 249.946197 344.250499 
L 260.298701 342.393244 
L 270.651206 337.45021 
L 281.003711 332.325857 
L 291.356215 321.551718 
L 301.70872 318.597392 
L 312.061224 322.122045 
L 322.413729 311.27491 
L 332.766234 301.242661 
L 343.118738 298.462899 
L 353.471243 293.16764 
L 363.823748 284.670867 
L 374.176252 278.405532 
L 384.528757 273.343995 
L 394.881262 266.938154 
L 405.233766 252.96194 
L 415.586271 247.341242 
L 425.938776 238.591372 
L 436.29128 246.725175 
L 446.643785 219.442858 
L 456.996289 246.651333 
L 467.348794 203.243088 
L 477.701299 214.340413 
L 488.053803 199.212286 
L 498.406308 176.2856 
L 508.758813 162.402556 
L 519.111317 179.374005 
L 529.463822 170.055215 
L 539.816327 132.581284 
L 550.168831 146.181628 
L 560.521336 136.615745 
L 570.87384 151.414211 
L 581.226345 117.555007 
L 591.57885 159.52437 
L 601.931354 123.118846 
L 612.283859 80.721914 
L 622.636364 66.96 
" clip-path="url(#pa3b90ed1d5)" style="fill: none; stroke: #0000ff; stroke-width: 1.5; stroke-linecap: square"/>
    <defs>
     <path id="mdc8e4ec60c" d="M 0 1.5 
C 0.397805 1.5 0.77937 1.341951 1.06066 1.06066 
C 1.341951 0.77937 1.5 0.397805 1.5 0 
C 1.5 -0.397805 1.341951 -0.77937 1.06066 -1.06066 
C 0.77937 -1.341951 0.397805 -1.5 0 -1.5 
C -0.397805 -1.5 -0.77937 -1.341951 -1.06066 -1.06066 
C -1.341951 -0.77937 -1.5 -0.397805 -1.5 0 
C -1.5 0.397805 -1.341951 0.77937 -1.06066 1.06066 
C -0.77937 1.341951 -0.397805 1.5 0 1.5 
z
" style="stroke: #0000ff"/>
    </defs>
    <g clip-path="url(#pa3b90ed1d5)">
     <use xlink:href="#mdc8e4ec60c" x="115.363636" y="369.323757" style="fill: #0000ff; stroke: #0000ff"/>
     <use xlink:href="#mdc8e4ec60c" x="125.716141" y="368.991234" style="fill: #0000ff; stroke: #0000ff"/>
     <use xlink:href="#mdc8e4ec60c" x="136.068646" y="367.988694" style="fill: #0000ff; stroke: #0000ff"/>
     <use xlink:href="#mdc8e4ec60c" x="146.42115" y="367.08228" style="fill: #0000ff; stroke: #0000ff"/>
     <use xlink:href="#mdc8e4ec60c" x="156.773655" y="366.424741" style="fill: #0000ff; stroke: #0000ff"/>
     <use xlink:href="#mdc8e4ec60c" x="167.12616" y="365.075746" style="fill: #0000ff; stroke: #0000ff"/>
     <use xlink:href="#mdc8e4ec60c" x="177.478664" y="363.826113" style="fill: #0000ff; stroke: #0000ff"/>
     <use xlink:href="#mdc8e4ec60c" x="187.831169" y="362.068314" style="fill: #0000ff; stroke: #0000ff"/>
     <use xlink:href="#mdc8e4ec60c" x="198.183673" y="360.061029" style="fill: #0000ff; stroke: #0000ff"/>
     <use xlink:href="#mdc8e4ec60c" x="208.536178" y="357.54722" style="fill: #0000ff; stroke: #0000ff"/>
     <use xlink:href="#mdc8e4ec60c" x="218.888683" y="354.258354" style="fill: #0000ff; stroke: #0000ff"/>
     <use xlink:href="#mdc8e4ec60c" x="229.241187" y="352.460678" style="fill: #0000ff; stroke: #0000ff"/>
     <use xlink:href="#mdc8e4ec60c" x="239.593692" y="349.141694" style="fill: #0000ff; stroke: #0000ff"/>
     <use xlink:href="#mdc8e4ec60c" x="249.946197" y="344.250499" style="fill: #0000ff; stroke: #0000ff"/>
     <use xlink:href="#mdc8e4ec60c" x="260.298701" y="342.393244" style="fill: #0000ff; stroke: #0000ff"/>
     <use xlink:href="#mdc8e4ec60c" x="270.651206" y="337.45021" style="fill: #0000ff; stroke: #0000ff"/>
     <use xlink:href="#mdc8e4ec60c" x="281.003711" y="332.325857" style="fill: #0000ff; stroke: #0000ff"/>
     <use xlink:href="#mdc8e4ec60c" x="291.356215" y="321.551718" style="fill: #0000ff; stroke: #0000ff"/>
     <use xlink:href="#mdc8e4ec60c" x="301.70872" y="318.597392" style="fill: #0000ff; stroke: #0000ff"/>
     <use xlink:href="#mdc8e4ec60c" x="312.061224" y="322.122045" style="fill: #0000ff; stroke: #0000ff"/>
     <use xlink:href="#mdc8e4ec60c" x="322.413729" y="311.27491" style="fill: #0000ff; stroke: #0000ff"/>
     <use xlink:href="#mdc8e4ec60c" x="332.766234" y="301.242661" style="fill: #0000ff; stroke: #0000ff"/>
     <use xlink:href="#mdc8e4ec60c" x="343.118738" y="298.462899" style="fill: #0000ff; stroke: #0000ff"/>
     <use xlink:href="#mdc8e4ec60c" x="353.471243" y="293.16764" style="fill: #0000ff; stroke: #0000ff"/>
     <use xlink:href="#mdc8e4ec60c" x="363.823748" y="284.670867" style="fill: #0000ff; stroke: #0000ff"/>
     <use xlink:href="#mdc8e4ec60c" x="374.176252" y="278.405532" style="fill: #0000ff; stroke: #0000ff"/>
     <use xlink:href="#mdc8e4ec60c" x="384.528757" y="273.343995" style="fill: #0000ff; stroke: #0000ff"/>
     <use xlink:href="#mdc8e4ec60c" x="394.881262" y="266.938154" style="fill: #0000ff; stroke: #0000ff"/>
     <use xlink:href="#mdc8e4ec60c" x="405.233766" y="252.96194" style="fill: #0000ff; stroke: #0000ff"/>
     <use xlink:href="#mdc8e4ec60c" x="415.586271" y="247.341242" style="fill: #0000ff; stroke: #0000ff"/>
     <use xlink:href="#mdc8e4ec60c" x="425.938776" y="238.591372" style="fill: #0000ff; stroke: #0000ff"/>
     <use xlink:href="#mdc8e4ec60c" x="436.29128" y="246.725175" style="fill: #0000ff; stroke: #0000ff"/>
     <use xlink:href="#mdc8e4ec60c" x="446.643785" y="219.442858" style="fill: #0000ff; stroke: #0000ff"/>
     <use xlink:href="#mdc8e4ec60c" x="456.996289" y="246.651333" style="fill: #0000ff; stroke: #0000ff"/>
     <use xlink:href="#mdc8e4ec60c" x="467.348794" y="203.243088" style="fill: #0000ff; stroke: #0000ff"/>
     <use xlink:href="#mdc8e4ec60c" x="477.701299" y="214.340413" style="fill: #0000ff; stroke: #0000ff"/>
     <use xlink:href="#mdc8e4ec60c" x="488.053803" y="199.212286" style="fill: #0000ff; stroke: #0000ff"/>
     <use xlink:href="#mdc8e4ec60c" x="498.406308" y="176.2856" style="fill: #0000ff; stroke: #0000ff"/>
     <use xlink:href="#mdc8e4ec60c" x="508.758813" y="162.402556" style="fill: #0000ff; stroke: #0000ff"/>
     <use xlink:href="#mdc8e4ec60c" x="519.111317" y="179.374005" style="fill: #0000ff; stroke: #0000ff"/>
     <use xlink:href="#mdc8e4ec60c" x="529.463822" y="170.055215" style="fill: #0000ff; stroke: #0000ff"/>
     <use xlink:href="#mdc8e4ec60c" x="539.816327" y="132.581284" style="fill: #0000ff; stroke: #0000ff"/>
     <use xlink:href="#mdc8e4ec60c" x="550.168831" y="146.181628" style="fill: #0000ff; stroke: #0000ff"/>
     <use xlink:href="#mdc8e4ec60c" x="560.521336" y="136.615745" style="fill: #0000ff; stroke: #0000ff"/>
     <use xlink:href="#mdc8e4ec60c" x="570.87384" y="151.414211" style="fill: #0000ff; stroke: #0000ff"/>
     <use xlink:href="#mdc8e4ec60c" x="581.226345" y="117.555007" style="fill: #0000ff; stroke: #0000ff"/>
     <use xlink:href="#mdc8e4ec60c" x="591.57885" y="159.52437" style="fill: #0000ff; stroke: #0000ff"/>
     <use xlink:href="#mdc8e4ec60c" x="601.931354" y="123.118846" style="fill: #0000ff; stroke: #0000ff"/>
     <use xlink:href="#mdc8e4ec60c" x="612.283859" y="80.721914" style="fill: #0000ff; stroke: #0000ff"/>
     <use xlink:href="#mdc8e4ec60c" x="622.636364" y="66.96" style="fill: #0000ff; stroke: #0000ff"/>
    </g>
   </g>
   <g id="line2d_29">
    <path d="M 115.363636 369.321411 
L 125.716141 368.903553 
L 136.068646 368.06779 
L 146.42115 367.366341 
L 156.773655 366.402786 
L 167.12616 365.152402 
L 177.478664 363.511418 
L 187.831169 360.549163 
L 198.183673 359.693603 
L 208.536178 356.832869 
L 218.888683 355.177575 
L 229.241187 352.100711 
L 239.593692 348.524594 
L 249.946197 345.487935 
L 260.298701 340.439534 
L 270.651206 337.01415 
L 281.003711 332.798556 
L 291.356215 326.501273 
L 301.70872 321.725157 
L 312.061224 317.722926 
L 322.413729 310.233009 
L 332.766234 306.481905 
L 343.118738 297.765953 
L 353.471243 293.308708 
L 363.823748 287.179234 
L 374.176252 270.479837 
L 384.528757 274.685344 
L 394.881262 264.250343 
L 405.233766 257.538345 
L 415.586271 247.772799 
L 425.938776 244.219013 
L 436.29128 246.019269 
L 446.643785 234.268018 
L 456.996289 231.370973 
L 467.348794 239.919491 
L 477.701299 210.113888 
L 488.053803 183.466685 
L 498.406308 177.143177 
L 508.758813 180.63607 
L 519.111317 217.881673 
L 529.463822 160.354409 
L 539.816327 172.162332 
L 550.168831 116.733834 
L 560.521336 157.66627 
L 570.87384 96.759973 
L 581.226345 81.534829 
L 591.57885 103.50922 
L 601.931354 94.701271 
L 612.283859 83.304169 
L 622.636364 164.84182 
" clip-path="url(#pa3b90ed1d5)" style="fill: none; stroke: #008000; stroke-width: 1.5; stroke-linecap: square"/>
    <defs>
     <path id="md97ae108a0" d="M 0 1.5 
C 0.397805 1.5 0.77937 1.341951 1.06066 1.06066 
C 1.341951 0.77937 1.5 0.397805 1.5 0 
C 1.5 -0.397805 1.341951 -0.77937 1.06066 -1.06066 
C 0.77937 -1.341951 0.397805 -1.5 0 -1.5 
C -0.397805 -1.5 -0.77937 -1.341951 -1.06066 -1.06066 
C -1.341951 -0.77937 -1.5 -0.397805 -1.5 0 
C -1.5 0.397805 -1.341951 0.77937 -1.06066 1.06066 
C -0.77937 1.341951 -0.397805 1.5 0 1.5 
z
" style="stroke: #008000"/>
    </defs>
    <g clip-path="url(#pa3b90ed1d5)">
     <use xlink:href="#md97ae108a0" x="115.363636" y="369.321411" style="fill: #008000; stroke: #008000"/>
     <use xlink:href="#md97ae108a0" x="125.716141" y="368.903553" style="fill: #008000; stroke: #008000"/>
     <use xlink:href="#md97ae108a0" x="136.068646" y="368.06779" style="fill: #008000; stroke: #008000"/>
     <use xlink:href="#md97ae108a0" x="146.42115" y="367.366341" style="fill: #008000; stroke: #008000"/>
     <use xlink:href="#md97ae108a0" x="156.773655" y="366.402786" style="fill: #008000; stroke: #008000"/>
     <use xlink:href="#md97ae108a0" x="167.12616" y="365.152402" style="fill: #008000; stroke: #008000"/>
     <use xlink:href="#md97ae108a0" x="177.478664" y="363.511418" style="fill: #008000; stroke: #008000"/>
     <use xlink:href="#md97ae108a0" x="187.831169" y="360.549163" style="fill: #008000; stroke: #008000"/>
     <use xlink:href="#md97ae108a0" x="198.183673" y="359.693603" style="fill: #008000; stroke: #008000"/>
     <use xlink:href="#md97ae108a0" x="208.536178" y="356.832869" style="fill: #008000; stroke: #008000"/>
     <use xlink:href="#md97ae108a0" x="218.888683" y="355.177575" style="fill: #008000; stroke: #008000"/>
     <use xlink:href="#md97ae108a0" x="229.241187" y="352.100711" style="fill: #008000; stroke: #008000"/>
     <use xlink:href="#md97ae108a0" x="239.593692" y="348.524594" style="fill: #008000; stroke: #008000"/>
     <use xlink:href="#md97ae108a0" x="249.946197" y="345.487935" style="fill: #008000; stroke: #008000"/>
     <use xlink:href="#md97ae108a0" x="260.298701" y="340.439534" style="fill: #008000; stroke: #008000"/>
     <use xlink:href="#md97ae108a0" x="270.651206" y="337.01415" style="fill: #008000; stroke: #008000"/>
     <use xlink:href="#md97ae108a0" x="281.003711" y="332.798556" style="fill: #008000; stroke: #008000"/>
     <use xlink:href="#md97ae108a0" x="291.356215" y="326.501273" style="fill: #008000; stroke: #008000"/>
     <use xlink:href="#md97ae108a0" x="301.70872" y="321.725157" style="fill: #008000; stroke: #008000"/>
     <use xlink:href="#md97ae108a0" x="312.061224" y="317.722926" style="fill: #008000; stroke: #008000"/>
     <use xlink:href="#md97ae108a0" x="322.413729" y="310.233009" style="fill: #008000; stroke: #008000"/>
     <use xlink:href="#md97ae108a0" x="332.766234" y="306.481905" style="fill: #008000; stroke: #008000"/>
     <use xlink:href="#md97ae108a0" x="343.118738" y="297.765953" style="fill: #008000; stroke: #008000"/>
     <use xlink:href="#md97ae108a0" x="353.471243" y="293.308708" style="fill: #008000; stroke: #008000"/>
     <use xlink:href="#md97ae108a0" x="363.823748" y="287.179234" style="fill: #008000; stroke: #008000"/>
     <use xlink:href="#md97ae108a0" x="374.176252" y="270.479837" style="fill: #008000; stroke: #008000"/>
     <use xlink:href="#md97ae108a0" x="384.528757" y="274.685344" style="fill: #008000; stroke: #008000"/>
     <use xlink:href="#md97ae108a0" x="394.881262" y="264.250343" style="fill: #008000; stroke: #008000"/>
     <use xlink:href="#md97ae108a0" x="405.233766" y="257.538345" style="fill: #008000; stroke: #008000"/>
     <use xlink:href="#md97ae108a0" x="415.586271" y="247.772799" style="fill: #008000; stroke: #008000"/>
     <use xlink:href="#md97ae108a0" x="425.938776" y="244.219013" style="fill: #008000; stroke: #008000"/>
     <use xlink:href="#md97ae108a0" x="436.29128" y="246.019269" style="fill: #008000; stroke: #008000"/>
     <use xlink:href="#md97ae108a0" x="446.643785" y="234.268018" style="fill: #008000; stroke: #008000"/>
     <use xlink:href="#md97ae108a0" x="456.996289" y="231.370973" style="fill: #008000; stroke: #008000"/>
     <use xlink:href="#md97ae108a0" x="467.348794" y="239.919491" style="fill: #008000; stroke: #008000"/>
     <use xlink:href="#md97ae108a0" x="477.701299" y="210.113888" style="fill: #008000; stroke: #008000"/>
     <use xlink:href="#md97ae108a0" x="488.053803" y="183.466685" style="fill: #008000; stroke: #008000"/>
     <use xlink:href="#md97ae108a0" x="498.406308" y="177.143177" style="fill: #008000; stroke: #008000"/>
     <use xlink:href="#md97ae108a0" x="508.758813" y="180.63607" style="fill: #008000; stroke: #008000"/>
     <use xlink:href="#md97ae108a0" x="519.111317" y="217.881673" style="fill: #008000; stroke: #008000"/>
     <use xlink:href="#md97ae108a0" x="529.463822" y="160.354409" style="fill: #008000; stroke: #008000"/>
     <use xlink:href="#md97ae108a0" x="539.816327" y="172.162332" style="fill: #008000; stroke: #008000"/>
     <use xlink:href="#md97ae108a0" x="550.168831" y="116.733834" style="fill: #008000; stroke: #008000"/>
     <use xlink:href="#md97ae108a0" x="560.521336" y="157.66627" style="fill: #008000; stroke: #008000"/>
     <use xlink:href="#md97ae108a0" x="570.87384" y="96.759973" style="fill: #008000; stroke: #008000"/>
     <use xlink:href="#md97ae108a0" x="581.226345" y="81.534829" style="fill: #008000; stroke: #008000"/>
     <use xlink:href="#md97ae108a0" x="591.57885" y="103.50922" style="fill: #008000; stroke: #008000"/>
     <use xlink:href="#md97ae108a0" x="601.931354" y="94.701271" style="fill: #008000; stroke: #008000"/>
     <use xlink:href="#md97ae108a0" x="612.283859" y="83.304169" style="fill: #008000; stroke: #008000"/>
     <use xlink:href="#md97ae108a0" x="622.636364" y="164.84182" style="fill: #008000; stroke: #008000"/>
    </g>
   </g>
   <g id="patch_3">
    <path d="M 90 384.48 
L 90 51.84 
" style="fill: none; stroke: #000000; stroke-width: 0.8; stroke-linejoin: miter; stroke-linecap: square"/>
   </g>
   <g id="patch_4">
    <path d="M 648 384.48 
L 648 51.84 
" style="fill: none; stroke: #000000; stroke-width: 0.8; stroke-linejoin: miter; stroke-linecap: square"/>
   </g>
   <g id="patch_5">
    <path d="M 90 384.48 
L 648 384.48 
" style="fill: none; stroke: #000000; stroke-width: 0.8; stroke-linejoin: miter; stroke-linecap: square"/>
   </g>
   <g id="patch_6">
    <path d="M 90 51.84 
L 648 51.84 
" style="fill: none; stroke: #000000; stroke-width: 0.8; stroke-linejoin: miter; stroke-linecap: square"/>
   </g>
   <g id="text_16">
    <!-- Quick Sort &amp; Merge Sort vs O(N^2) -->
    <g transform="translate(263.168437 45.84) scale(0.12 -0.12)">
     <defs>
      <path id="DejaVuSans-51" d="M 2522 4238 
Q 1834 4238 1429 3725 
Q 1025 3213 1025 2328 
Q 1025 1447 1429 934 
Q 1834 422 2522 422 
Q 3209 422 3611 934 
Q 4013 1447 4013 2328 
Q 4013 3213 3611 3725 
Q 3209 4238 2522 4238 
z
M 3406 84 
L 4238 -825 
L 3475 -825 
L 2784 -78 
Q 2681 -84 2626 -87 
Q 2572 -91 2522 -91 
Q 1538 -91 948 567 
Q 359 1225 359 2328 
Q 359 3434 948 4092 
Q 1538 4750 2522 4750 
Q 3503 4750 4090 4092 
Q 4678 3434 4678 2328 
Q 4678 1516 4351 937 
Q 4025 359 3406 84 
z
" transform="scale(0.015625)"/>
      <path id="DejaVuSans-75" d="M 544 1381 
L 544 3500 
L 1119 3500 
L 1119 1403 
Q 1119 906 1312 657 
Q 1506 409 1894 409 
Q 2359 409 2629 706 
Q 2900 1003 2900 1516 
L 2900 3500 
L 3475 3500 
L 3475 0 
L 2900 0 
L 2900 538 
Q 2691 219 2414 64 
Q 2138 -91 1772 -91 
Q 1169 -91 856 284 
Q 544 659 544 1381 
z
M 1991 3584 
L 1991 3584 
z
" transform="scale(0.015625)"/>
      <path id="DejaVuSans-63" d="M 3122 3366 
L 3122 2828 
Q 2878 2963 2633 3030 
Q 2388 3097 2138 3097 
Q 1578 3097 1268 2742 
Q 959 2388 959 1747 
Q 959 1106 1268 751 
Q 1578 397 2138 397 
Q 2388 397 2633 464 
Q 2878 531 3122 666 
L 3122 134 
Q 2881 22 2623 -34 
Q 2366 -91 2075 -91 
Q 1284 -91 818 406 
Q 353 903 353 1747 
Q 353 2603 823 3093 
Q 1294 3584 2113 3584 
Q 2378 3584 2631 3529 
Q 2884 3475 3122 3366 
z
" transform="scale(0.015625)"/>
      <path id="DejaVuSans-6b" d="M 581 4863 
L 1159 4863 
L 1159 1991 
L 2875 3500 
L 3609 3500 
L 1753 1863 
L 3688 0 
L 2938 0 
L 1159 1709 
L 1159 0 
L 581 0 
L 581 4863 
z
" transform="scale(0.015625)"/>
      <path id="DejaVuSans-53" d="M 3425 4513 
L 3425 3897 
Q 3066 4069 2747 4153 
Q 2428 4238 2131 4238 
Q 1616 4238 1336 4038 
Q 1056 3838 1056 3469 
Q 1056 3159 1242 3001 
Q 1428 2844 1947 2747 
L 2328 2669 
Q 3034 2534 3370 2195 
Q 3706 1856 3706 1288 
Q 3706 609 3251 259 
Q 2797 -91 1919 -91 
Q 1588 -91 1214 -16 
Q 841 59 441 206 
L 441 856 
Q 825 641 1194 531 
Q 1563 422 1919 422 
Q 2459 422 2753 634 
Q 3047 847 3047 1241 
Q 3047 1584 2836 1778 
Q 2625 1972 2144 2069 
L 1759 2144 
Q 1053 2284 737 2584 
Q 422 2884 422 3419 
Q 422 4038 858 4394 
Q 1294 4750 2059 4750 
Q 2388 4750 2728 4690 
Q 3069 4631 3425 4513 
z
" transform="scale(0.015625)"/>
      <path id="DejaVuSans-6f" d="M 1959 3097 
Q 1497 3097 1228 2736 
Q 959 2375 959 1747 
Q 959 1119 1226 758 
Q 1494 397 1959 397 
Q 2419 397 2687 759 
Q 2956 1122 2956 1747 
Q 2956 2369 2687 2733 
Q 2419 3097 1959 3097 
z
M 1959 3584 
Q 2709 3584 3137 3096 
Q 3566 2609 3566 1747 
Q 3566 888 3137 398 
Q 2709 -91 1959 -91 
Q 1206 -91 779 398 
Q 353 888 353 1747 
Q 353 2609 779 3096 
Q 1206 3584 1959 3584 
z
" transform="scale(0.015625)"/>
      <path id="DejaVuSans-72" d="M 2631 2963 
Q 2534 3019 2420 3045 
Q 2306 3072 2169 3072 
Q 1681 3072 1420 2755 
Q 1159 2438 1159 1844 
L 1159 0 
L 581 0 
L 581 3500 
L 1159 3500 
L 1159 2956 
Q 1341 3275 1631 3429 
Q 1922 3584 2338 3584 
Q 2397 3584 2469 3576 
Q 2541 3569 2628 3553 
L 2631 2963 
z
" transform="scale(0.015625)"/>
      <path id="DejaVuSans-26" d="M 1556 2509 
Q 1272 2256 1139 2004 
Q 1006 1753 1006 1478 
Q 1006 1022 1337 719 
Q 1669 416 2169 416 
Q 2466 416 2725 514 
Q 2984 613 3213 813 
L 1556 2509 
z
M 1997 2859 
L 3584 1234 
Q 3769 1513 3872 1830 
Q 3975 2147 3994 2503 
L 4575 2503 
Q 4538 2091 4375 1687 
Q 4213 1284 3922 891 
L 4794 0 
L 4006 0 
L 3559 459 
Q 3234 181 2878 45 
Q 2522 -91 2113 -91 
Q 1359 -91 881 339 
Q 403 769 403 1441 
Q 403 1841 612 2192 
Q 822 2544 1241 2853 
Q 1091 3050 1012 3245 
Q 934 3441 934 3628 
Q 934 4134 1281 4442 
Q 1628 4750 2203 4750 
Q 2463 4750 2720 4694 
Q 2978 4638 3244 4525 
L 3244 3956 
Q 2972 4103 2725 4179 
Q 2478 4256 2266 4256 
Q 1938 4256 1733 4082 
Q 1528 3909 1528 3634 
Q 1528 3475 1620 3314 
Q 1713 3153 1997 2859 
z
" transform="scale(0.015625)"/>
      <path id="DejaVuSans-4d" d="M 628 4666 
L 1569 4666 
L 2759 1491 
L 3956 4666 
L 4897 4666 
L 4897 0 
L 4281 0 
L 4281 4097 
L 3078 897 
L 2444 897 
L 1241 4097 
L 1241 0 
L 628 0 
L 628 4666 
z
" transform="scale(0.015625)"/>
      <path id="DejaVuSans-67" d="M 2906 1791 
Q 2906 2416 2648 2759 
Q 2391 3103 1925 3103 
Q 1463 3103 1205 2759 
Q 947 2416 947 1791 
Q 947 1169 1205 825 
Q 1463 481 1925 481 
Q 2391 481 2648 825 
Q 2906 1169 2906 1791 
z
M 3481 434 
Q 3481 -459 3084 -895 
Q 2688 -1331 1869 -1331 
Q 1566 -1331 1297 -1286 
Q 1028 -1241 775 -1147 
L 775 -588 
Q 1028 -725 1275 -790 
Q 1522 -856 1778 -856 
Q 2344 -856 2625 -561 
Q 2906 -266 2906 331 
L 2906 616 
Q 2728 306 2450 153 
Q 2172 0 1784 0 
Q 1141 0 747 490 
Q 353 981 353 1791 
Q 353 2603 747 3093 
Q 1141 3584 1784 3584 
Q 2172 3584 2450 3431 
Q 2728 3278 2906 2969 
L 2906 3500 
L 3481 3500 
L 3481 434 
z
" transform="scale(0.015625)"/>
      <path id="DejaVuSans-76" d="M 191 3500 
L 800 3500 
L 1894 563 
L 2988 3500 
L 3597 3500 
L 2284 0 
L 1503 0 
L 191 3500 
z
" transform="scale(0.015625)"/>
      <path id="DejaVuSans-4f" d="M 2522 4238 
Q 1834 4238 1429 3725 
Q 1025 3213 1025 2328 
Q 1025 1447 1429 934 
Q 1834 422 2522 422 
Q 3209 422 3611 934 
Q 4013 1447 4013 2328 
Q 4013 3213 3611 3725 
Q 3209 4238 2522 4238 
z
M 2522 4750 
Q 3503 4750 4090 4092 
Q 4678 3434 4678 2328 
Q 4678 1225 4090 567 
Q 3503 -91 2522 -91 
Q 1538 -91 948 565 
Q 359 1222 359 2328 
Q 359 3434 948 4092 
Q 1538 4750 2522 4750 
z
" transform="scale(0.015625)"/>
      <path id="DejaVuSans-5e" d="M 2988 4666 
L 4684 2925 
L 4056 2925 
L 2681 4159 
L 1306 2925 
L 678 2925 
L 2375 4666 
L 2988 4666 
z
" transform="scale(0.015625)"/>
     </defs>
     <use xlink:href="#DejaVuSans-51"/>
     <use xlink:href="#DejaVuSans-75" transform="translate(78.710938 0)"/>
     <use xlink:href="#DejaVuSans-69" transform="translate(142.089844 0)"/>
     <use xlink:href="#DejaVuSans-63" transform="translate(169.873047 0)"/>
     <use xlink:href="#DejaVuSans-6b" transform="translate(224.853516 0)"/>
     <use xlink:href="#DejaVuSans-20" transform="translate(282.763672 0)"/>
     <use xlink:href="#DejaVuSans-53" transform="translate(314.550781 0)"/>
     <use xlink:href="#DejaVuSans-6f" transform="translate(378.027344 0)"/>
     <use xlink:href="#DejaVuSans-72" transform="translate(439.208984 0)"/>
     <use xlink:href="#DejaVuSans-74" transform="translate(480.322266 0)"/>
     <use xlink:href="#DejaVuSans-20" transform="translate(519.53125 0)"/>
     <use xlink:href="#DejaVuSans-26" transform="translate(551.318359 0)"/>
     <use xlink:href="#DejaVuSans-20" transform="translate(629.296875 0)"/>
     <use xlink:href="#DejaVuSans-4d" transform="translate(661.083984 0)"/>
     <use xlink:href="#DejaVuSans-65" transform="translate(747.363281 0)"/>
     <use xlink:href="#DejaVuSans-72" transform="translate(808.886719 0)"/>
     <use xlink:href="#DejaVuSans-67" transform="translate(848.25 0)"/>
     <use xlink:href="#DejaVuSans-65" transform="translate(911.726562 0)"/>
     <use xlink:href="#DejaVuSans-20" transform="translate(973.25 0)"/>
     <use xlink:href="#DejaVuSans-53" transform="translate(1005.037109 0)"/>
     <use xlink:href="#DejaVuSans-6f" transform="translate(1068.513672 0)"/>
     <use xlink:href="#DejaVuSans-72" transform="translate(1129.695312 0)"/>
     <use xlink:href="#DejaVuSans-74" transform="translate(1170.808594 0)"/>
     <use xlink:href="#DejaVuSans-20" transform="translate(1210.017578 0)"/>
     <use xlink:href="#DejaVuSans-76" transform="translate(1241.804688 0)"/>
     <use xlink:href="#DejaVuSans-73" transform="translate(1300.984375 0)"/>
     <use xlink:href="#DejaVuSans-20" transform="translate(1353.083984 0)"/>
     <use xlink:href="#DejaVuSans-4f" transform="translate(1384.871094 0)"/>
     <use xlink:href="#DejaVuSans-28" transform="translate(1463.582031 0)"/>
     <use xlink:href="#DejaVuSans-4e" transform="translate(1502.595703 0)"/>
     <use xlink:href="#DejaVuSans-5e" transform="translate(1577.400391 0)"/>
     <use xlink:href="#DejaVuSans-32" transform="translate(1661.189453 0)"/>
     <use xlink:href="#DejaVuSans-29" transform="translate(1724.8125 0)"/>
    </g>
   </g>
   <g id="legend_1">
    <g id="patch_7">
     <path d="M 97 104.69625 
L 183.895312 104.69625 
Q 185.895312 104.69625 185.895312 102.69625 
L 185.895312 58.84 
Q 185.895312 56.84 183.895312 56.84 
L 97 56.84 
Q 95 56.84 95 58.84 
L 95 102.69625 
Q 95 104.69625 97 104.69625 
z
" style="fill: #ffffff; opacity: 0.8; stroke: #cccccc; stroke-linejoin: miter"/>
    </g>
    <g id="line2d_30">
     <path d="M 99 65.760312 
L 109 65.760312 
L 119 65.760312 
" style="fill: none; stroke-dasharray: 5.55,2.4; stroke-dashoffset: 0; stroke: #ff0000; stroke-width: 1.5"/>
    </g>
    <g id="text_17">
     <!-- $O(N^2)$ -->
     <g transform="translate(127 69.260312) scale(0.1 -0.1)">
      <defs>
       <path id="DejaVuSans-Oblique-4f" d="M 2919 4238 
Q 2400 4238 2003 3986 
Q 1606 3734 1313 3219 
Q 1125 2891 1026 2522 
Q 928 2153 928 1778 
Q 928 1128 1239 775 
Q 1550 422 2119 422 
Q 2631 422 3032 676 
Q 3434 931 3719 1434 
Q 3909 1772 4009 2142 
Q 4109 2513 4109 2881 
Q 4109 3528 3796 3883 
Q 3484 4238 2919 4238 
z
M 2100 -91 
Q 1241 -91 748 418 
Q 256 928 256 1813 
Q 256 2319 448 2847 
Q 641 3375 978 3788 
Q 1375 4272 1862 4511 
Q 2350 4750 2938 4750 
Q 3794 4750 4287 4245 
Q 4781 3741 4781 2869 
Q 4781 2331 4593 1812 
Q 4406 1294 4056 872 
Q 3656 384 3173 146 
Q 2691 -91 2100 -91 
z
" transform="scale(0.015625)"/>
       <path id="DejaVuSans-Oblique-4e" d="M 1081 4666 
L 1931 4666 
L 3219 666 
L 4000 4666 
L 4616 4666 
L 3706 0 
L 2853 0 
L 1569 4025 
L 788 0 
L 172 0 
L 1081 4666 
z
" transform="scale(0.015625)"/>
      </defs>
      <use xlink:href="#DejaVuSans-Oblique-4f" transform="translate(0 0.765625)"/>
      <use xlink:href="#DejaVuSans-28" transform="translate(78.710938 0.765625)"/>
      <use xlink:href="#DejaVuSans-Oblique-4e" transform="translate(117.724609 0.765625)"/>
      <use xlink:href="#DejaVuSans-32" transform="translate(199.546068 39.046875) scale(0.7)"/>
      <use xlink:href="#DejaVuSans-29" transform="translate(246.816576 0.765625)"/>
     </g>
    </g>
    <g id="line2d_31">
     <path d="M 99 80.438437 
L 109 80.438437 
L 119 80.438437 
" style="fill: none; stroke: #0000ff; stroke-width: 1.5; stroke-linecap: square"/>
     <g>
      <use xlink:href="#mdc8e4ec60c" x="109" y="80.438437" style="fill: #0000ff; stroke: #0000ff"/>
     </g>
    </g>
    <g id="text_18">
     <!-- Quick Sort -->
     <g transform="translate(127 83.938437) scale(0.1 -0.1)">
      <use xlink:href="#DejaVuSans-51"/>
      <use xlink:href="#DejaVuSans-75" transform="translate(78.710938 0)"/>
      <use xlink:href="#DejaVuSans-69" transform="translate(142.089844 0)"/>
      <use xlink:href="#DejaVuSans-63" transform="translate(169.873047 0)"/>
      <use xlink:href="#DejaVuSans-6b" transform="translate(224.853516 0)"/>
      <use xlink:href="#DejaVuSans-20" transform="translate(282.763672 0)"/>
      <use xlink:href="#DejaVuSans-53" transform="translate(314.550781 0)"/>
      <use xlink:href="#DejaVuSans-6f" transform="translate(378.027344 0)"/>
      <use xlink:href="#DejaVuSans-72" transform="translate(439.208984 0)"/>
      <use xlink:href="#DejaVuSans-74" transform="translate(480.322266 0)"/>
     </g>
    </g>
    <g id="line2d_32">
     <path d="M 99 95.116562 
L 109 95.116562 
L 119 95.116562 
" style="fill: none; stroke: #008000; stroke-width: 1.5; stroke-linecap: square"/>
     <g>
      <use xlink:href="#md97ae108a0" x="109" y="95.116562" style="fill: #008000; stroke: #008000"/>
     </g>
    </g>
    <g id="text_19">
     <!-- Merge Sort -->
     <g transform="translate(127 98.616562) scale(0.1 -0.1)">
      <use xlink:href="#DejaVuSans-4d"/>
      <use xlink:href="#DejaVuSans-65" transform="translate(86.279297 0)"/>
      <use xlink:href="#DejaVuSans-72" transform="translate(147.802734 0)"/>
      <use xlink:href="#DejaVuSans-67" transform="translate(187.166016 0)"/>
      <use xlink:href="#DejaVuSans-65" transform="translate(250.642578 0)"/>
      <use xlink:href="#DejaVuSans-20" transform="translate(312.166016 0)"/>
      <use xlink:href="#DejaVuSans-53" transform="translate(343.953125 0)"/>
      <use xlink:href="#DejaVuSans-6f" transform="translate(407.429688 0)"/>
      <use xlink:href="#DejaVuSans-72" transform="translate(468.611328 0)"/>
      <use xlink:href="#DejaVuSans-74" transform="translate(509.724609 0)"/>
     </g>
    </g>
   </g>
  </g>
 </g>
 <defs>
  <clipPath id="pa3b90ed1d5">
   <rect x="90" y="51.84" width="558" height="332.64"/>
  </clipPath>
 </defs>
</svg>
